<?xml version="1.0" encoding="utf-8"?>
<!-- Generator: Adobe Illustrator 17.1.0, SVG Export Plug-In . SVG Version: 6.00 Build 0)  -->
<!DOCTYPE svg PUBLIC "-//W3C//DTD SVG 1.1//EN" "http://www.w3.org/Graphics/SVG/1.1/DTD/svg11.dtd">
<svg version="1.1" id="Capa_1" xmlns="http://www.w3.org/2000/svg" xmlns:xlink="http://www.w3.org/1999/xlink" x="0px" y="0px"
	 viewBox="0 0 595.3 841.9" enable-background="new 0 0 595.3 841.9" xml:space="preserve">
<g>
	<path fill="#F9F9F2" d="M583.1,388.2c16.2,16.2,16.2,42.7,0,58.9l-256,256.1c-8.2,8.2-18.8,12.1-29.4,12.1
		c-10.6,0-21.4-4.1-29.4-12.1l-256-256c-16.4-16.4-16.4-42.7,0-59c16.2-16.2,42.7-16.2,58.9,0l226.6,226.6l226.6-226.6
		C540.3,371.9,566.8,371.9,583.1,388.2z M268.1,453.7c8.2,8.2,18.8,12.1,29.4,12.1c10.6,0,21.4-4.1,29.4-12.1l256.1-256
		c16.2-16.2,16.2-42.7,0-59c-16.2-16.2-42.7-16.2-58.9,0L297.7,365.3L71.2,138.8c-16.2-16.4-42.7-16.4-58.9,0
		c-16.4,16.2-16.4,42.7,0,58.9L268.1,453.7z"/>
</g>
</svg>
