<?xml version="1.0" encoding="utf-8"?>
<!-- Generator: Adobe Illustrator 18.1.0, SVG Export Plug-In . SVG Version: 6.00 Build 0)  -->
<svg version="1.1" id="Capa_1" xmlns="http://www.w3.org/2000/svg" xmlns:xlink="http://www.w3.org/1999/xlink" x="0px" y="0px"
	 viewBox="-1085 1518.2 60.3 60.3" enable-background="new -1085 1518.2 60.3 60.3" xml:space="preserve">
<g>
	<polygon fill="#FF8900" points="-1053.4,1520 -1041,1528.2 -1041,1576.7 -1053.4,1576.7 	"/>
	<path fill="#FF8900" d="M-1040,1555v21.4h15.3v-16.6L-1040,1555z M-1033.5,1571.8l-4.7-1.4v-4l4.7,1.7V1571.8z M-1033.5,1564.8
		l-4.7-1.4v-4l4.7,1.7V1564.8z M-1027.7,1573.5l-4.7-1.4v-4l4.7,1.7V1573.5z M-1027.7,1566.5l-4.7-1.4v-4l4.7,1.7L-1027.7,1566.5
		C-1027.7,1566.5-1027.7,1566.5-1027.7,1566.5z"/>
	<path fill="#FF8900" d="M-1070.3,1529.7v32.2l-2.2,1.4v-10.8l-1.4,0.6v-10.7l-10.2,4.5v10.5l-1,0.4v19h30.2v-56.9L-1070.3,1529.7z
		 M-1083.1,1549l3.4-1.6v4.1l-3.4,1.5C-1083.1,1553-1083.1,1549-1083.1,1549z M-1082.8,1555.7l3.4-1.6v4.1l-3.4,1.5
		C-1082.8,1559.7-1082.8,1555.7-1082.8,1555.7z M-1079.3,1570.5l-3.4,1.5v-4.1l3.4-1.6V1570.5z M-1079.3,1564.2l-3.4,1.5v-4.1
		l3.4-1.6V1564.2z M-1078.8,1547l3.4-1.6v4.1l-3.4,1.5C-1078.8,1551-1078.8,1547-1078.8,1547z M-1078.6,1553.7l3.4-1.6v4.1l-3.4,1.5
		C-1078.6,1557.7-1078.6,1553.7-1078.6,1553.7z M-1074.7,1568.5l-3.4,1.5v-4.1l3.4-1.6V1568.5z M-1074.7,1562.2l-3.4,1.5v-4.1
		l3.4-1.6V1562.2z M-1063.7,1563l-4.7,3v-4.4l4.7-3.1V1563z M-1063.7,1555.5l-4.7,3v-4.4l4.7-3.1V1555.5z M-1063.7,1548.1l-4.7,3
		v-4.4l4.7-3.1V1548.1z M-1063.7,1540.6l-4.7,3v-4.4l4.7-3.1V1540.6z M-1063.7,1533.2l-4.7,3v-4.4l4.7-3.1V1533.2z M-1056.7,1558.6
		l-5.5,3.4v-4.5l5.5-3.6V1558.6z M-1056.7,1551.1l-5.5,3.4v-4.5l5.5-3.6V1551.1z M-1056.7,1543.7l-5.5,3.4v-4.5l5.5-3.6V1543.7z
		 M-1056.7,1536.2l-5.5,3.4v-4.5l5.5-3.6V1536.2z M-1056.7,1528.8l-5.5,3.4v-4.5l5.5-3.6V1528.8z"/>
</g>
</svg>
