<?xml version="1.0" encoding="utf-8"?>
<!-- Generator: Adobe Illustrator 17.1.0, SVG Export Plug-In . SVG Version: 6.00 Build 0)  -->
<!DOCTYPE svg PUBLIC "-//W3C//DTD SVG 1.1//EN" "http://www.w3.org/Graphics/SVG/1.1/DTD/svg11.dtd">
<svg version="1.1" id="Capa_1" xmlns="http://www.w3.org/2000/svg" xmlns:xlink="http://www.w3.org/1999/xlink" x="0px" y="0px"
	 viewBox="0 0 595.3 841.9" enable-background="new 0 0 595.3 841.9" xml:space="preserve">
<g>
	<g>
		<path fill="#FF8900" d="M572.9,308.1H383.8c33.9,26,56.4,66.7,56.4,112.9c0,36.7-17.2,67.5-37,95.1
			c-33.9,47.2-114.7,202.1-114.7,202.1c3.1,0.1,6,0.5,9.1,0.5c164.4,0,297.6-133.3,297.6-297.6C595.3,381,587.3,342.9,572.9,308.1z"
			/>
		<path fill="#FF8900" d="M297,278.4c65.1-0.5,260.5-2.5,260.5-2.5c-50.9-91-148.1-152.7-259.8-152.7
			c-93.2,0-176.3,42.9-230.9,109.9l90.9,161.5C170,328.7,227.5,278.9,297,278.4z"/>
		<path fill="#FF8900" d="M297.6,563.5c-62.2,0-109.6-42-134-95.6C139,414.1,46.2,262.1,46.2,262.1C17.1,308.1,0,362.5,0,420.9
			c0,149.3,110,272.6,253.4,294l92.5-160.4C330.7,560.1,314.6,563.5,297.6,563.5z"/>
		<circle fill="#FF8900" cx="297.6" cy="421" r="96.2"/>
	</g>
</g>
</svg>
