<?xml version="1.0" encoding="utf-8"?>
<!-- Generator: Adobe Illustrator 18.1.0, SVG Export Plug-In . SVG Version: 6.00 Build 0)  -->
<svg version="1.1" id="Capa_1" xmlns="http://www.w3.org/2000/svg" xmlns:xlink="http://www.w3.org/1999/xlink" x="0px" y="0px"
	 viewBox="-855 1287.7 519.7 519.7" enable-background="new -855 1287.7 519.7 519.7" xml:space="preserve">
<g>
	<path fill="#FF8900" d="M-726.9,1807.4h264.4v-484.3h-264.4V1807.4z M-480.1,1640.1h-8.6h-35.4v-35.4v-34.9v-26.3v-8.6h44V1640.1
		L-480.1,1640.1z M-593,1352.3c38.3,0,68.9,48.8,68.9,108.5s-31.1,108.5-68.9,108.5s-68.9-48.3-68.9-108.5
		C-661.8,1401-631.2,1352.3-593,1352.3z"/>
	<polygon fill="#FF8900" points="-758.9,1287.7 -729.7,1314 -459.6,1314 -430.4,1287.7 	"/>
	<polygon fill="#FF8900" points="-453.4,1807.4 -427.1,1807.4 -427.1,1296.8 -453.4,1321.2 	"/>
	<polygon fill="#FF8900" points="-736.9,1321.2 -763.2,1296.8 -763.2,1807.4 -736.9,1807.4 	"/>
	<path fill="#FF8900" d="M-593,1560.7c33,0,60.2-44.9,60.2-99.9s-26.8-99.9-60.2-99.9s-60.2,44.9-60.2,99.9
		C-653.2,1516.3-626,1560.7-593,1560.7z"/>
	<path fill="#FF8900" d="M-488.8,1543h-26.3v13.9c1.4-0.5,2.9-1,4.3-1c7.2,0,13.4,5.7,13.4,13.4v35.4c0,7.2-5.7,13.4-13.4,13.4
		c-1.4,0-2.9-0.5-4.3-1v13.9h26.3V1543z"/>
	<path fill="#FF8900" d="M-510.8,1609.5c2.4,0,4.3-1.9,4.3-4.3v-35.4c0-2.4-1.9-4.3-4.3-4.3c-1.9,0-3.3,1-3.8,2.9
		c0,0.5-0.5,1-0.5,1.9v35.4c0,0.5,0,1,0.5,1.9C-514.1,1608.1-512.7,1609.5-510.8,1609.5z"/>
</g>
</svg>
