<?xml version="1.0" encoding="utf-8"?>
<!-- Generator: Adobe Illustrator 18.1.0, SVG Export Plug-In . SVG Version: 6.00 Build 0)  -->
<svg version="1.1" id="Capa_1" xmlns="http://www.w3.org/2000/svg" xmlns:xlink="http://www.w3.org/1999/xlink" x="0px" y="0px"
	 viewBox="-1075 1507.4 81 81" enable-background="new -1075 1507.4 81 81" xml:space="preserve">
<g>
	<g>
		<path fill="#FF8900" d="M-995,1535.8h-79c-0.6,0-1,0.4-1,1v22.2c0,0.6,0.4,1,1,1h79c0.6,0,1-0.4,1-1v-22.2
			C-994,1536.3-994.4,1535.8-995,1535.8z M-996,1558h-77v-20.2h77V1558z"/>
		<path fill="#FF8900" d="M-1047,1556.5h47.5c0.6,0,1-0.4,1-1v-15.1c0-0.6-0.4-1-1-1h-47.5c-0.6,0-1,0.4-1,1v15.1
			C-1048,1556.1-1047.6,1556.5-1047,1556.5z M-1046,1541.4h45.5v13.1h-45.5V1541.4z"/>
		<path fill="#FF8900" d="M-1063.3,1552.2c1.4,0,2.6-0.5,3.6-1.3l3.8,2.7c0.2,0.1,0.4,0.2,0.6,0.2c0.3,0,0.6-0.1,0.8-0.4
			c0.3-0.4,0.2-1.1-0.2-1.4l-3.7-2.6c0.5-0.8,0.8-1.8,0.8-2.9c0-3.1-2.5-5.7-5.7-5.7c-3.1,0-5.7,2.5-5.7,5.7
			C-1069,1549.6-1066.5,1552.2-1063.3,1552.2z M-1063.3,1542.8c2,0,3.7,1.6,3.7,3.7c0,2-1.6,3.7-3.7,3.7c-2,0-3.7-1.6-3.7-3.7
			S-1065.4,1542.8-1063.3,1542.8z"/>
		<polygon fill="#FF8900" points="-1038.2,1546.5 -1041,1546.5 -1041,1543.5 -1042.8,1543.5 -1042.8,1551.2 -1041,1551.2 
			-1041,1548 -1038.2,1548 -1038.2,1551.2 -1036.4,1551.2 -1036.4,1543.5 -1038.2,1543.5 		"/>
		<polygon fill="#FF8900" points="-1035.5,1545 -1033.4,1545 -1033.4,1551.2 -1031.7,1551.2 -1031.7,1545 -1029.6,1545 
			-1029.6,1543.5 -1035.5,1543.5 		"/>
		<polygon fill="#FF8900" points="-1029,1545 -1026.9,1545 -1026.9,1551.2 -1025.2,1551.2 -1025.2,1545 -1023.1,1545 
			-1023.1,1543.5 -1029,1543.5 		"/>
		<path fill="#FF8900" d="M-1019.8,1543.5c-1.1,0-1.8,0.1-2.3,0.2v7.6h1.7v-2.7c0.2,0,0.4,0,0.6,0c1,0,1.9-0.3,2.5-0.8
			c0.5-0.4,0.7-1.1,0.7-1.8c0-0.8-0.3-1.4-0.8-1.8C-1018,1543.7-1018.8,1543.5-1019.8,1543.5z M-1019.9,1547.2c-0.3,0-0.4,0-0.6,0
			v-2.3c0.1,0,0.4-0.1,0.7-0.1c0.9,0,1.4,0.4,1.4,1.1C-1018.4,1546.7-1019,1547.2-1019.9,1547.2z"/>
	</g>
</g>
</svg>
