<?xml version="1.0" encoding="utf-8"?>
<!-- Generator: Adobe Illustrator 17.1.0, SVG Export Plug-In . SVG Version: 6.00 Build 0)  -->
<!DOCTYPE svg PUBLIC "-//W3C//DTD SVG 1.1//EN" "http://www.w3.org/Graphics/SVG/1.1/DTD/svg11.dtd">
<svg version="1.1" id="Capa_1" xmlns="http://www.w3.org/2000/svg" xmlns:xlink="http://www.w3.org/1999/xlink" x="0px" y="0px"
	 viewBox="0 0 512 512" enable-background="new 0 0 512 512" xml:space="preserve">
<g>
	<path fill="#FF8900" d="M256,32c-12,0-23.9,0.9-35.4,2.6c-0.1-0.4-0.3-0.8-0.5-1.1c6.4-5,9.8-11.9,8.3-18.8
		C226.5,5.9,217.2,0,205.2,0c-2.6,0-5.2,0.3-7.8,0.8c-15.1,3.2-25.1,14.3-22.7,25.3c1.4,6.7,7.1,11.7,15.1,13.7c0,0.5,0,1,0,1.5
		C89.4,70,16,162.4,16,272c0,132.5,107.5,240,240,240c132.5,0,240-107.5,240-240C496,139.5,388.5,32,256,32z M182.4,24.5
		c-1.4-6.4,6.2-13.6,16.6-15.8c2.1-0.4,4.1-0.7,6.2-0.7c8,0,14.3,3.4,15.4,8.3c0.8,3.8-1.5,7.8-5.7,11c-3.5-2.5-8-3.6-12.6-2.6
		c-4.5,1-8.2,3.8-10.4,7.4C186.9,30.9,183.2,28.1,182.4,24.5z M384.7,400.7c-22,22-48.6,37.6-77.7,46.1l-21.2-34.4l-5.4,40
		c-8,1.1-16.2,1.6-24.5,1.6c-48.6,0-94.3-18.9-128.7-53.3c-22-22-37.6-48.6-46.1-77.7l34.4-21.2l-40-5.4c-1.1-8-1.6-16.2-1.6-24.5
		c0-48.6,18.9-94.3,53.3-128.7c22-22,48.6-37.6,77.7-46.1l21.2,34.4l5.4-40c8-1.1,16.2-1.6,24.5-1.6c48.6,0,94.3,18.9,128.7,53.3
		c22,22,37.6,48.6,46.1,77.7l-34.4,21.2l40,5.4c1.1,8,1.6,16.2,1.6,24.5C438,320.6,419.1,366.3,384.7,400.7z M380.5,147.5L282,222.4
		c-7.3-3.8-15.4-6-23.7-6.4l-25.5-53.6l-1.5,59.3c-6.6,3.3-12.6,7.8-17.4,13.5l-31.5-11.2l23,24.3c-3.2,6.8-4.9,14-5.2,21.4
		l-53.6,25.5l59.4,1.5c0.2,0.4,0.4,0.8,0.6,1.1l-74.9,98.5l98.5-74.9c7.3,3.8,15.4,6,23.7,6.4l25.5,53.6l1.5-59.3
		c6.6-3.3,12.6-7.8,17.4-13.5l31.5,11.2l-23-24.3c3.2-6.8,4.9-14,5.2-21.4l53.6-25.5l-59.4-1.5c-0.2-0.4-0.4-0.8-0.6-1.1
		L380.5,147.5z M256.1,222.3v1.7V222.3L256.1,222.3z M246,225c3.4-0.7,6.7-1.1,10-1.1c2.1,0,4.1,0.1,6.1,0.4l0,0l0,0
		c4.4,0.6,8.6,1.8,12.6,3.4L239,255l-27.2,35.8c-1.2-2.8-2.1-5.7-2.8-8.8C203.5,256,220.1,230.6,246,225z M281.1,312.9L281.1,312.9
		L281.1,312.9c-4.5,2.8-9.6,4.8-15.1,6c-3.4,0.7-6.7,1.1-10,1.1c-2.1,0-4.1-0.1-6.2-0.4l0,0l0,0c-4.4-0.6-8.6-1.8-12.6-3.4L273,289
		l27.2-35.8c1.2,2.8,2.1,5.7,2.8,8.8C307.3,282.5,297.9,302.6,281.1,312.9z"/>
</g>
</svg>
