<?xml version="1.0" encoding="utf-8"?>
<!-- Generator: Adobe Illustrator 18.1.0, SVG Export Plug-In . SVG Version: 6.00 Build 0)  -->
<svg version="1.1" id="Capa_1" xmlns="http://www.w3.org/2000/svg" xmlns:xlink="http://www.w3.org/1999/xlink" x="0px" y="0px"
	 viewBox="-1093 1525.4 45 45" enable-background="new -1093 1525.4 45 45" xml:space="preserve">
<path fill="#FF8900" d="M-1088.8,1553.3l9.3,9.3l-4.2,4.2l-9.3-9.3L-1088.8,1553.3z M-1048,1547.9c0,1.2-1,2.1-2.1,2.1h-4l-9.3,9.3
	h-14.2l-2.5,1.5l-7-7.1c0,0,2.5-2.5,4.6-3.8h-2.7c-1.2,0-2.1-1-2.1-2.1L-1048,1547.9L-1048,1547.9z M-1058.1,1550h-5.8
	c-0.6,1-1.9,2.7-4.3,2.7c-1.7,0-5.9,0-5.9,0s2.2,2.1,3.2,2.1c2,0,6.6,0,6.6,0S-1060.6,1551.6-1058.1,1550z"/>
</svg>
