<?xml version="1.0" encoding="utf-8"?>
<!-- Generator: Adobe Illustrator 17.1.0, SVG Export Plug-In . SVG Version: 6.00 Build 0)  -->
<!DOCTYPE svg PUBLIC "-//W3C//DTD SVG 1.1//EN" "http://www.w3.org/Graphics/SVG/1.1/DTD/svg11.dtd">
<svg version="1.1" id="Capa_1" xmlns="http://www.w3.org/2000/svg" xmlns:xlink="http://www.w3.org/1999/xlink" x="0px" y="0px"
	 viewBox="0 0 407.2 407.2" enable-background="new 0 0 407.2 407.2" xml:space="preserve">
<g>
	<path fill="#FF8900" d="M407.2,189.3v-65.5H0v65.5h20v28.6H0v65.5h407.2v-65.5h-23v-28.6L407.2,189.3L407.2,189.3z M72.6,256.6
		H44.3v-27.7h28.3V256.6z M72.6,217.1H44.3v-27.7h28.3V217.1z M72.6,178.3H44.3v-27.7h28.3V178.3z M114.5,256.6H86.2v-27.7h28.3
		V256.6z M114.5,217.1H86.2v-27.7h28.3V217.1z M114.5,178.3H86.2v-27.7h28.3V178.3z M155.7,256.6h-28.3v-27.7h28.3V256.6z
		 M155.7,217.1h-28.3v-27.7h28.3V217.1z M155.7,178.3h-28.3v-27.7h28.3V178.3z M196.5,256.6h-28.3v-27.7h28.3V256.6z M196.5,217.1
		h-28.3v-27.7h28.3V217.1z M196.5,178.3h-28.3v-27.7h28.3V178.3z M238.3,256.6H210v-27.7h28.3V256.6z M238.3,217.1H210v-27.7h28.3
		V217.1z M238.3,178.3H210v-27.7h28.3V178.3z M279.6,256.6h-28.3v-27.7h28.3V256.6z M279.6,217.1h-28.3v-27.7h28.3V217.1z
		 M279.6,178.3h-28.3v-27.7h28.3V178.3z M342.9,255.8h-36.5v-16.9h36.5V255.8z M324.5,208.4c-16.1,0-29.2-13.1-29.2-29.2
		s13.1-29.2,29.2-29.2c16.1,0,29.2,13.1,29.2,29.2C353.6,195.3,340.6,208.4,324.5,208.4z M342.9,179c0,10.1-8.2,18.3-18.3,18.3
		c-10.1,0-18.3-8.2-18.3-18.3c0-10.1,8.2-18.3,18.3-18.3C334.7,160.8,342.9,168.9,342.9,179z"/>
</g>
</svg>
