<?xml version="1.0" encoding="utf-8"?>
<!-- Generator: Adobe Illustrator 17.1.0, SVG Export Plug-In . SVG Version: 6.00 Build 0)  -->
<!DOCTYPE svg PUBLIC "-//W3C//DTD SVG 1.1//EN" "http://www.w3.org/Graphics/SVG/1.1/DTD/svg11.dtd">
<svg version="1.1" xmlns="http://www.w3.org/2000/svg" xmlns:xlink="http://www.w3.org/1999/xlink" x="0px" y="0px"
	 viewBox="0 0 800 800" enable-background="new 0 0 800 800" xml:space="preserve">
<g id="background">
</g>
<g id="OBJECTS">
	<g>
		
			<image overflow="visible" opacity="0.75" width="2473" height="3407" xlink:href="DAD65224EA7B0C1D.png"  transform="matrix(0.24 0 0 0.24 110.3467 -8)">
		</image>
		<g>
			<rect x="118.3" y="0" fill="#F5F5F5" width="563.3" height="787.6"/>
		</g>
	</g>
	<rect x="161.8" y="115.1" fill="#FFFFFF" width="477.8" height="630.8"/>
	<g>
		<path fill="#3C3C3B" d="M361.9,51.3h3.9v33.1h-3.9V51.3z"/>
		<path fill="#3C3C3B" d="M385.5,51.3h4.9v33.1H387V71.1l0.3-12.4l-4.5,25.6h-3.5l-4.7-25.6l0.3,12.4v13.3h-3.4V51.3h4.8l4.7,27.2
			L385.5,51.3z"/>
		<path fill="#3C3C3B" d="M399.4,51.3h4.7l5.5,33.1h-3.7l-0.9-6.3h-6l-0.9,6.3h-3.7L399.4,51.3z M399.4,74.9h5.1l-2.6-17.5h-0.1
			L399.4,74.9z"/>
		<path fill="#3C3C3B" d="M412.7,60.6c0-4.9,1.2-7.9,3.5-9.1c0.9-0.4,1.9-0.7,3-0.7c2,0,3.5,0.4,4.4,1.3c0.9,0.9,1.5,2,1.7,3.4
			c0.3,1.4,0.4,3.1,0.4,5.1v2.6h-3.8v-4.3c0-1.7-0.2-2.9-0.5-3.6c-0.3-0.7-1-1.1-2-1.1c-1,0-1.7,0.5-2.1,1.4
			c-0.4,0.9-0.6,2.5-0.6,4.9v13.9c0,2.6,0.2,4.5,0.5,5.5c0.4,1,1.1,1.6,2.2,1.6c1.1,0,1.8-0.5,2.2-1.6c0.4-1.1,0.6-2.9,0.6-5.5V70
			h-2.7v-3h6.3v17.4h-2l-0.5-2.6c-0.7,1.9-2.2,2.9-4.2,2.9c-2.1,0-3.6-0.8-4.6-2.4c-1-1.6-1.5-4.2-1.5-7.7V60.6z"/>
		<path fill="#3C3C3B" d="M430.8,51.3h9.9v3.2h-6v11.3h5.7V69h-5.7v12.1h6.1v3.2h-10V51.3z"/>
	</g>
	<g>
		
			<image overflow="visible" width="1931" height="1549" xlink:href="DAD65224EA7B0C1F.png"  transform="matrix(0.24 0 0 0.24 169.0517 176.5237)">
		</image>
	</g>
	<g>
		<g>
			<path fill="#1D1D1B" d="M562.7,197.6c0-3.8,3.1-6.8,6.8-6.8c3.8,0,6.8,3.1,6.8,6.8c0,3.8-3.1,6.8-6.8,6.8
				C565.8,204.5,562.7,201.4,562.7,197.6z"/>
			<g>
				<path fill="#F5F5F5" d="M570.1,198.2v1.9H569v-1.9h-2.1V197h2.1v-1.8h1.1v1.8h2.1v1.2H570.1z"/>
			</g>
		</g>
		<g>
			<path fill="#1D1D1B" d="M583,197.7c0-3.8,3.1-6.8,6.8-6.8c3.8,0,6.8,3.1,6.8,6.8c0,3.8-3.1,6.8-6.8,6.8
				C586.1,204.5,583,201.5,583,197.7z"/>
			<g>
				<path fill="#F5F5F5" d="M587.6,198.3v-1.2h4.4v1.2H587.6z"/>
			</g>
		</g>
	</g>
	<line fill="none" stroke="#1D1D1B" stroke-width="0.4599" stroke-miterlimit="10" x1="204.4" y1="521.8" x2="597.3" y2="521.8"/>
	<line fill="none" stroke="#1D1D1B" stroke-width="0.4573" stroke-miterlimit="10" x1="206.5" y1="181.5" x2="594.9" y2="181.5"/>
	<g>
		<line fill="#6F6F6E" x1="264.5" y1="144.6" x2="251.4" y2="169.9"/>
		<line fill="#6F6F6E" x1="272.6" y1="144.6" x2="259.4" y2="169.9"/>
		<line fill="#6F6F6E" x1="280.7" y1="144.6" x2="267.5" y2="169.9"/>
		<line fill="#6F6F6E" x1="288.7" y1="144.6" x2="275.6" y2="169.9"/>
		<line fill="#6F6F6E" x1="296.8" y1="144.6" x2="283.6" y2="169.9"/>
		<line fill="#6F6F6E" x1="304.8" y1="144.6" x2="291.7" y2="169.9"/>
		<line fill="#6F6F6E" x1="312.9" y1="144.6" x2="299.8" y2="169.9"/>
		<line fill="#6F6F6E" x1="321" y1="144.6" x2="307.8" y2="169.9"/>
		<line fill="#6F6F6E" x1="329" y1="144.6" x2="315.9" y2="169.9"/>
		<line fill="#6F6F6E" x1="337.1" y1="144.6" x2="323.9" y2="169.9"/>
		<line fill="#6F6F6E" x1="345.2" y1="144.6" x2="332" y2="169.9"/>
		<line fill="#6F6F6E" x1="353.2" y1="144.6" x2="340.1" y2="169.9"/>
		<line fill="#6F6F6E" x1="361.3" y1="144.6" x2="348.1" y2="169.9"/>
		<line fill="#6F6F6E" x1="369.3" y1="144.6" x2="356.2" y2="169.9"/>
		<line fill="#6F6F6E" x1="377.4" y1="144.6" x2="364.2" y2="169.9"/>
		<line fill="#6F6F6E" x1="385.5" y1="144.6" x2="372.3" y2="169.9"/>
		<line fill="#6F6F6E" x1="393.5" y1="144.6" x2="380.4" y2="169.9"/>
		<line fill="#6F6F6E" x1="401.6" y1="144.6" x2="388.4" y2="169.9"/>
		<line fill="#6F6F6E" x1="409.7" y1="144.6" x2="396.5" y2="169.9"/>
		<line fill="#6F6F6E" x1="417.7" y1="144.6" x2="404.6" y2="169.9"/>
		<line fill="#6F6F6E" x1="425.8" y1="144.6" x2="412.6" y2="169.9"/>
		<line fill="#6F6F6E" x1="433.8" y1="144.6" x2="420.7" y2="169.9"/>
		<line fill="#6F6F6E" x1="441.9" y1="144.6" x2="428.7" y2="169.9"/>
		<line fill="#6F6F6E" x1="450" y1="144.6" x2="436.8" y2="169.9"/>
		<line fill="#6F6F6E" x1="458" y1="144.6" x2="444.9" y2="169.9"/>
		<line fill="#6F6F6E" x1="466.1" y1="144.6" x2="452.9" y2="169.9"/>
		<line fill="#6F6F6E" x1="474.1" y1="144.6" x2="461" y2="169.9"/>
		<line fill="#6F6F6E" x1="482.2" y1="144.6" x2="469.1" y2="169.9"/>
		<line fill="#6F6F6E" x1="490.3" y1="144.6" x2="477.1" y2="169.9"/>
		<line fill="#6F6F6E" x1="498.3" y1="144.6" x2="485.2" y2="169.9"/>
		<line fill="#6F6F6E" x1="506.4" y1="144.6" x2="493.2" y2="169.9"/>
		<line fill="#6F6F6E" x1="514.5" y1="144.6" x2="501.3" y2="169.9"/>
		<line fill="#6F6F6E" x1="522.5" y1="144.6" x2="509.4" y2="169.9"/>
		<line fill="#6F6F6E" x1="530.6" y1="144.6" x2="517.4" y2="169.9"/>
		<line fill="#6F6F6E" x1="538.6" y1="144.6" x2="525.5" y2="169.9"/>
		<line fill="#6F6F6E" x1="546.7" y1="144.6" x2="533.6" y2="169.9"/>
		<line fill="#6F6F6E" x1="554.8" y1="144.6" x2="541.6" y2="169.9"/>
		<line fill="#6F6F6E" x1="562.8" y1="144.6" x2="549.7" y2="169.9"/>
		<line fill="#6F6F6E" x1="570.9" y1="144.6" x2="557.7" y2="169.9"/>
		<line fill="#6F6F6E" x1="579" y1="144.6" x2="565.8" y2="169.9"/>
		<line fill="#6F6F6E" x1="587" y1="144.6" x2="573.9" y2="169.9"/>
		<line fill="#6F6F6E" x1="595.1" y1="144.6" x2="581.9" y2="169.9"/>
	</g>
	<rect x="206.9" y="144.6" fill="#6F6F6E" width="39.6" height="24.6"/>
	<rect x="204.8" y="555.4" fill="#868686" width="280" height="16.2"/>
	<rect x="204.8" y="582.4" fill="#868686" width="391" height="16.2"/>
	<rect x="204.8" y="602.8" fill="#868686" width="391" height="16.2"/>
	<rect x="204.8" y="640" fill="#868686" width="391" height="16.2"/>
	<rect x="204.8" y="659.9" fill="#868686" width="391" height="16.2"/>
	<rect x="204.8" y="679.7" fill="#868686" width="391" height="16.2"/>
	<g id="_x3C_Layer_x3E_">
	</g>
</g>
</svg>
