<?xml version="1.0" encoding="utf-8"?>
<!-- Generator: Adobe Illustrator 17.1.0, SVG Export Plug-In . SVG Version: 6.00 Build 0)  -->
<!DOCTYPE svg PUBLIC "-//W3C//DTD SVG 1.1//EN" "http://www.w3.org/Graphics/SVG/1.1/DTD/svg11.dtd">
<svg version="1.1" id="Capa_1" xmlns="http://www.w3.org/2000/svg" xmlns:xlink="http://www.w3.org/1999/xlink" x="0px" y="0px"
	 viewBox="0 0 416.7 416.7" enable-background="new 0 0 416.7 416.7" xml:space="preserve">
<g>
	<g>
		<g>
			<path fill="#FF9800" d="M143.5,158.4h-0.8c-2.8,0-5.3,1.8-6.2,4.5l-11.9,36l-12-36.1c-0.9-2.7-3.4-4.4-6.2-4.4h-1.1
				c-2.8,0-5.3,1.8-6.2,4.5l-11.9,36l-12-36.1c-0.9-2.7-3.4-4.4-6.2-4.4h-0.8c-2.1,0-4.1,1-5.3,2.7s-1.5,3.9-0.9,5.9l18.4,54.4
				c0.9,2.6,3.4,4.4,6.2,4.4h0.4c0,0,0.1,0,0.1,0c0,0,0.1,0,0.1,0h0.3c2.8,0,5.3-1.8,6.2-4.4l12.1-35.9l12,35.9
				c0.9,2.6,3.4,4.4,6.2,4.4h0.4c0,0,0.1,0,0.1,0c0,0,0.1,0,0.1,0h0.3c2.8,0,5.3-1.8,6.2-4.4l18.4-54.4c0.7-2,0.4-4.2-0.9-5.9
				S145.6,158.4,143.5,158.4z"/>
			<path fill="#FF9800" d="M233.7,158.4h-0.8c-2.8,0-5.3,1.8-6.2,4.5l-11.9,36l-12-36.1c-0.9-2.7-3.4-4.4-6.2-4.4h-1.1
				c-2.8,0-5.3,1.8-6.2,4.5l-11.9,36l-12-36.1c-0.9-2.7-3.4-4.4-6.2-4.4h-0.8c-2.1,0-4.1,1-5.3,2.7s-1.5,3.9-0.9,5.9l18.4,54.4
				c0.9,2.6,3.4,4.4,6.2,4.4h0.4c0,0,0.1,0,0.1,0c0,0,0.1,0,0.1,0h0.3c2.8,0,5.3-1.8,6.2-4.4l12.1-35.9l12,35.9
				c0.9,2.6,3.4,4.4,6.2,4.4h0.4c0,0,0.1,0,0.1,0c0,0,0.1,0,0.1,0h0.3c2.8,0,5.3-1.8,6.2-4.4l18.4-54.4c0.7-2,0.4-4.2-0.9-5.9
				S235.8,158.4,233.7,158.4z"/>
			<path fill="#FF9800" d="M323.8,158.4h-0.8c-2.8,0-5.3,1.8-6.2,4.5l-11.9,36l-12-36.1c-0.9-2.7-3.4-4.4-6.2-4.4h-1.1
				c-2.8,0-5.3,1.8-6.2,4.5l-11.9,36l-12-36.1c-0.9-2.7-3.4-4.4-6.2-4.4h-0.8c-2.1,0-4.1,1-5.3,2.7s-1.5,3.9-0.9,5.9l18.4,54.4
				c0.9,2.6,3.4,4.4,6.2,4.4h0.4c0,0,0.1,0,0.1,0c0,0,0.1,0,0.1,0h0.3c2.8,0,5.3-1.8,6.2-4.4l12.1-35.9l12,35.9
				c0.9,2.6,3.4,4.4,6.2,4.4h0.4c0,0,0.1,0,0.1,0c0,0,0.1,0,0.1,0h0.3c2.8,0,5.3-1.8,6.2-4.4L330,167c0.7-2,0.4-4.2-0.9-5.9
				C327.9,159.4,325.9,158.4,323.8,158.4z"/>
			<path fill="#FF9800" d="M28.3,348.7V105h335.6v139.5c6.7-5.8,15.2-9,24.2-9c1.4,0,2.7,0.1,4.1,0.2V44.3c0-13-10.6-23.6-23.6-23.6
				H23.6C10.6,20.7,0,31.3,0,44.3v309.1c0,13,10.6,23.6,23.6,23.6h224.8c-5.4-8.5-9.4-18.1-11.4-28.3H28.3L28.3,348.7z M338,60.3
				c0-4.8,3.9-8.7,8.7-8.7h8.7c4.8,0,8.7,3.9,8.7,8.7v9.9c0,4.8-3.9,8.7-8.7,8.7h-8.7c-4.8,0-8.7-3.9-8.7-8.7V60.3z M297.6,60.3
				c0-4.8,3.9-8.7,8.7-8.7h8.7c4.8,0,8.7,3.9,8.7,8.7v9.9c0,4.8-3.9,8.7-8.7,8.7h-8.7c-4.8,0-8.7-3.9-8.7-8.7V60.3z M257.1,60.3
				c0-4.8,3.9-8.7,8.7-8.7h8.7c4.8,0,8.7,3.9,8.7,8.7v9.9c0,4.8-3.9,8.7-8.7,8.7h-8.7c-4.8,0-8.7-3.9-8.7-8.7V60.3z"/>
			<path fill="#FF9800" d="M416.7,285.5c0-4.6-1.8-8.9-5-12.1l-12.8-12.8c-3.2-3.2-7.6-5-12.1-5s-8.9,1.8-12.1,5l-19.6,19.6
				c-10.5-7.5-23.3-11.9-37.2-11.9c-35.3,0-63.9,28.6-63.9,63.9c0,35.3,28.6,63.9,63.9,63.9c35.3,0,63.9-28.6,63.9-63.9
				c0-1.4-0.1-2.8-0.1-4.3l30.2-30.2C414.9,294.4,416.7,290.1,416.7,285.5z M397.7,289.4l-61.4,61.4c-1.3,1.3-3.1,2-4.9,2h0
				c-1.8,0-3.6-0.7-4.9-2l-28.5-28.5c-2.7-2.7-2.7-7.1,0-9.8l5.5-5.5c2.7-2.7,7.1-2.7,9.8,0l18.1,18.1l51-51c1.3-1.3,3.1-2,4.9-2
				s3.6,0.7,4.9,2l5.5,5.5C400.4,282.3,400.4,286.7,397.7,289.4z"/>
		</g>
	</g>
</g>
</svg>
