<?xml version="1.0" encoding="utf-8"?>
<!-- Generator: Adobe Illustrator 17.1.0, SVG Export Plug-In . SVG Version: 6.00 Build 0)  -->
<!DOCTYPE svg PUBLIC "-//W3C//DTD SVG 1.1//EN" "http://www.w3.org/Graphics/SVG/1.1/DTD/svg11.dtd">
<svg version="1.1" id="Capa_1" xmlns="http://www.w3.org/2000/svg" xmlns:xlink="http://www.w3.org/1999/xlink" x="0px" y="0px"
	 viewBox="0 0 22 22" enable-background="new 0 0 22 22" xml:space="preserve">
<rect fill="#ED3A8B" width="22" height="22"/>
<path fill="#FFFFFF" d="M5.8,12.7c0.1,0.2,0.1,0.7,0.1,1.4c0,0.6,0,1,0.1,1.3c0.1,0.3,0.2,0.5,0.4,0.7c0.2,0.2,0.4,0.3,0.7,0.4
	c0.3,0.1,0.7,0.1,1.2,0.1h0.3v-1.4c-0.4,0-0.7,0-0.8-0.1c-0.1-0.1-0.2-0.1-0.3-0.2c-0.1-0.1-0.1-0.3-0.1-0.5c0-0.2,0-0.6,0-1.2
	c0-0.4-0.1-0.7-0.2-1C7.1,12,7,11.7,6.9,11.6c-0.1-0.2-0.3-0.3-0.6-0.5c0.3-0.2,0.4-0.3,0.6-0.5c0.1-0.2,0.2-0.3,0.3-0.6
	c0.1-0.2,0.1-0.5,0.1-0.9c0-0.7,0.1-1.1,0.1-1.4c0-0.2,0-0.4,0.1-0.5c0.1-0.1,0.1-0.2,0.3-0.2C7.9,7,8.1,7,8.6,7V5.6H8.2
	c-0.5,0-0.9,0-1.1,0.1C6.8,5.8,6.5,6,6.4,6.1C6.2,6.3,6.1,6.5,6,6.8C5.9,7.1,5.9,7.7,5.9,8.4c0,0.5,0,0.8,0,1c0,0.2-0.1,0.4-0.2,0.6
	c-0.1,0.2-0.2,0.3-0.4,0.3c-0.1,0.1-0.3,0.1-0.6,0.1v1.4c0.4,0,0.6,0.1,0.8,0.2C5.6,12.2,5.7,12.4,5.8,12.7z"/>
<path fill="#FFFFFF" d="M14.4,16.5c0.3-0.1,0.6-0.2,0.8-0.4c0.2-0.2,0.3-0.4,0.4-0.7c0.1-0.3,0.1-0.8,0.1-1.6c0-0.5,0-0.8,0-1
	c0-0.2,0.1-0.4,0.2-0.6c0.1-0.2,0.2-0.3,0.4-0.3s0.4-0.1,0.6-0.1h0v-1.4c-0.4,0-0.6-0.1-0.8-0.2c-0.2-0.1-0.3-0.4-0.4-0.7
	c-0.1-0.2-0.1-0.7-0.1-1.4c0-0.6,0-1-0.1-1.3c-0.1-0.3-0.2-0.5-0.4-0.7C15,6,14.8,5.8,14.5,5.7c-0.3-0.1-0.7-0.1-1.2-0.1H13V7
	c0.4,0,0.7,0,0.8,0.1c0.1,0.1,0.2,0.1,0.3,0.2c0,0.1,0.1,0.3,0.1,0.6c0,0.9,0.1,1.5,0.1,1.8c0.1,0.4,0.2,0.7,0.4,1
	c0.1,0.2,0.3,0.4,0.6,0.5c-0.2,0.1-0.4,0.3-0.5,0.4c-0.1,0.2-0.3,0.4-0.3,0.6c-0.1,0.2-0.1,0.6-0.2,1c0,0.7-0.1,1.1-0.1,1.3
	c0,0.2,0,0.4-0.1,0.5C14,15,14,15.1,13.8,15.2c-0.1,0.1-0.4,0.1-0.8,0.1v1.4h0.3C13.8,16.6,14.2,16.6,14.4,16.5z"/>
</svg>
