<?xml version="1.0" encoding="utf-8"?>
<!-- Generator: Adobe Illustrator 17.1.0, SVG Export Plug-In . SVG Version: 6.00 Build 0)  -->
<!DOCTYPE svg PUBLIC "-//W3C//DTD SVG 1.1//EN" "http://www.w3.org/Graphics/SVG/1.1/DTD/svg11.dtd">
<svg version="1.1" id="Capa_1" xmlns="http://www.w3.org/2000/svg" xmlns:xlink="http://www.w3.org/1999/xlink" x="0px" y="0px"
	 viewBox="0 0 22 22" enable-background="new 0 0 22 22" xml:space="preserve">
<rect fill="#0288D1" width="22" height="22"/>
<path fill="#FFFFFF" d="M4,13.3c0.1,0.3,0.1,0.9,0.1,1.9c0,0.8,0,1.4,0.1,1.8c0.1,0.4,0.3,0.7,0.5,1c0.3,0.3,0.6,0.4,0.9,0.6
	c0.4,0.1,0.9,0.2,1.6,0.2h0.4v-1.9c-0.6,0-0.9,0-1.1-0.1c-0.2-0.1-0.3-0.2-0.4-0.3c-0.1-0.1-0.1-0.4-0.1-0.7c0-0.2,0-0.8-0.1-1.7
	c0-0.6-0.1-1-0.2-1.4c-0.1-0.3-0.3-0.6-0.4-0.9c-0.2-0.2-0.4-0.4-0.8-0.6c0.3-0.2,0.6-0.4,0.8-0.7c0.2-0.2,0.3-0.5,0.4-0.8
	C6,9.4,6,8.9,6.1,8.4c0-0.9,0.1-1.5,0.1-1.9c0-0.3,0-0.6,0.1-0.7c0.1-0.1,0.2-0.2,0.4-0.3c0.2-0.1,0.5-0.1,1.1-0.1V3.6H7.3
	c-0.7,0-1.2,0-1.5,0.1C5.4,3.9,5,4.1,4.7,4.3c-0.2,0.2-0.4,0.6-0.5,1C4.1,5.7,4.1,6.4,4.1,7.4c0,0.6,0,1.1-0.1,1.3
	C4,9,3.9,9.3,3.8,9.5C3.6,9.8,3.4,9.9,3.3,10c-0.2,0.1-0.5,0.1-0.9,0.2v1.9c0.5,0,0.8,0.1,1.1,0.3C3.7,12.5,3.9,12.8,4,13.3z"/>
<path fill="#FFFFFF" d="M15.7,18.5c0.5-0.1,0.8-0.3,1.1-0.6c0.2-0.2,0.4-0.6,0.5-1c0.1-0.4,0.1-1.1,0.1-2.1c0-0.6,0-1,0.1-1.3
	c0.1-0.3,0.2-0.6,0.3-0.8c0.1-0.2,0.3-0.4,0.5-0.5s0.5-0.1,0.9-0.2h0v-1.9c-0.5,0-0.8-0.1-1.1-0.3c-0.2-0.2-0.4-0.5-0.5-0.9
	c-0.1-0.3-0.1-0.9-0.1-1.9c0-0.8,0-1.4-0.1-1.8c-0.1-0.4-0.3-0.7-0.5-1c-0.3-0.3-0.6-0.4-0.9-0.6c-0.4-0.1-0.9-0.2-1.6-0.2h-0.4v1.9
	c0.6,0,1,0,1.1,0.1c0.2,0.1,0.3,0.2,0.4,0.3c0.1,0.1,0.1,0.4,0.1,0.8c0,1.2,0.1,2,0.1,2.4c0.1,0.5,0.3,1,0.5,1.3
	c0.2,0.2,0.5,0.5,0.8,0.7c-0.3,0.2-0.5,0.4-0.7,0.6c-0.2,0.2-0.3,0.5-0.5,0.8c-0.1,0.3-0.2,0.8-0.2,1.3c0,0.9-0.1,1.5-0.1,1.8
	c0,0.3,0,0.5-0.1,0.7c-0.1,0.1-0.2,0.2-0.4,0.3c-0.2,0.1-0.5,0.1-1.1,0.1v1.9h0.4C14.9,18.6,15.4,18.6,15.7,18.5z"/>
</svg>
