<?xml version="1.0" encoding="utf-8"?>
<!-- Generator: Adobe Illustrator 17.1.0, SVG Export Plug-In . SVG Version: 6.00 Build 0)  -->
<!DOCTYPE svg PUBLIC "-//W3C//DTD SVG 1.1//EN" "http://www.w3.org/Graphics/SVG/1.1/DTD/svg11.dtd">
<svg version="1.1" id="Capa_1" xmlns="http://www.w3.org/2000/svg" xmlns:xlink="http://www.w3.org/1999/xlink" x="0px" y="0px"
	 viewBox="0 0 522.5 522.5" enable-background="new 0 0 522.5 522.5" xml:space="preserve">
<rect fill="#00796B" width="522.5" height="522.5"/>
<g>
	<g>
		<path fill="#FFFFFF" d="M319.5,89l-16-4.4c-2.1-0.7-4.1-0.5-6.1,0.6c-2,1.1-3.3,2.8-4,5l-96.2,332.9c-0.7,2.2-0.5,4.3,0.6,6.3
			c1.1,2,2.8,3.3,5,4l16,4.4c2.1,0.7,4.1,0.5,6.1-0.6c2-1.1,3.3-2.8,4-5l96.2-332.9c0.7-2.2,0.5-4.3-0.6-6.3
			C323.4,91,321.7,89.7,319.5,89z"/>
		<path fill="#FFFFFF" d="M175.4,154c0-2.2-0.9-4.2-2.6-5.9l-12.9-12.9c-1.7-1.7-3.7-2.6-5.9-2.6c-2.2,0-4.2,0.9-5.9,2.6L27.9,255.3
			c-1.7,1.7-2.6,3.7-2.6,5.9c0,2.2,0.9,4.2,2.6,5.9L148,387.3c1.7,1.7,3.7,2.6,5.9,2.6s4.2-0.9,5.9-2.6l12.9-12.9
			c1.7-1.7,2.6-3.7,2.6-5.9c0-2.2-0.9-4.2-2.6-5.9L71.5,261.2l101.3-101.3C174.5,158.2,175.4,156.2,175.4,154z"/>
		<path fill="#FFFFFF" d="M494.6,255.3L374.4,135.2c-1.7-1.7-3.7-2.6-5.9-2.6c-2.2,0-4.2,0.9-5.9,2.6L349.7,148
			c-1.7,1.7-2.6,3.7-2.6,5.9c0,2.2,0.9,4.2,2.6,5.9L451,261.2L349.7,362.6c-1.7,1.7-2.6,3.7-2.6,5.9c0,2.2,0.9,4.2,2.6,5.9
			l12.9,12.9c1.7,1.7,3.7,2.6,5.9,2.6c2.2,0,4.2-0.9,5.9-2.6l120.2-120.1c1.7-1.7,2.6-3.7,2.6-5.9C497.1,259,496.3,257,494.6,255.3z
			"/>
	</g>
</g>
</svg>
