<?xml version="1.0" encoding="utf-8"?>
<!-- Generator: Adobe Illustrator 17.1.0, SVG Export Plug-In . SVG Version: 6.00 Build 0)  -->
<!DOCTYPE svg PUBLIC "-//W3C//DTD SVG 1.1//EN" "http://www.w3.org/Graphics/SVG/1.1/DTD/svg11.dtd">
<svg version="1.1" id="Capa_1" xmlns="http://www.w3.org/2000/svg" xmlns:xlink="http://www.w3.org/1999/xlink" x="0px" y="0px"
	 viewBox="0 0 31.9 31.9" enable-background="new 0 0 31.9 31.9" xml:space="preserve">
<rect x="0" y="0" fill="#1A6CFC" width="31.9" height="31.9"/>
<path fill="#FFFFFF" d="M10.7,19.2l-4.6-3.9l4.6-4c1-0.9,1.1-2.4,0.3-3.4c-0.9-1-2.4-1.1-3.4-0.3l-6.8,5.8C0.3,14,0,14.6,0,15.3
	c0,0.7,0.3,1.4,0.9,1.8l6.8,5.7c0.4,0.4,1,0.6,1.5,0.6c0.7,0,1.4-0.3,1.8-0.9C11.9,21.5,11.7,20,10.7,19.2z"/>
<path fill="#FFFFFF" d="M31.1,13.5l-6.8-5.8c-1-0.9-2.5-0.7-3.4,0.3c-0.9,1-0.7,2.5,0.3,3.4l4.6,4l-4.6,3.9c-1,0.9-1.1,2.4-0.3,3.4
	c0.5,0.6,1.1,0.9,1.8,0.9c0.5,0,1.1-0.2,1.5-0.6l6.8-5.7c0.5-0.5,0.9-1.1,0.9-1.8C31.9,14.6,31.6,14,31.1,13.5z"/>
<path fill="#FFFFFF" d="M19.9,2.8c-1-0.4-2.2,0.3-2.6,1.5L10.9,24c-0.4,1.3,0.1,2.6,1.1,3c0.1,0,0.2,0.1,0.4,0.1
	c0.9,0.1,1.9-0.5,2.2-1.6L21,5.8C21.4,4.6,20.9,3.2,19.9,2.8z"/>
</svg>
