<?xml version="1.0" encoding="utf-8"?>
<!-- Generator: Adobe Illustrator 17.1.0, SVG Export Plug-In . SVG Version: 6.00 Build 0)  -->
<!DOCTYPE svg PUBLIC "-//W3C//DTD SVG 1.1//EN" "http://www.w3.org/Graphics/SVG/1.1/DTD/svg11.dtd">
<svg version="1.1" id="Capa_1" xmlns="http://www.w3.org/2000/svg" xmlns:xlink="http://www.w3.org/1999/xlink" x="0px" y="0px"
	 viewBox="0 0 123.2 123.2" enable-background="new 0 0 123.2 123.2" xml:space="preserve">
<rect x="0" y="0" fill="#FF4081" width="123.2" height="123.2"/>
<g>
	<g>
		<path fill="#FFFFFF" d="M86.4,84.9c-0.5,2.5-0.8,4.2-1,5.2c-0.1-0.8-0.3-1.9-0.6-3.5c-0.3-1.6-0.6-2.9-0.9-4.1L82.3,75h-4.9
			l-1.7,7.5c-0.3,1-0.5,2.3-0.8,3.9c-0.3,1.6-0.5,2.8-0.6,3.7c-0.2-1.3-0.5-3-1-5.2L71.1,75h-4.9h-0.3h-4.9l-2.2,9.9
			c-0.5,2.5-0.8,4.2-1,5.2c-0.1-0.8-0.3-1.9-0.6-3.5c-0.3-1.6-0.6-2.9-0.9-4.1L54.8,75h-4.9l-1.7,7.5c-0.3,1-0.5,2.3-0.8,3.9
			c-0.3,1.6-0.5,2.8-0.6,3.7c-0.2-1.3-0.5-3-1-5.2L43.5,75h-4.9h-0.3h-4.9l-2.2,9.9c-0.5,2.5-0.8,4.2-1,5.2
			c-0.1-0.8-0.3-1.9-0.6-3.5c-0.3-1.6-0.6-2.9-0.9-4.1L27.2,75h-4.9l-1.7,7.5c-0.3,1-0.5,2.3-0.8,3.9s-0.5,2.8-0.6,3.7
			c-0.2-1.3-0.5-3-1-5.2L15.9,75h-5.1l4.9,19.7h6.3c1.1-5.2,1.8-8.1,2-8.8c0.2-0.7,0.3-1.5,0.5-2.4c0.2-0.9,0.3-1.6,0.3-2.2
			c0.1,0.7,0.2,1.6,0.4,2.7c0.2,1.1,0.3,1.8,0.4,2.1l1.9,8.6h6.3l4.7-19.2l4.7,19.2h6.3c1.1-5.2,1.8-8.1,2-8.8
			c0.2-0.7,0.3-1.5,0.5-2.4c0.2-0.9,0.3-1.6,0.3-2.2c0.1,0.7,0.2,1.6,0.4,2.7c0.2,1.1,0.3,1.8,0.4,2.1l1.9,8.6h6.3l4.7-19.2
			l4.7,19.2h6.3c1.2-5.2,1.8-8.1,2-8.8c0.2-0.7,0.3-1.5,0.5-2.4c0.2-0.9,0.3-1.6,0.4-2.2c0.1,0.7,0.2,1.6,0.4,2.7
			c0.2,1.1,0.3,1.8,0.4,2.1l1.9,8.6h6.3L93.8,75h-5.1L86.4,84.9z"/>
		<circle fill="#FFFFFF" cx="87.6" cy="36.2" r="7.6"/>
		<path fill="#FFFFFF" d="M111.6,48.5c-0.7-0.3-1.5,0.1-1.7,0.8l-5.3,13.8h-2.7c0.4-0.5,0.6-1.2,0.5-1.8c-0.1-1.5-1.4-2.6-2.9-2.5
			c-4.2,0.3-4.8-0.6-5.2-1c-1.7-1.4-1.4-7.6-1.4-7.6c0-3.1-2.7-5.2-5.3-5.9c0,0-0.8-0.2-1.7-0.2c-0.8,0-1.7,0.2-1.7,0.2l0,0
			c-2.6,0.6-5.3,2.7-5.3,5.9V67c0,3.7,3.6,5.9,7,5.9c0.2,0,0.4,0,0.6,0l9.4,0l2,17.3c0.2,1.8,1.7,3.1,3.5,3.1c0.1,0,0.3,0,0.4,0
			c1.9-0.2,3.3-2,3.1-3.9L102.5,69c-0.2-1.8-1.7-3.1-3.5-3.1c0,0,0,0,0,0l-6.1,0v-2.6c0.7,0.3,1.4,0.5,2.3,0.7
			c0,0.1-0.1,0.3-0.1,0.4c0,0.7,0.6,1.3,1.3,1.3h9c0.6,0,1.1-0.3,1.3-0.9l5.7-14.7C112.7,49.5,112.3,48.8,111.6,48.5z"/>
	</g>
</g>
</svg>
