<?xml version="1.0" encoding="utf-8"?>
<!-- Generator: Adobe Illustrator 18.1.0, SVG Export Plug-In . SVG Version: 6.00 Build 0)  -->
<svg version="1.1" id="Layer_1" xmlns="http://www.w3.org/2000/svg" xmlns:xlink="http://www.w3.org/1999/xlink" x="0px" y="0px"
	 viewBox="0 0 2230.9 3095.4" enable-background="new 0 0 2230.9 3095.4" xml:space="preserve">
<g>
	<g id="c100_arrow">
		<path fill="#EE2725" stroke="#727373" stroke-width="3" stroke-miterlimit="10" d="M576.7,1030.4c-10.1,17-4.6,39,12.4,49.2
			l174.9,104.6l-75.5,19c-20.5,5.1-33.2,24.9-28.3,44.1c4.9,19.2,25.3,30.6,45.9,25.4l157.9-39.7c20.5-5.1,33.2-24.9,28.4-44.1
			c-0.1-0.5-0.4-0.9-0.5-1.4c-0.2-0.6-0.2-1.3-0.3-2l-39.2-155.8c-5.1-20.2-24.8-32.7-44-27.8c-19.2,4.8-30.7,25.1-25.6,45.4
			l19.1,75.8l-175.7-105.1C608.9,1007.8,586.8,1013.4,576.7,1030.4z"/>
	</g>
	<g id="Capa_1_46_">
	</g>
</g>
</svg>
