<?xml version="1.0" encoding="utf-8"?>
<!-- Generator: Adobe Illustrator 17.1.0, SVG Export Plug-In . SVG Version: 6.00 Build 0)  -->
<!DOCTYPE svg PUBLIC "-//W3C//DTD SVG 1.1//EN" "http://www.w3.org/Graphics/SVG/1.1/DTD/svg11.dtd">
<svg version="1.1" id="Capa_1" xmlns="http://www.w3.org/2000/svg" xmlns:xlink="http://www.w3.org/1999/xlink" x="0px" y="0px"
	 viewBox="0 0 512 512" enable-background="new 0 0 512 512" xml:space="preserve">
<g>
	<path fill="#FF8900" d="M256,512c141.4,0,256-114.6,256-256S397.4,0,256,0S0,114.6,0,256S114.6,512,256,512z M256,48
		c114.9,0,208,93.1,208,208s-93.1,208-208,208S48,370.9,48,256S141.1,48,256,48z M128,160c0,17.7,14.3,32,32,32s32-14.3,32-32
		s-14.3-32-32-32S128,142.3,128,160z M320,160c0,17.7,14.3,32,32,32s32-14.3,32-32s-14.3-32-32-32S320,142.3,320,160z M363.1,320
		h32.4c4.6,36.3-16.2,72.3-52,85.3c-41.5,15.1-87.5-6.4-102.5-47.8c-9.1-24.9-36.7-37.7-61.5-28.7c-22.8,8.3-35.5,32.1-30.5,55.2
		h-32.4c-4.6-36.3,16.2-72.3,52-85.3c41.5-15.1,87.5,6.4,102.5,47.8c9.1,24.9,36.7,37.7,61.5,28.7C355.3,366.9,368,343.1,363.1,320z
		"/>
</g>
</svg>
