<?xml version="1.0" encoding="utf-8"?>
<!-- Generator: Adobe Illustrator 17.1.0, SVG Export Plug-In . SVG Version: 6.00 Build 0)  -->
<!DOCTYPE svg PUBLIC "-//W3C//DTD SVG 1.1//EN" "http://www.w3.org/Graphics/SVG/1.1/DTD/svg11.dtd">
<svg version="1.1" id="Capa_1" xmlns="http://www.w3.org/2000/svg" xmlns:xlink="http://www.w3.org/1999/xlink" x="0px" y="0px"
	 viewBox="0 0 595.3 841.9" enable-background="new 0 0 595.3 841.9" xml:space="preserve">
<g>
	<g>
		<g>
			<g>
				<path fill="#FF8900" d="M0.3,372.2c0,0,0-0.1,0-0.2C0,374.4-0.2,375.4,0.3,372.2z"/>
				<polygon fill="#FF8900" points="0.3,372 0.3,372 0.3,372 				"/>
				<path fill="#FF8900" d="M590.2,348.7c-2.7,20.5-5.6,31-8.5,31.7c0,0-1-109.4-37.3-145.8c6.2,63.8,0.1,38.1,0.1,38.4
					c-49.3-85-141.2-142.3-246.3-142.3c-87.8,0-166.4,39.9-218.6,102.5c-0.4-0.4-0.9-0.8-1.4-1.3c-8.2-7.5-12.9-43.4-12.9-43.4
					c0-0.1-0.1-0.2-0.1-0.4c0-0.1-0.1-0.2-0.1-0.4c0-0.1,0-0.1-0.1-0.2c-0.1,0.1-0.1,0.2-0.2,0.2c-0.1,0.1-0.2,0.2-0.3,0.3
					c-0.1,0.1-0.2,0.2-0.3,0.3c-0.1,0.1-0.2,0.2-0.3,0.3c-0.1,0.1-0.2,0.2-0.3,0.3c-0.1,0.1-0.2,0.2-0.3,0.3
					c-0.1,0.1-0.2,0.2-0.3,0.3c-0.1,0.1-0.2,0.2-0.3,0.3c-0.1,0.1-0.2,0.2-0.3,0.4c-0.1,0.1-0.2,0.2-0.3,0.3
					c-0.1,0.1-0.2,0.2-0.3,0.3c-0.1,0.1-0.2,0.2-0.3,0.3c-0.1,0.1-0.2,0.2-0.3,0.4c0,0-15.3,20.1-20.7,41.9
					c-3.6,17.3-0.1,0.2-0.1,0.3c0,0.1,0,0.3-0.1,0.4c0,0.1-0.1,0.2-0.1,0.3c0,0,0,0,0,0c-4.5,18-6.7,39.4-6.5,64.5
					c-0.2,0.2-0.4,0.4-0.6,0.6c0,0-26.9,29.2-31.4,60.4c-0.9,6.2-1.4,9.9-1.7,11.9c0,0.1,0,0.1,0,0.2c-0.1,0.9-0.2,1.9-0.2,2.8
					c0.1-0.1,0.2-0.3,0.3-0.4c0.1,2.3,0.3,4.7,0.9,6.8l16.1-13.1c-0.2,1.6-0.5,3.1-0.8,4.6c-5.1,14.2-8.8,29.1-10.6,44.8
					c-5.3,47.8,5,95.3,30.6,142.2c0,0,10.3,18.4,16.5,27.2c0.8,1.3,1.5,2.5,2.4,3.7l0.2,0c53.4,72.9,139.1,120.2,235.7,120.2
					c85.5,0,162.3-37,215.9-96l1,0c3.5-4.3,6.8-8.8,10.1-13.1c8.9-11,17.2-22.7,24.5-35l-0.7,0.1c22.9-37.6,37.9-76.3,44.8-116.3
					C596.8,411.3,597.9,377.3,590.2,348.7z M79.2,233.7c-0.1-0.1-0.1-0.2-0.2-0.3c-0.1-0.1-0.2-0.3-0.2-0.4
					c-0.1-0.1-0.2-0.2-0.2-0.3c-0.1-0.1-0.1-0.3-0.2-0.4c0,0,0.5,0.5,1.1,1C79.4,233.5,79.3,233.6,79.2,233.7z M508.2,335.7
					c-6.1-9.4-14-15.6-24.3-18.7c12.6,49,13.9,89.5,3.7,121.5c-7-21.3-13.4-34-19.2-38.5c8,65.7-2.8,114.3-32.4,146
					c5.6-19.3,7.9-35.2,6.6-47.6c-34.7,52-74.3,78.9-118.5,80.6c-17.5-0.2-34-2.8-49.6-7.9c-0.3,0-0.7-0.1-1-0.1
					c-1.5-0.5-3-1.1-4.5-1.6c0,0,0,0,0,0c-1.3-0.5-2.6-1-3.9-1.6c-1.3-0.5-2.5-1.1-3.8-1.7c-1.2-0.6-2.5-1.1-3.7-1.7
					c-1.2-0.6-2.3-1.2-3.5-1.8c-1.2-0.6-2.4-1.2-3.5-1.8c-1.1-0.6-2.2-1.3-3.3-2c-1.1-0.6-2.3-1.3-3.3-2c-1.1-0.6-2.2-1.3-3.2-2
					c-1.1-0.7-2.1-1.4-3.1-2.1s-2.1-1.4-3.1-2.1c-1-0.7-1.9-1.5-2.9-2.2c-1-0.7-2-1.5-2.9-2.2c-1-0.8-1.9-1.5-2.8-2.3
					c-0.9-0.7-1.8-1.6-2.8-2.3c-0.9-0.8-1.8-1.5-2.7-2.4c-0.9-0.8-1.7-1.6-2.6-2.5c-0.9-0.8-1.7-1.6-2.6-2.4c-0.7-0.7-1.4-1.3-2-1.9
					c0.3,0.1,0.5,0.1,0.8,0.1c0.7,0.1,1.3,0.1,2,0.1c0.6,0,1.3,0.1,2,0.1c0.7,0.1,1.3,0.1,2,0.1c0.7,0.1,1.4,0.1,2,0.1
					c0.7,0,1.4,0.1,2,0.1c0.7,0,1.4-0.1,2.1,0c0.7,0,1.4-0.1,2.1-0.1c0.7,0,1.4,0,2.1,0c0.7,0,1.4,0,2.1,0c0.7,0,1.4,0,2-0.1
					c0.7-0.1,1.4-0.1,2.1-0.2c0.7-0.1,1.5-0.1,2.2-0.2c0.7-0.1,1.4-0.1,2.1-0.2c0.7-0.1,1.4-0.1,2.2-0.1c0.7-0.1,1.4-0.2,2.2-0.2
					c0.7-0.1,1.5-0.2,2.2-0.4c0.7-0.1,1.4-0.2,2.2-0.3c0.7-0.1,1.4-0.2,2.2-0.3c0.7-0.1,1.5-0.2,2.2-0.4c0.8-0.1,1.5-0.3,2.3-0.5
					c0.7-0.1,1.5-0.4,2.3-0.5c0.8-0.2,1.6-0.4,2.3-0.5c0.8-0.2,1.6-0.3,2.3-0.5c0.8-0.2,1.6-0.4,2.3-0.6c0.7-0.2,1.6-0.5,2.3-0.7
					c0.8-0.2,1.6-0.4,2.4-0.7c0.8-0.2,1.6-0.4,2.3-0.7c0.8-0.3,1.6-0.6,2.4-0.8c0.8-0.3,1.7-0.6,2.5-0.9c0.8-0.3,1.7-0.6,2.5-0.9
					c0.8-0.3,1.6-0.6,2.5-0.9c0.9-0.4,1.7-0.8,2.6-1.2c0.9-0.4,1.7-0.8,2.6-1.2c0.9-0.4,1.7-0.8,2.6-1.2c0.4-0.2,0.8-0.4,1.2-0.6
					l1.6-1l2.9-1.9l2.9-1.9l2.9-1.9l2.9-1.9l2.9-1.9l2.9-1.9l2.9-1.9l2.9-1.9l2.9-1.9l2.9-1.9l2.9-1.9l2.9-1.9l1.3-0.8l-0.1-0.1
					c4.9-1.8,9.5-1.7,14,0.4c9.2-1.3,12.5-6.2,9.4-14.4c-4.5-6.2-11.2-11.8-19.9-16.6c-18.9-9.8-38.7-8.3-59.3,4.7
					c-19.6,11-38.5,10.6-56.9-1.1c-12.1-8.3-23.7-19.3-34.9-33.2l-4.5-6.5c-0.1,0.2-0.1,0.5-0.1,0.8c0-0.3,0-0.6,0.1-0.8v-0.1
					c0-0.2,0-0.4,0-0.6c0.1-1.6,0.2-3.1,0.5-4.5c0.3-1.8,0.7-3.5,1.3-5c0.8-2.6,2.1-4.8,3.6-6.6c2.1-2.4,4.7-4.2,7.9-5.3
					c1.2-0.4,2.5-0.7,3.9-0.9c-0.8-0.1-1.4-0.1-2.2-0.2c-2.1-0.2-3.9-0.4-5.6-0.5c-2.2-0.2-4.1-0.4-5.6-0.5c-1.1-0.1-2-0.1-2.8-0.2
					c-1-0.1-2-0.1-3-0.2c-1.6-0.1-3.1-0.2-4.6-0.3c-0.4,0-0.7-0.1-1.1-0.1c-1.7-0.1-3.2-0.2-4.5-0.4c1.7,0,3.5,0,5.2,0
					c2.5,0.1,5,0.3,7.6,0.4c2.8,0.1,8.3,0.6,16.1,1.3c12.4,1.1,26.5,4,42.5,8.5c2.7-15.3-0.8-31.3-10.5-47.6c0-0.2,0-0.3,0-0.3
					c-0.8-1.9-2-3.7-3.5-5.5c0.6,0.6,1.1,1.1,1.6,1.7c0.8,1,1.3,2.1,1.9,3.2c0.2,0.4,0.5,0.7,0.6,1.1c0.4-0.4,0.8-0.7,1.3-1.1
					c0.6-0.6,1.2-1.1,1.9-1.7c0.7-0.6,1.3-1.1,1.9-1.7c0.6-0.6,1.3-1.1,1.9-1.7c0.6-0.6,1.3-1.1,1.9-1.7c0.6-0.5,1.3-1.1,1.9-1.7
					c0.7-0.5,1.3-1,1.9-1.6c0.6-0.5,1.3-1,1.9-1.5c0.6-0.5,1.3-1,1.9-1.6c0.6-0.5,1.3-1,1.9-1.5c0.6-0.5,1.3-1.1,1.9-1.5
					c0.6-0.5,1.3-1,1.9-1.5c0.7-0.5,1.3-0.9,1.9-1.4c0.7-0.5,1.3-0.9,1.9-1.4c0.6-0.5,1.3-0.9,1.9-1.4c0.6-0.4,1.3-0.9,1.9-1.3
					c0.6-0.5,1.3-0.9,1.9-1.3c0.7-0.4,1.3-0.8,1.9-1.2c0.7-0.4,1.3-0.8,1.9-1.2c0.6-0.4,1.3-0.8,1.9-1.2c0.6-0.4,1.3-0.8,1.9-1.2
					c0.2-0.1,0.4-0.2,0.5-0.3c0.5-0.3,0.9-0.6,1.4-1c0.6-0.4,1.3-0.8,1.9-1.3c0.7-0.6,1.3-1.3,1.9-2c0.7-0.9,1.3-1.8,1.9-2.8
					c0.8-1.6,1.5-3.2,1.9-5.2c0.1-0.1,0.2-0.3,0.4-0.3l0.1-0.1c0.1-0.1,0.4-0.4,0.5-0.5c2.9-4.3,2-7.9-3.1-10.9
					c-10.4,0.5-31.4-1.8-31.6-1.9c-0.1-0.1-0.3-0.1-0.4-0.2c-24.8-10.4-38.5-32.2-38.5-32.2c0,0.1-0.6-0.6-0.6-0.6l-0.8-1
					c0.1-0.1,0.1-0.1,0.1-0.1c0.1-0.1,0.2-0.1,0.3-0.2c0.1-0.1,0.2-0.1,0.3-0.2c0.1-0.1,0.2-0.1,0.3-0.2c0.1-0.1,0.2-0.1,0.3-0.2
					h0.1c0-0.1,0.1-0.2,0.1-0.2c0-0.1,0.1-0.2,0.1-0.3c0-0.1,0-0.2,0.1-0.3c0-0.1-0.4,0.4,0.1-0.3c-4.7-37.9,45.1-62.9,45.1-62.9
					s-59.9,16.8-78.6,38.5l-2.8,0.2l2.5,0.1c-0.1,0.1-0.1,0.1-0.2,0.2c-0.1,0.1-0.1,0.2-0.2,0.3c-0.1,0.1-0.2,0.2-0.3,0.2
					c0,0-0.1,0.1-0.1,0.1c-0.1-0.1-0.3-0.1-0.4-0.1c-0.4-0.1-0.7-0.2-1.1-0.3c-36.2-8.7-65.8,4.3-65.8,4.3c-0.2,0-0.4,0.1-0.6,0.2
					c-0.2,0.1-0.4,0.2-0.6,0.2c-0.2,0.1-0.4,0.1-0.6,0.2c-0.2,0.1-0.4,0.1-0.5,0.2c-5.3-2.5-10-6.6-14.1-12.1
					c50.7-62.2,127.9-101.9,214.3-101.9c66.8,0,128.1,23.8,175.9,63.4c-7.6-3.8-15.7-7-24.3-9.7c-24.3-7.3-53.4-11.5-86.8-12.4
					c14.7,2.9,27.2,6.6,37.2,11.2c0.6,0.2,1.2,0.4,1.8,0.6c14.2,6.7,23.7,15.2,28.2,25.1c-14.4-2.6-27.5-1.7-39,2.8
					C473.5,252.3,512.6,291,508.2,335.7z"/>
				<path fill="#FF8900" d="M1.7,361.4c-0.7,3.5-1.1,6.8-1.3,10c0.5-4,1.5-10.7,1.5-10.6C1.8,361,1.8,361.2,1.7,361.4z"/>
				<path fill="#FF8900" d="M0.4,371.4c0,0.2-0.1,0.4-0.1,0.5c0,0,0,0,0-0.1C0.3,371.7,0.4,371.6,0.4,371.4z"/>
			</g>
		</g>
	</g>
</g>
</svg>
