<?xml version="1.0" encoding="utf-8"?>
<!-- Generator: Adobe Illustrator 17.1.0, SVG Export Plug-In . SVG Version: 6.00 Build 0)  -->
<!DOCTYPE svg PUBLIC "-//W3C//DTD SVG 1.1//EN" "http://www.w3.org/Graphics/SVG/1.1/DTD/svg11.dtd">
<svg version="1.1" id="Capa_1" xmlns="http://www.w3.org/2000/svg" xmlns:xlink="http://www.w3.org/1999/xlink" x="0px" y="0px"
	 viewBox="0 0 595.3 841.9" enable-background="new 0 0 595.3 841.9" xml:space="preserve">
<path fill="#FF8900" d="M373.4,259.8c-58.6-32-100.8,36.6-109.7,90.9c-13.2-22.1-32-39.8-57.6-44.3c-35.5-5.6-65.3,22.1-70.9,55.4
	c-14.5,85.2,103,149.5,175,135.2c1.1,0,2.2-1.1,3.3-2.2c4.3,4.3,12.1,4.3,16.7-1.1C362.3,444.7,461.9,308.6,373.4,259.8z
	 M383.3,340.7c-5.6,52.1-45.4,98.6-70.9,142.8c-1.1,1.1-1.1,2.2-1.1,3.3h-1.1c-51-5.6-117.5-32-142.8-78.7
	c-13.2-23.3-14.5-76.4,23.3-80.9c40.9-4.3,54.3,35.5,73.1,63.2c5.6,7.8,17.7,3.3,14.5-6.7c0-2.2-1.1-4.3-2.2-6.7
	c2.2-26.6,8.9-51,24.4-73.1c8.9-12.1,29.9-30.9,46.5-29.9C378.8,277.5,385.5,316.2,383.3,340.7z"/>
<path fill="#FF8900" d="M172.8,559c-2.2-21-7.8-43.3-27.7-53.2c-18.8-8.9-39.8,0-51,16.7c-8.9,14.5-8.9,29.9-4.3,44.3
	c-11-7.8-24.4-13.2-38.7-10c-22.1,4.3-33.3,24.4-30.9,45.4c5.6,59.7,86.3,83.1,135.2,68.6l0,0c2.2,1.1,5.6,0,6.7-2.2
	C177.2,637.5,176.1,593.2,172.8,559z M64.3,638.6C51,629.7,36.6,612,38.7,595.3c5.6-47.6,49.8-11,64.3,3.3c0,0,1.1,1.1,2.2,1.1l0,0
	c3.3,4.3,10,2.2,8.9-3.3c0-1.1,0-1.1-1.1-2.2c0-1.1,0-2.2-1.1-2.2l0,0c-6.7-17.7-16.7-43.3-3.3-59.7c35.5-6.7,51,2.2,48.7,27.7
	c0,6.7,0,14.5,0,21c-1.1,26.6-6.7,54.3-4.3,80.9C121.8,654.2,90.9,657.4,64.3,638.6z"/>
<path fill="#FF8900" d="M374.5,625.4c-1.1-14.5-2.2-34.4-14.5-44.3c-8.9-7.8-22.1-6.7-30.9,0c-7.8,6.7-11,14.5-11,23.3
	c-18.8-13.2-51-3.3-53.2,24.4c-1.1,18.8,13.2,32,27.7,40.9c16.7,12.1,37.6,19.9,56.5,10c4.3-2.2,1.1-8.9-3.3-6.7
	c-21,6.7-49.8-12.1-61-28.8c-6.7-10-6.7-23.3,4.3-30.9c11-7.8,24.4-2.2,30.9,7.8c0,1.1,0,1.1,0,2.2c1.1,2.2,2.2,3.3,4.3,3.3
	c2.2,0,4.3-1.1,4.3-4.3V621c-2.2-8.9-1.1-16.7,2.2-24.4c16.7-4.3,25.5,0,26.6,11c2.2,7.8,2.2,19.9,2.2,27.7
	c0,14.5-7.8,28.8-4.3,43.3c1.1,3.3,5.6,4.3,7.8,2.2C376.6,667.5,375.6,642,374.5,625.4z"/>
</svg>
