<?xml version="1.0" encoding="utf-8"?>
<!-- Generator: Adobe Illustrator 17.1.0, SVG Export Plug-In . SVG Version: 6.00 Build 0)  -->
<!DOCTYPE svg PUBLIC "-//W3C//DTD SVG 1.1//EN" "http://www.w3.org/Graphics/SVG/1.1/DTD/svg11.dtd">
<svg version="1.1" id="Capa_1" xmlns="http://www.w3.org/2000/svg" xmlns:xlink="http://www.w3.org/1999/xlink" x="0px" y="0px"
	 viewBox="0 0 612 792" enable-background="new 0 0 612 792" xml:space="preserve">
<g>
	<path fill="#FF8900" d="M580.6,534.1h-6.9V212.8c0-9.8-7.9-17.7-17.7-17.7H55.9c-9.8,0-17.7,7.9-17.7,17.7v321.2h-6.8
		C14,534.1,0,548.1,0,565.5c0,17.3,14,31.4,31.4,31.4h549.3c17.3,0,31.4-14,31.4-31.4C612,548.1,598,534.1,580.6,534.1z
		 M322.6,574.6h-33.1c-5,0-9.1-4.1-9.1-9.1c0-5,4.1-9.1,9.1-9.1h33.1c5,0,9.1,4.1,9.1,9.1C331.7,570.5,327.6,574.6,322.6,574.6z
		 M539.6,542.5H72.4V229.4h467.1V542.5L539.6,542.5z"/>
	<path fill="#FF8900" d="M199.7,334.3c-6.4,0-11.5,5.2-11.5,11.5v36.5h-54.5v-36.5c0-6.4-5.2-11.5-11.5-11.5
		c-6.4,0-11.5,5.2-11.5,11.5v99.8c0,6.4,5.2,11.5,11.5,11.5c6.4,0,11.5-5.2,11.5-11.5v-40.3h54.5v40.3c0,6.4,5.2,11.5,11.5,11.5
		c6.4,0,11.5-5.2,11.5-11.5v-99.8C211.2,339.4,206.1,334.3,199.7,334.3z"/>
	<path fill="#FF8900" d="M442.5,457.7h47.5c6.4,0,11.5-5.2,11.5-11.5c0-6.4-5.2-11.5-11.5-11.5h-36v-88.3c0-6.4-5.2-11.5-11.5-11.5
		c-6.4,0-11.5,5.2-11.5,11.5v99.8C431,452.6,436.2,457.7,442.5,457.7z"/>
	<path fill="#FF8900" d="M323.3,457.7c6.4,0,11.5-5.2,11.5-11.5v-52l20.4,40.1c2,3.9,5.9,6.3,10.3,6.3c0,0,0,0,0,0
		c4.3,0,8.3-2.4,10.3-6.3l20.2-39.9v51.9c0,6.4,5.2,11.5,11.5,11.5c6.4,0,11.5-5.2,11.5-11.5v-99.8c0-6.4-5.3-11.5-11.7-11.5
		c-4.3,0-8.3,2.4-10.3,6.3l-31.6,62.4l-31.8-62.5c-2-3.9-6-6.3-10.3-6.3c-6.4,0-11.5,5.2-11.5,11.5v99.8
		C311.8,452.6,317,457.7,323.3,457.7z"/>
	<path fill="#FF8900" d="M230.3,358.1h18.8v86.7c0,6.4,5.2,11.5,11.5,11.5c6.4,0,11.5-5.2,11.5-11.5v-86.7h21.7
		c6.4,0,11.5-5.2,11.5-11.5c0-6.4-5.2-11.5-11.5-11.5h-63.5c-6.4,0-11.5,5.2-11.5,11.5C218.8,352.9,224,358.1,230.3,358.1z"/>
</g>
</svg>
