<?xml version="1.0" encoding="utf-8"?>
<!-- Generator: Adobe Illustrator 17.1.0, SVG Export Plug-In . SVG Version: 6.00 Build 0)  -->
<!DOCTYPE svg PUBLIC "-//W3C//DTD SVG 1.1//EN" "http://www.w3.org/Graphics/SVG/1.1/DTD/svg11.dtd">
<svg version="1.1" id="Capa_1" xmlns="http://www.w3.org/2000/svg" xmlns:xlink="http://www.w3.org/1999/xlink" x="0px" y="0px"
	 viewBox="0 0 612 792" enable-background="new 0 0 612 792" xml:space="preserve">
<g>
	<path fill="#FF8900" d="M569.9,435c-2.4-8.1-4.4-16.4-7.3-24.3c-4.2-11.7-9-23.2-13.6-34.7c-4.3-10.9-7.9-21.9-10.1-33.4
		c-0.5-2.5,0.4-5.5,1.1-8.1c1.1-3.8,2.9-7.4,4-11.1c0.5-1.5,0.1-3.4-0.3-5c-7.2-32.4-17.7-63.7-32.8-93.4c-1.5-2.8-2.8-5.7-4.3-8.8
		c4.6-2.9,9.2-5.7,13.9-8.6c-13.4-22.4-28.5-43.3-49-60.2c4.4-1.7,8.3-3.3,12.4-4.8c-0.4-0.4-0.6-0.8-1-1
		c-16.6-12.2-34.5-21.9-53.7-29.5c-25.8-10.3-52.5-17.1-80-20.3c-8.5-1-17-1.1-25.5-1.6c-0.5,0-25,0-26,0
		c-17.7,0.5-35.2,2.9-52.6,6.2c-19.6,3.6-38.8,8.5-57.3,15.6c-28.1,10.6-54.1,24.8-76.3,45.5c-9.9,9.2-18.7,19.3-26.8,30.1
		c-11,14.6-19.9,30.5-27,47.3c-7.4,17.6-12.2,35.8-14.3,54.7c-0.6,5.6-1,11.2-1.5,16.8c-1.6,32.9,2.5,50.6,4.4,60.7
		c1.8,9,4.4,17.9,7.4,26.6c10.3,29.9,25.6,57,46,81.2c14.4,17.1,26.6,35.6,37.3,55.1c17.4,31.6,30.4,64.9,38.6,100.1
		c1.3,5.5,1.7,11,1.7,16.7c0.1,13.3,0.2,26.6,0.5,39.9c0.1,5.2,0.1,10.3,0.2,15.5h266.5l0.2-66.6c0.4-8.1,1-16.1,2.4-24
		c1.1-6.2,5.2-11.6,11.8-13.7c9.4-3.1,16.1-3.3,25.8-2.1c10,1.2,19.8,2.9,29.8,3.7c3.4,0.3,7.4,0.3,10.8-0.6c5-1.5,8.9-5.2,12.2-9
		c5.3-6.2,7.1-13.4,5.1-21.4c-0.6-2.6-0.8-5.3-1.2-7.9c-0.8-5.5,2-10,4.8-14.3c1.1-1.7,2.4-3.3,3.4-5c3.4-5.9,2.8-15.3-1.5-20.5
		c-2.2-2.6-4.9-4.8-7.4-7.2c-0.6-0.6-1.4-1.1-2.1-1.6c3-2,6.1-3.6,8.7-5.8c2.1-1.7,4-3.8,5.5-6c2-2.9,2.4-6.2,1.2-9.6
		c-3.2-8.8-5.3-17.7-6.3-26.9c-0.4-3.1-0.2-6.3-0.2-9.3c0-0.6,0.9-1.4,1.5-1.7c2.7-1.3,5.3-2.5,8.1-3.6
		C573.6,442.6,569.9,435.3,569.9,435z M421.9,258.4c2.6,19.6-11.4,38.1-32.4,44.9c-6.2,4.9-14,8.5-22.6,10.2
		c-7.2,8-17.9,13.8-30.3,15.4c-11.2,1.6-21.8-0.7-30.5-5.4c-4.9,16.1-45.8,16.6-66,19.3c-20.8,2.7-44.4,83.9-53.4,47.1
		c-1.5-7.4-26.1-83.6-61.2-89.4c-12.7-1.8,13.2-7.8,7.6-9.2c-18.9-4.7-20.9-18.4-23.4-36.4c-1.6-11.3,2.2-22.3,9.3-31.2
		c0-0.3-0.2-0.6-0.2-0.9c-2-15.1,8-29.4,23.6-35.8c7.6-12.3,21.4-21.6,38.2-24.5c6.2-4.7,13.9-8,22.6-9.2c7.4-1,14.6-0.2,21,1.9
		c2.3-0.5,4.4-1.2,6.7-1.4c5.1-0.7,10-0.6,14.8-0.1c5.4-4.5,12.2-7.7,20-8.8c11-1.4,21.4,1.6,28.8,7.5c7.7-5.6,17.2-9.6,27.8-11
		c10.1-1.4,19.7-0.1,28.4,2.9c22.1-2.1,42.3,7.1,52.4,22.6c12.9,5.8,22.3,16.7,24.2,30.2c0.7,5,0.1,9.8-1.3,14.5
		c2.5,4.2,4.4,8.7,5.1,13.7c1.4,11-2.4,21.7-9.8,30.2C421.4,256.6,421.7,257.4,421.9,258.4z"/>
</g>
</svg>
