<?xml version="1.0" encoding="utf-8"?>
<!-- Generator: Adobe Illustrator 17.1.0, SVG Export Plug-In . SVG Version: 6.00 Build 0)  -->
<!DOCTYPE svg PUBLIC "-//W3C//DTD SVG 1.1//EN" "http://www.w3.org/Graphics/SVG/1.1/DTD/svg11.dtd">
<svg version="1.1" id="Capa_1" xmlns="http://www.w3.org/2000/svg" xmlns:xlink="http://www.w3.org/1999/xlink" x="0px" y="0px"
	 viewBox="0 0 570.5 570.5" enable-background="new 0 0 570.5 570.5" xml:space="preserve">
<g>
	<g>
		<path fill="#FF8900" d="M544.3,200h-240v-65.2c0-15,12.2-27.2,27.2-27.2h185.9c10.5,0,19.1-8.5,19.1-19.1s-8.5-19.1-19.1-19.1
			H331.5c-36,0-65.3,29.3-65.3,65.3V200h-240C11.7,200,0,211.7,0,226.2v248.7c0,14.5,11.7,26.2,26.2,26.2h518.1
			c14.5,0,26.2-11.7,26.2-26.2V226.2C570.5,211.7,558.8,200,544.3,200z M376.3,263.3c0-3.7,3-6.7,6.7-6.7h36.1c3.7,0,6.7,3,6.7,6.7
			v32.3c0,3.7-3,6.7-6.7,6.7H383c-3.7,0-6.7-3-6.7-6.7V263.3z M376.3,334.4v32.3c0,3.7-3,6.7-6.7,6.7h-36.1c-3.7,0-6.7-3-6.7-6.7
			v-32.3c0-3.7,3-6.7,6.7-6.7h36.1C373.3,327.7,376.3,330.7,376.3,334.4z M342,256.6c3.7,0,6.7,3,6.7,6.7v32.3c0,3.7-3,6.7-6.7,6.7
			h-36.1c-3.7,0-6.7-3-6.7-6.7v-32.3c0-3.7,3-6.7,6.7-6.7H342L342,256.6z M300.2,334.4v32.3c0,3.7-3,6.7-6.7,6.7h-36.1
			c-3.7,0-6.7-3-6.7-6.7v-32.3c0-3.7,3-6.7,6.7-6.7h36.1C297.2,327.7,300.2,330.7,300.2,334.4z M222.2,263.3c0-3.7,3-6.7,6.7-6.7
			H265c3.7,0,6.7,3,6.7,6.7v32.3c0,3.7-3,6.7-6.7,6.7h-36.1c-3.7,0-6.7-3-6.7-6.7L222.2,263.3L222.2,263.3z M224.1,334.4v32.3
			c0,3.7-3,6.7-6.7,6.7h-36.1c-3.7,0-6.7-3-6.7-6.7v-32.3c0-3.7,3-6.7,6.7-6.7h36.1C221.1,327.7,224.1,330.7,224.1,334.4z
			 M68.1,295.6v-32.3c0-3.7,3-6.7,6.7-6.7h36.1c3.7,0,6.7,3,6.7,6.7v32.3c0,3.7-3,6.7-6.7,6.7H74.8
			C71.1,302.3,68.1,299.3,68.1,295.6z M123,437.7c0,3.7-3,6.7-6.7,6.7H80.2c-3.7,0-6.7-3-6.7-6.7v-32.3c0-3.7,3-6.7,6.7-6.7h36.1
			c3.7,0,6.7,3,6.7,6.7V437.7z M148,366.7c0,3.7-3,6.7-6.7,6.7h-36.1c-3.7,0-6.7-3-6.7-6.7v-32.3c0-3.7,3-6.7,6.7-6.7h36.1
			c3.7,0,6.7,3,6.7,6.7V366.7z M145.1,295.6v-32.3c0-3.7,3-6.7,6.7-6.7h36.1c3.7,0,6.7,3,6.7,6.7v32.3c0,3.7-3,6.7-6.7,6.7h-36.1
			C148.1,302.3,145.1,299.3,145.1,295.6z M423.9,437.7c0,3.7-3,6.7-6.7,6.7H161.4c-3.7,0-6.7-3-6.7-6.7v-32.3c0-3.7,3-6.7,6.7-6.7
			h255.8c3.7,0,6.7,3,6.7,6.7L423.9,437.7L423.9,437.7z M452.4,366.7c0,3.7-3,6.7-6.7,6.7h-36.1c-3.7,0-6.7-3-6.7-6.7v-32.3
			c0-3.7,3-6.7,6.7-6.7h36.1c3.7,0,6.7,3,6.7,6.7V366.7z M453.4,295.6v-32.3c0-3.7,3-6.7,6.7-6.7h36.1c3.7,0,6.7,3,6.7,6.7v32.3
			c0,3.7-3,6.7-6.7,6.7h-36.1C456.4,302.3,453.4,299.3,453.4,295.6z M505,437.7c0,3.7-3,6.7-6.7,6.7h-36.1c-3.7,0-6.7-3-6.7-6.7
			v-32.3c0-3.7,3-6.7,6.7-6.7h36.1c3.7,0,6.7,3,6.7,6.7L505,437.7L505,437.7z"/>
	</g>
</g>
</svg>
