<?xml version="1.0" encoding="utf-8"?>
<!-- Generator: Adobe Illustrator 17.1.0, SVG Export Plug-In . SVG Version: 6.00 Build 0)  -->
<!DOCTYPE svg PUBLIC "-//W3C//DTD SVG 1.1//EN" "http://www.w3.org/Graphics/SVG/1.1/DTD/svg11.dtd">
<svg version="1.1" id="Capa_1" xmlns="http://www.w3.org/2000/svg" xmlns:xlink="http://www.w3.org/1999/xlink" x="0px" y="0px"
	 viewBox="0 0 612 792" enable-background="new 0 0 612 792" xml:space="preserve">
<g>
	<path fill="#FF9800" d="M526.1,92.3l-264.7,81c-32.1,9.1-58.1,42.6-58.1,74.7v275.4c0,0,0,3.8,0,3.9c0,0-19.2-12.9-61.9-6.9
		c-62.7,8.9-113.6,57.1-113.6,107.6s50.9,81.5,113.6,72.6c62.8-8.9,108.8-55.5,108.8-106.1c0,0,0-216,0-238.4s26.9-32,26.9-32
		l234.1-73.4c0,0,25.9-8.7,25.9,15.3s0,191.4,0,191.4s0,0,0,0.1c0,0-23.9-13.7-66.6-8.5c-62.7,7.6-113.6,54.8-113.6,105.2
		c0,50.5,50.9,82.5,113.6,74.9c62.8-7.6,113.7-54.7,113.7-105.3V133.8C584.2,101.8,558.2,83.2,526.1,92.3z"/>
</g>
</svg>
