<?xml version="1.0" encoding="utf-8"?>
<!-- Generator: Adobe Illustrator 17.1.0, SVG Export Plug-In . SVG Version: 6.00 Build 0)  -->
<!DOCTYPE svg PUBLIC "-//W3C//DTD SVG 1.1//EN" "http://www.w3.org/Graphics/SVG/1.1/DTD/svg11.dtd">
<svg version="1.1" id="Capa_1" xmlns="http://www.w3.org/2000/svg" xmlns:xlink="http://www.w3.org/1999/xlink" x="0px" y="0px"
	 viewBox="0 0 469.4 469.4" enable-background="new 0 0 469.4 469.4" xml:space="preserve">
<g>
	<path fill="#FF3E03" d="M310.4,235.1L459.9,85.5c12.5-12.5,12.5-33,0-45.7L429.4,9.4c-12.5-12.5-33-12.5-45.7,0L234.3,159
		L85.6,10.3c-12.5-12.5-33-12.5-45.7,0L9.5,40.8C-3,53.3-3,73.7,9.5,86.4l148.6,148.6L9.7,383.5c-12.5,12.5-12.5,33,0,45.7
		l30.4,30.4c12.5,12.5,33,12.5,45.7,0l148.5-148.4L383.1,460c12.5,12.5,33,12.5,45.7,0l30.4-30.4c12.5-12.5,12.5-33,0-45.7
		L310.4,235.1z"/>
</g>
</svg>
