<?xml version="1.0" encoding="utf-8"?>
<!-- Generator: Adobe Illustrator 17.1.0, SVG Export Plug-In . SVG Version: 6.00 Build 0)  -->
<!DOCTYPE svg PUBLIC "-//W3C//DTD SVG 1.1//EN" "http://www.w3.org/Graphics/SVG/1.1/DTD/svg11.dtd">
<svg version="1.1" id="Capa_1" xmlns="http://www.w3.org/2000/svg" xmlns:xlink="http://www.w3.org/1999/xlink" x="0px" y="0px"
	 viewBox="0 0 595.3 841.9" enable-background="new 0 0 595.3 841.9" xml:space="preserve">
<path fill="#FF8900" d="M487.4,152.6c3.7-20,4.7-42.2-10.3-56.5c-14.3-13.1-35.3-10.2-49.8,2.4c-11.8,11.2-15.9,25.5-15.7,40.1
	c-7.7-10.1-18.1-18.5-31.7-19.2c-20.8-1.6-36.1,14.2-39.6,34.3c-11,56.9,54.4,99.2,101.6,98.3l0,0c1.6,1.6,5,1.4,6.5-0.3
	C470.2,226.6,481.2,185.2,487.4,152.6z M369.7,198.7c-9.4-11.6-17.5-31.8-11.1-46.7c17.7-42.8,47.1,2.5,56.2,19.5
	c0,0,0.7,1.3,1.6,1.6l0,0c1.7,4.9,8.3,4.6,8.7-0.8c0.3-1,0.3-1-0.4-2.3c0.3-1,0.6-2-0.4-2.3l0,0c-1.2-18.2-3.2-44.4,13.1-56.3
	c33.3,2.9,44.7,15.1,35.8,38.2c-1.8,6.2-3.9,13.4-5.6,19.5c-8.1,24.4-20.5,48.7-25.5,74C416.6,227.9,388.3,223,369.7,198.7z"/>
<path fill="#FF8900" d="M323.4,367.4c-2-14.4-4.3-34.2-17.2-43.3c-9.3-7.2-22.5-5.3-30.9,1.9c-7.3,7.2-10.1,15.1-9.6,24
	c-19.6-12-51.1,0-51.6,27.7c0.1,18.9,15.2,31.1,30.2,39.1c17.4,11.1,38.8,17.5,57,6.4c4.2-2.4,0.5-8.9-3.7-6.5
	c-20.5,8-50.4-9-62.7-24.9c-7.3-9.5-8.2-22.9,2.4-31.2c10.5-8.5,24.2-3.7,31.4,5.8c0.1,1.1,0.1,1.1,0.1,2.2c1.2,2.1,2.4,3.1,4.5,3
	c2.2-0.1,4.3-1.4,4.1-4.6l-0.1-1.1c-2.7-8.7-2.1-16.5,0.6-24.5c16.3-5.4,25.5-1.6,27.2,9.3c2.7,7.6,3.4,19.7,3.9,27.5
	c0.9,14.5-6,29.2-1.6,43.4c1.3,3.2,5.9,4,7.9,1.7C328.3,409.3,325.6,383.9,323.4,367.4z"/>
</svg>
