<?xml version="1.0" encoding="utf-8"?>
<!-- Generator: Adobe Illustrator 18.1.0, SVG Export Plug-In . SVG Version: 6.00 Build 0)  -->
<svg version="1.1" id="Layer_1" xmlns="http://www.w3.org/2000/svg" xmlns:xlink="http://www.w3.org/1999/xlink" x="0px" y="0px"
	 viewBox="0 0 2230.9 3095.4" enable-background="new 0 0 2230.9 3095.4" xml:space="preserve">
<g>
	<path fill="#F6891F" d="M169.1,1116.5h264.4V632.1H169.1V1116.5z M415.8,949.1h-8.6h-35.4v-35.4v-34.9v-26.3v-8.6h44V949.1
		L415.8,949.1z M303,661.3c38.3,0,68.9,48.8,68.9,108.5c0,59.8-31.1,108.5-68.9,108.5s-68.9-48.3-68.9-108.5
		C234.2,710.1,264.8,661.3,303,661.3z"/>
	<polygon fill="#F6891F" points="137.1,596.8 166.3,623 436.4,623 465.6,596.8 	"/>
	<polygon fill="#F6891F" points="442.6,1116.5 468.9,1116.5 468.9,605.8 442.6,630.2 	"/>
	<polygon fill="#F6891F" points="159.1,630.2 132.8,605.8 132.8,1116.5 159.1,1116.5 	"/>
	<path fill="#F6891F" d="M303,869.8c33,0,60.2-44.9,60.2-99.9s-26.8-99.9-60.2-99.9s-60.2,44.9-60.2,99.9
		C242.8,825.3,270,869.8,303,869.8z"/>
	<path fill="#F6891F" d="M407.2,852.1h-26.3v13.9c1.4-0.5,2.9-1,4.3-1c7.2,0,13.4,5.7,13.4,13.4v35.4c0,7.2-5.7,13.4-13.4,13.4
		c-1.4,0-2.9-0.5-4.3-1V940h26.3V852.1z"/>
	<path fill="#F6891F" d="M385.2,918.5c2.4,0,4.3-1.9,4.3-4.3v-35.4c0-2.4-1.9-4.3-4.3-4.3c-1.9,0-3.3,1-3.8,2.9c0,0.5-0.5,1-0.5,1.9
		v35.4c0,0.5,0,1,0.5,1.9C381.9,917.1,383.3,918.5,385.2,918.5z"/>
</g>
<g>
	<path fill="#F6891F" d="M581.6,1116.5H846V632.1H581.6V1116.5z M828.3,949.1h-8.6h-35.4v-35.4v-34.9v-26.3v-8.6h44V949.1
		L828.3,949.1z M715.5,661.3c38.3,0,68.9,48.8,68.9,108.5c0,59.8-31.1,108.5-68.9,108.5c-37.8,0-68.8-48.3-68.8-108.5
		C646.7,710.1,677.3,661.3,715.5,661.3z"/>
	<polygon fill="#F6891F" points="549.6,596.8 578.8,623 848.9,623 878.1,596.8 	"/>
	<polygon fill="#F6891F" points="855.1,1116.5 881.4,1116.5 881.4,605.8 855.1,630.2 	"/>
	<polygon fill="#F6891F" points="571.6,630.2 545.3,605.8 545.3,1116.5 571.6,1116.5 	"/>
	<path fill="#F6891F" d="M715.5,869.8c33,0,60.2-44.9,60.2-99.9s-26.8-99.9-60.2-99.9c-33.5,0-60.2,44.9-60.2,99.9
		C655.3,825.3,682.5,869.8,715.5,869.8z"/>
	<path fill="#F6891F" d="M819.7,852.1h-26.3v13.9c1.4-0.5,2.9-1,4.3-1c7.2,0,13.4,5.7,13.4,13.4v35.4c0,7.2-5.7,13.4-13.4,13.4
		c-1.4,0-2.9-0.5-4.3-1V940h26.3V852.1z"/>
	<path fill="#F6891F" d="M797.7,918.5c2.4,0,4.3-1.9,4.3-4.3v-35.4c0-2.4-1.9-4.3-4.3-4.3c-1.9,0-3.3,1-3.8,2.9c0,0.5-0.5,1-0.5,1.9
		v35.4c0,0.5,0,1,0.5,1.9C794.4,917.1,795.8,918.5,797.7,918.5z"/>
</g>
<g>
	<path fill="#F6891F" d="M981.6,1116.5H1246V632.1H981.6V1116.5z M1228.3,949.1h-8.6h-35.4v-35.4v-34.9v-26.3v-8.6h44V949.1
		L1228.3,949.1z M1115.5,661.3c38.3,0,68.8,48.8,68.8,108.5c0,59.8-31.1,108.5-68.8,108.5s-68.8-48.3-68.8-108.5
		C1046.7,710.1,1077.3,661.3,1115.5,661.3z"/>
	<polygon fill="#F6891F" points="949.6,596.8 978.8,623 1248.9,623 1278.1,596.8 	"/>
	<polygon fill="#F6891F" points="1255.1,1116.5 1281.4,1116.5 1281.4,605.8 1255.1,630.2 	"/>
	<polygon fill="#F6891F" points="971.6,630.2 945.3,605.8 945.3,1116.5 971.6,1116.5 	"/>
	<path fill="#F6891F" d="M1115.5,869.8c33,0,60.2-44.9,60.2-99.9s-26.8-99.9-60.2-99.9s-60.2,44.9-60.2,99.9
		C1055.3,825.3,1082.5,869.8,1115.5,869.8z"/>
	<path fill="#F6891F" d="M1219.7,852.1h-26.3v13.9c1.4-0.5,2.9-1,4.3-1c7.2,0,13.4,5.7,13.4,13.4v35.4c0,7.2-5.7,13.4-13.4,13.4
		c-1.4,0-2.9-0.5-4.3-1V940h26.3V852.1z"/>
	<path fill="#F6891F" d="M1197.7,918.5c2.4,0,4.3-1.9,4.3-4.3v-35.4c0-2.4-1.9-4.3-4.3-4.3c-1.9,0-3.3,1-3.8,2.9
		c0,0.5-0.5,1-0.5,1.9v35.4c0,0.5,0,1,0.5,1.9C1194.4,917.1,1195.8,918.5,1197.7,918.5z"/>
</g>
<g>
	<path fill="#F6891F" d="M1385.8,1116.5h264.4V632.1h-264.4V1116.5z M1632.5,949.1h-8.6h-35.4v-35.4v-34.9v-26.3v-8.6h44V949.1
		L1632.5,949.1z M1519.7,661.3c38.3,0,68.8,48.8,68.8,108.5c0,59.8-31.1,108.5-68.8,108.5s-68.8-48.3-68.8-108.5
		C1450.8,710.1,1481.4,661.3,1519.7,661.3z"/>
	<polygon fill="#F6891F" points="1353.8,596.8 1382.9,623 1653.1,623 1682.2,596.8 	"/>
	<polygon fill="#F6891F" points="1659.3,1116.5 1685.6,1116.5 1685.6,605.8 1659.3,630.2 	"/>
	<polygon fill="#F6891F" points="1375.8,630.2 1349.5,605.8 1349.5,1116.5 1375.8,1116.5 	"/>
	<path fill="#F6891F" d="M1519.7,869.8c33,0,60.2-44.9,60.2-99.9s-26.8-99.9-60.2-99.9s-60.2,44.9-60.2,99.9
		C1459.4,825.3,1486.7,869.8,1519.7,869.8z"/>
	<path fill="#F6891F" d="M1623.9,852.1h-26.3v13.9c1.4-0.5,2.9-1,4.3-1c7.2,0,13.4,5.7,13.4,13.4v35.4c0,7.2-5.7,13.4-13.4,13.4
		c-1.4,0-2.9-0.5-4.3-1V940h26.3V852.1z"/>
	<path fill="#F6891F" d="M1601.9,918.5c2.4,0,4.3-1.9,4.3-4.3v-35.4c0-2.4-1.9-4.3-4.3-4.3c-1.9,0-3.3,1-3.8,2.9
		c0,0.5-0.5,1-0.5,1.9v35.4c0,0.5,0,1,0.5,1.9C1598.6,917.1,1600,918.5,1601.9,918.5z"/>
</g>
<g>
	<path fill="#F6891F" d="M1798.3,1116.5h264.4V632.1h-264.4V1116.5z M2045,949.1h-8.6H2001v-35.4v-34.9v-26.3v-8.6h44V949.1
		L2045,949.1z M1932.2,661.3c38.3,0,68.8,48.8,68.8,108.5c0,59.8-31.1,108.5-68.8,108.5s-68.8-48.3-68.8-108.5
		C1863.3,710.1,1893.9,661.3,1932.2,661.3z"/>
	<polygon fill="#F6891F" points="1766.3,596.8 1795.4,623 2065.6,623 2094.7,596.8 	"/>
	<polygon fill="#F6891F" points="2071.8,1116.5 2098.1,1116.5 2098.1,605.8 2071.8,630.2 	"/>
	<polygon fill="#F6891F" points="1788.3,630.2 1762,605.8 1762,1116.5 1788.3,1116.5 	"/>
	<path fill="#F6891F" d="M1932.2,869.8c33,0,60.2-44.9,60.2-99.9s-26.8-99.9-60.2-99.9s-60.2,44.9-60.2,99.9
		C1871.9,825.3,1899.2,869.8,1932.2,869.8z"/>
	<path fill="#F6891F" d="M2036.4,852.1h-26.3v13.9c1.4-0.5,2.9-1,4.3-1c7.2,0,13.4,5.7,13.4,13.4v35.4c0,7.2-5.7,13.4-13.4,13.4
		c-1.4,0-2.9-0.5-4.3-1V940h26.3V852.1z"/>
	<path fill="#F6891F" d="M2014.4,918.5c2.4,0,4.3-1.9,4.3-4.3v-35.4c0-2.4-1.9-4.3-4.3-4.3c-1.9,0-3.3,1-3.8,2.9
		c0,0.5-0.5,1-0.5,1.9v35.4c0,0.5,0,1,0.5,1.9C2011.1,917.1,2012.5,918.5,2014.4,918.5z"/>
</g>
<g>
	<path fill="#F6891F" d="M169.1,1720.6h264.4v-484.3H169.1V1720.6z M415.8,1553.3h-8.6h-35.4v-35.4V1483v-26.3v-8.6h44V1553.3
		L415.8,1553.3z M303,1265.5c38.3,0,68.9,48.8,68.9,108.5s-31.1,108.5-68.9,108.5s-68.9-48.3-68.9-108.5
		C234.2,1314.2,264.8,1265.5,303,1265.5z"/>
	<polygon fill="#F6891F" points="137.1,1200.9 166.3,1227.2 436.4,1227.2 465.6,1200.9 	"/>
	<polygon fill="#F6891F" points="442.6,1720.6 468.9,1720.6 468.9,1210 442.6,1234.4 	"/>
	<polygon fill="#F6891F" points="159.1,1234.4 132.8,1210 132.8,1720.6 159.1,1720.6 	"/>
	<path fill="#F6891F" d="M303,1473.9c33,0,60.2-44.9,60.2-99.9s-26.8-99.9-60.2-99.9s-60.2,44.9-60.2,99.9
		C242.8,1429.5,270,1473.9,303,1473.9z"/>
	<path fill="#F6891F" d="M407.2,1456.2h-26.3v13.9c1.4-0.5,2.9-1,4.3-1c7.2,0,13.4,5.7,13.4,13.4v35.4c0,7.2-5.7,13.4-13.4,13.4
		c-1.4,0-2.9-0.5-4.3-1v13.9h26.3V1456.2z"/>
	<path fill="#F6891F" d="M385.2,1522.7c2.4,0,4.3-1.9,4.3-4.3V1483c0-2.4-1.9-4.3-4.3-4.3c-1.9,0-3.3,1-3.8,2.9c0,0.5-0.5,1-0.5,1.9
		v35.4c0,0.5,0,1,0.5,1.9C381.9,1521.3,383.3,1522.7,385.2,1522.7z"/>
</g>
<g>
	<path fill="#F6891F" d="M581.6,1720.6H846v-484.3H581.6V1720.6z M828.3,1553.3h-8.6h-35.4v-35.4V1483v-26.3v-8.6h44V1553.3
		L828.3,1553.3z M715.5,1265.5c38.3,0,68.9,48.8,68.9,108.5s-31.1,108.5-68.9,108.5c-37.8,0-68.8-48.3-68.8-108.5
		C646.7,1314.2,677.3,1265.5,715.5,1265.5z"/>
	<polygon fill="#F6891F" points="549.6,1200.9 578.8,1227.2 848.9,1227.2 878.1,1200.9 	"/>
	<polygon fill="#F6891F" points="855.1,1720.6 881.4,1720.6 881.4,1210 855.1,1234.4 	"/>
	<polygon fill="#F6891F" points="571.6,1234.4 545.3,1210 545.3,1720.6 571.6,1720.6 	"/>
	<path fill="#F6891F" d="M715.5,1473.9c33,0,60.2-44.9,60.2-99.9s-26.8-99.9-60.2-99.9c-33.5,0-60.2,44.9-60.2,99.9
		C655.3,1429.5,682.5,1473.9,715.5,1473.9z"/>
	<path fill="#F6891F" d="M819.7,1456.2h-26.3v13.9c1.4-0.5,2.9-1,4.3-1c7.2,0,13.4,5.7,13.4,13.4v35.4c0,7.2-5.7,13.4-13.4,13.4
		c-1.4,0-2.9-0.5-4.3-1v13.9h26.3V1456.2z"/>
	<path fill="#F6891F" d="M797.7,1522.7c2.4,0,4.3-1.9,4.3-4.3V1483c0-2.4-1.9-4.3-4.3-4.3c-1.9,0-3.3,1-3.8,2.9c0,0.5-0.5,1-0.5,1.9
		v35.4c0,0.5,0,1,0.5,1.9C794.4,1521.3,795.8,1522.7,797.7,1522.7z"/>
</g>
<g>
	<path fill="#F6891F" d="M981.6,1720.6H1246v-484.3H981.6V1720.6z M1228.3,1553.3h-8.6h-35.4v-35.4V1483v-26.3v-8.6h44V1553.3
		L1228.3,1553.3z M1115.5,1265.5c38.3,0,68.8,48.8,68.8,108.5s-31.1,108.5-68.8,108.5s-68.8-48.3-68.8-108.5
		C1046.7,1314.2,1077.3,1265.5,1115.5,1265.5z"/>
	<polygon fill="#F6891F" points="949.6,1200.9 978.8,1227.2 1248.9,1227.2 1278.1,1200.9 	"/>
	<polygon fill="#F6891F" points="1255.1,1720.6 1281.4,1720.6 1281.4,1210 1255.1,1234.4 	"/>
	<polygon fill="#F6891F" points="971.6,1234.4 945.3,1210 945.3,1720.6 971.6,1720.6 	"/>
	<path fill="#F6891F" d="M1115.5,1473.9c33,0,60.2-44.9,60.2-99.9s-26.8-99.9-60.2-99.9s-60.2,44.9-60.2,99.9
		C1055.3,1429.5,1082.5,1473.9,1115.5,1473.9z"/>
	<path fill="#F6891F" d="M1219.7,1456.2h-26.3v13.9c1.4-0.5,2.9-1,4.3-1c7.2,0,13.4,5.7,13.4,13.4v35.4c0,7.2-5.7,13.4-13.4,13.4
		c-1.4,0-2.9-0.5-4.3-1v13.9h26.3V1456.2z"/>
	<path fill="#F6891F" d="M1197.7,1522.7c2.4,0,4.3-1.9,4.3-4.3V1483c0-2.4-1.9-4.3-4.3-4.3c-1.9,0-3.3,1-3.8,2.9
		c0,0.5-0.5,1-0.5,1.9v35.4c0,0.5,0,1,0.5,1.9C1194.4,1521.3,1195.8,1522.7,1197.7,1522.7z"/>
</g>
<g>
	<path fill="#F6891F" d="M1385.8,1720.6h264.4v-484.3h-264.4V1720.6z M1632.5,1553.3h-8.6h-35.4v-35.4V1483v-26.3v-8.6h44V1553.3
		L1632.5,1553.3z M1519.7,1265.5c38.3,0,68.8,48.8,68.8,108.5s-31.1,108.5-68.8,108.5s-68.8-48.3-68.8-108.5
		C1450.8,1314.2,1481.4,1265.5,1519.7,1265.5z"/>
	<polygon fill="#F6891F" points="1353.8,1200.9 1382.9,1227.2 1653.1,1227.2 1682.2,1200.9 	"/>
	<polygon fill="#F6891F" points="1659.3,1720.6 1685.6,1720.6 1685.6,1210 1659.3,1234.4 	"/>
	<polygon fill="#F6891F" points="1375.8,1234.4 1349.5,1210 1349.5,1720.6 1375.8,1720.6 	"/>
	<path fill="#F6891F" d="M1519.7,1473.9c33,0,60.2-44.9,60.2-99.9s-26.8-99.9-60.2-99.9s-60.2,44.9-60.2,99.9
		C1459.4,1429.5,1486.7,1473.9,1519.7,1473.9z"/>
	<path fill="#F6891F" d="M1623.9,1456.2h-26.3v13.9c1.4-0.5,2.9-1,4.3-1c7.2,0,13.4,5.7,13.4,13.4v35.4c0,7.2-5.7,13.4-13.4,13.4
		c-1.4,0-2.9-0.5-4.3-1v13.9h26.3V1456.2z"/>
	<path fill="#F6891F" d="M1601.9,1522.7c2.4,0,4.3-1.9,4.3-4.3V1483c0-2.4-1.9-4.3-4.3-4.3c-1.9,0-3.3,1-3.8,2.9
		c0,0.5-0.5,1-0.5,1.9v35.4c0,0.5,0,1,0.5,1.9C1598.6,1521.3,1600,1522.7,1601.9,1522.7z"/>
</g>
<g>
	<path fill="#F6891F" d="M1798.3,1720.6h264.4v-484.3h-264.4V1720.6z M2045,1553.3h-8.6H2001v-35.4V1483v-26.3v-8.6h44V1553.3
		L2045,1553.3z M1932.2,1265.5c38.3,0,68.8,48.8,68.8,108.5s-31.1,108.5-68.8,108.5s-68.8-48.3-68.8-108.5
		C1863.3,1314.2,1893.9,1265.5,1932.2,1265.5z"/>
	<polygon fill="#F6891F" points="1766.3,1200.9 1795.4,1227.2 2065.6,1227.2 2094.7,1200.9 	"/>
	<polygon fill="#F6891F" points="2071.8,1720.6 2098.1,1720.6 2098.1,1210 2071.8,1234.4 	"/>
	<polygon fill="#F6891F" points="1788.3,1234.4 1762,1210 1762,1720.6 1788.3,1720.6 	"/>
	<path fill="#F6891F" d="M1932.2,1473.9c33,0,60.2-44.9,60.2-99.9s-26.8-99.9-60.2-99.9s-60.2,44.9-60.2,99.9
		C1871.9,1429.5,1899.2,1473.9,1932.2,1473.9z"/>
	<path fill="#F6891F" d="M2036.4,1456.2h-26.3v13.9c1.4-0.5,2.9-1,4.3-1c7.2,0,13.4,5.7,13.4,13.4v35.4c0,7.2-5.7,13.4-13.4,13.4
		c-1.4,0-2.9-0.5-4.3-1v13.9h26.3V1456.2z"/>
	<path fill="#F6891F" d="M2014.4,1522.7c2.4,0,4.3-1.9,4.3-4.3V1483c0-2.4-1.9-4.3-4.3-4.3c-1.9,0-3.3,1-3.8,2.9
		c0,0.5-0.5,1-0.5,1.9v35.4c0,0.5,0,1,0.5,1.9C2011.1,1521.3,2012.5,1522.7,2014.4,1522.7z"/>
</g>
<line fill="none" stroke="#F6891F" stroke-width="18" stroke-miterlimit="10" x1="48.5" y1="1116.5" x2="2173.5" y2="1116.5"/>
<line fill="none" stroke="#F6891F" stroke-width="18" stroke-miterlimit="10" x1="48.5" y1="1720.6" x2="2173.5" y2="1720.6"/>
<g>
	<path fill="#F6891F" d="M169.1,2359.3h264.4v-484.3H169.1V2359.3z M415.8,2191.9h-8.6h-35.4v-35.4v-34.9v-26.3v-8.6h44V2191.9
		L415.8,2191.9z M303,1904.1c38.3,0,68.9,48.8,68.9,108.5s-31.1,108.5-68.9,108.5s-68.9-48.3-68.9-108.5
		C234.2,1952.8,264.8,1904.1,303,1904.1z"/>
	<polygon fill="#F6891F" points="137.1,1839.5 166.3,1865.8 436.4,1865.8 465.6,1839.5 	"/>
	<polygon fill="#F6891F" points="442.6,2359.3 468.9,2359.3 468.9,1848.6 442.6,1873 	"/>
	<polygon fill="#F6891F" points="159.1,1873 132.8,1848.6 132.8,2359.3 159.1,2359.3 	"/>
	<path fill="#F6891F" d="M303,2112.5c33,0,60.2-44.9,60.2-99.9s-26.8-99.9-60.2-99.9s-60.2,44.9-60.2,99.9
		C242.8,2068.1,270,2112.5,303,2112.5z"/>
	<path fill="#F6891F" d="M407.2,2094.8h-26.3v13.9c1.4-0.5,2.9-1,4.3-1c7.2,0,13.4,5.7,13.4,13.4v35.4c0,7.2-5.7,13.4-13.4,13.4
		c-1.4,0-2.9-0.5-4.3-1v13.9h26.3V2094.8z"/>
	<path fill="#F6891F" d="M385.2,2161.3c2.4,0,4.3-1.9,4.3-4.3v-35.4c0-2.4-1.9-4.3-4.3-4.3c-1.9,0-3.3,1-3.8,2.9
		c0,0.5-0.5,1-0.5,1.9v35.4c0,0.5,0,1,0.5,1.9C381.9,2159.9,383.3,2161.3,385.2,2161.3z"/>
</g>
<g>
	<path fill="#F6891F" d="M581.6,2359.3H846v-484.3H581.6V2359.3z M828.3,2191.9h-8.6h-35.4v-35.4v-34.9v-26.3v-8.6h44V2191.9
		L828.3,2191.9z M715.5,1904.1c38.3,0,68.9,48.8,68.9,108.5s-31.1,108.5-68.9,108.5c-37.8,0-68.8-48.3-68.8-108.5
		C646.7,1952.8,677.3,1904.1,715.5,1904.1z"/>
	<polygon fill="#F6891F" points="549.6,1839.5 578.8,1865.8 848.9,1865.8 878.1,1839.5 	"/>
	<polygon fill="#F6891F" points="855.1,2359.3 881.4,2359.3 881.4,1848.6 855.1,1873 	"/>
	<polygon fill="#F6891F" points="571.6,1873 545.3,1848.6 545.3,2359.3 571.6,2359.3 	"/>
	<path fill="#F6891F" d="M715.5,2112.5c33,0,60.2-44.9,60.2-99.9s-26.8-99.9-60.2-99.9c-33.5,0-60.2,44.9-60.2,99.9
		C655.3,2068.1,682.5,2112.5,715.5,2112.5z"/>
	<path fill="#F6891F" d="M819.7,2094.8h-26.3v13.9c1.4-0.5,2.9-1,4.3-1c7.2,0,13.4,5.7,13.4,13.4v35.4c0,7.2-5.7,13.4-13.4,13.4
		c-1.4,0-2.9-0.5-4.3-1v13.9h26.3V2094.8z"/>
	<path fill="#F6891F" d="M797.7,2161.3c2.4,0,4.3-1.9,4.3-4.3v-35.4c0-2.4-1.9-4.3-4.3-4.3c-1.9,0-3.3,1-3.8,2.9
		c0,0.5-0.5,1-0.5,1.9v35.4c0,0.5,0,1,0.5,1.9C794.4,2159.9,795.8,2161.3,797.7,2161.3z"/>
</g>
<g>
	<path fill="#F6891F" d="M981.6,2359.3H1246v-484.3H981.6V2359.3z M1228.3,2191.9h-8.6h-35.4v-35.4v-34.9v-26.3v-8.6h44V2191.9
		L1228.3,2191.9z M1115.5,1904.1c38.3,0,68.8,48.8,68.8,108.5s-31.1,108.5-68.8,108.5s-68.8-48.3-68.8-108.5
		C1046.7,1952.8,1077.3,1904.1,1115.5,1904.1z"/>
	<polygon fill="#F6891F" points="949.6,1839.5 978.8,1865.8 1248.9,1865.8 1278.1,1839.5 	"/>
	<polygon fill="#F6891F" points="1255.1,2359.3 1281.4,2359.3 1281.4,1848.6 1255.1,1873 	"/>
	<polygon fill="#F6891F" points="971.6,1873 945.3,1848.6 945.3,2359.3 971.6,2359.3 	"/>
	<path fill="#F6891F" d="M1115.5,2112.5c33,0,60.2-44.9,60.2-99.9s-26.8-99.9-60.2-99.9s-60.2,44.9-60.2,99.9
		C1055.3,2068.1,1082.5,2112.5,1115.5,2112.5z"/>
	<path fill="#F6891F" d="M1219.7,2094.8h-26.3v13.9c1.4-0.5,2.9-1,4.3-1c7.2,0,13.4,5.7,13.4,13.4v35.4c0,7.2-5.7,13.4-13.4,13.4
		c-1.4,0-2.9-0.5-4.3-1v13.9h26.3V2094.8z"/>
	<path fill="#F6891F" d="M1197.7,2161.3c2.4,0,4.3-1.9,4.3-4.3v-35.4c0-2.4-1.9-4.3-4.3-4.3c-1.9,0-3.3,1-3.8,2.9
		c0,0.5-0.5,1-0.5,1.9v35.4c0,0.5,0,1,0.5,1.9C1194.4,2159.9,1195.8,2161.3,1197.7,2161.3z"/>
</g>
<g>
	<path fill="#F6891F" d="M1385.8,2359.3h264.4v-484.3h-264.4V2359.3z M1632.5,2191.9h-8.6h-35.4v-35.4v-34.9v-26.3v-8.6h44V2191.9
		L1632.5,2191.9z M1519.7,1904.1c38.3,0,68.8,48.8,68.8,108.5s-31.1,108.5-68.8,108.5s-68.8-48.3-68.8-108.5
		C1450.8,1952.8,1481.4,1904.1,1519.7,1904.1z"/>
	<polygon fill="#F6891F" points="1353.8,1839.5 1382.9,1865.8 1653.1,1865.8 1682.2,1839.5 	"/>
	<polygon fill="#F6891F" points="1659.3,2359.3 1685.6,2359.3 1685.6,1848.6 1659.3,1873 	"/>
	<polygon fill="#F6891F" points="1375.8,1873 1349.5,1848.6 1349.5,2359.3 1375.8,2359.3 	"/>
	<path fill="#F6891F" d="M1519.7,2112.5c33,0,60.2-44.9,60.2-99.9s-26.8-99.9-60.2-99.9s-60.2,44.9-60.2,99.9
		C1459.4,2068.1,1486.7,2112.5,1519.7,2112.5z"/>
	<path fill="#F6891F" d="M1623.9,2094.8h-26.3v13.9c1.4-0.5,2.9-1,4.3-1c7.2,0,13.4,5.7,13.4,13.4v35.4c0,7.2-5.7,13.4-13.4,13.4
		c-1.4,0-2.9-0.5-4.3-1v13.9h26.3V2094.8z"/>
	<path fill="#F6891F" d="M1601.9,2161.3c2.4,0,4.3-1.9,4.3-4.3v-35.4c0-2.4-1.9-4.3-4.3-4.3c-1.9,0-3.3,1-3.8,2.9
		c0,0.5-0.5,1-0.5,1.9v35.4c0,0.5,0,1,0.5,1.9C1598.6,2159.9,1600,2161.3,1601.9,2161.3z"/>
</g>
<g>
	<path fill="#F6891F" d="M1798.3,2359.3h264.4v-484.3h-264.4V2359.3z M2045,2191.9h-8.6H2001v-35.4v-34.9v-26.3v-8.6h44V2191.9
		L2045,2191.9z M1932.2,1904.1c38.3,0,68.8,48.8,68.8,108.5s-31.1,108.5-68.8,108.5s-68.8-48.3-68.8-108.5
		C1863.3,1952.8,1893.9,1904.1,1932.2,1904.1z"/>
	<polygon fill="#F6891F" points="1766.3,1839.5 1795.4,1865.8 2065.6,1865.8 2094.7,1839.5 	"/>
	<polygon fill="#F6891F" points="2071.8,2359.3 2098.1,2359.3 2098.1,1848.6 2071.8,1873 	"/>
	<polygon fill="#F6891F" points="1788.3,1873 1762,1848.6 1762,2359.3 1788.3,2359.3 	"/>
	<path fill="#F6891F" d="M1932.2,2112.5c33,0,60.2-44.9,60.2-99.9s-26.8-99.9-60.2-99.9s-60.2,44.9-60.2,99.9
		C1871.9,2068.1,1899.2,2112.5,1932.2,2112.5z"/>
	<path fill="#F6891F" d="M2036.4,2094.8h-26.3v13.9c1.4-0.5,2.9-1,4.3-1c7.2,0,13.4,5.7,13.4,13.4v35.4c0,7.2-5.7,13.4-13.4,13.4
		c-1.4,0-2.9-0.5-4.3-1v13.9h26.3V2094.8z"/>
	<path fill="#F6891F" d="M2014.4,2161.3c2.4,0,4.3-1.9,4.3-4.3v-35.4c0-2.4-1.9-4.3-4.3-4.3c-1.9,0-3.3,1-3.8,2.9
		c0,0.5-0.5,1-0.5,1.9v35.4c0,0.5,0,1,0.5,1.9C2011.1,2159.9,2012.5,2161.3,2014.4,2161.3z"/>
</g>
<line fill="none" stroke="#F6891F" stroke-width="18" stroke-miterlimit="10" x1="48.5" y1="2359.3" x2="2173.5" y2="2359.3"/>
</svg>
