<?xml version="1.0" encoding="utf-8"?>
<!-- Generator: Adobe Illustrator 17.1.0, SVG Export Plug-In . SVG Version: 6.00 Build 0)  -->
<!DOCTYPE svg PUBLIC "-//W3C//DTD SVG 1.1//EN" "http://www.w3.org/Graphics/SVG/1.1/DTD/svg11.dtd">
<svg version="1.1" id="Capa_1" xmlns="http://www.w3.org/2000/svg" xmlns:xlink="http://www.w3.org/1999/xlink" x="0px" y="0px"
	 viewBox="0 0 453 453" enable-background="new 0 0 453 453" xml:space="preserve">
<g>
	<path fill="#FF8900" d="M405.5,57.6V0H47.5v57.6H65v25.2H47.5v57.6h358.1V82.8h-20.2V57.6L405.5,57.6L405.5,57.6z M111.3,116.8
		H86.5V92.4h24.9V116.8z M111.3,82H86.5V57.7h24.9V82z M111.3,47.9H86.5V23.6h24.9V47.9z M148.1,116.8h-24.9V92.4h24.9V116.8z
		 M148.1,82h-24.9V57.7h24.9V82z M148.1,47.9h-24.9V23.6h24.9V47.9z M184.4,116.8h-24.9V92.4h24.9V116.8z M184.4,82h-24.9V57.7h24.9
		V82z M184.4,47.9h-24.9V23.6h24.9V47.9z M220.3,116.8h-24.9V92.4h24.9V116.8z M220.3,82h-24.9V57.7h24.9V82z M220.3,47.9h-24.9
		V23.6h24.9V47.9z M257.1,116.8h-24.9V92.4h24.9V116.8z M257.1,82h-24.9V57.7h24.9V82z M257.1,47.9h-24.9V23.6h24.9V47.9z
		 M293.3,116.8h-24.9V92.4h24.9V116.8z M293.3,82h-24.9V57.7h24.9V82z M293.3,47.9h-24.9V23.6h24.9V47.9z M349,116.1h-32.1v-14.8
		H349V116.1z M332.8,74.4c-14.2,0-25.7-11.5-25.7-25.6c0-14.2,11.5-25.6,25.7-25.6c14.2,0,25.6,11.5,25.6,25.6
		C358.4,62.9,347,74.4,332.8,74.4z M349,48.6c0,8.9-7.2,16.1-16.1,16.1c-8.9,0-16.1-7.2-16.1-16.1c0-8.9,7.2-16.1,16.1-16.1
		C341.8,32.5,349,39.7,349,48.6z M47.5,215.4H65v25.2H47.5v57.6h358.1v-57.6h-20.2v-25.2h20.2v-57.6H47.5V215.4z M349,273.8h-32.1
		V259H349V273.8z M332.8,180.9c14.2,0,25.6,11.5,25.6,25.6c0,14.2-11.5,25.6-25.6,25.6c-14.2,0-25.7-11.5-25.7-25.6
		C307.2,192.4,318.6,180.9,332.8,180.9z M268.4,181.4h24.9v24.4h-24.9V181.4z M268.4,215.4h24.9v24.4h-24.9V215.4z M268.4,250.2
		h24.9v24.4h-24.9V250.2z M232.2,181.4h24.9v24.4h-24.9V181.4z M232.2,215.4h24.9v24.4h-24.9V215.4z M232.2,250.2h24.9v24.4h-24.9
		V250.2z M195.4,181.4h24.9v24.4h-24.9V181.4z M195.4,215.4h24.9v24.4h-24.9V215.4z M195.4,250.2h24.9v24.4h-24.9V250.2z
		 M159.5,181.4h24.9v24.4h-24.9V181.4z M159.5,215.4h24.9v24.4h-24.9V215.4z M159.5,250.2h24.9v24.4h-24.9V250.2z M123.2,181.4h24.9
		v24.4h-24.9C123.2,205.7,123.2,181.4,123.2,181.4z M123.2,215.4h24.9v24.4h-24.9C123.2,239.8,123.2,215.4,123.2,215.4z
		 M123.2,250.2h24.9v24.4h-24.9C123.2,274.5,123.2,250.2,123.2,250.2z M86.5,181.4h24.9v24.4H86.5V181.4z M86.5,215.4h24.9v24.4
		H86.5V215.4z M86.5,250.2h24.9v24.4H86.5V250.2z M316.9,206.4c0-8.9,7.2-16.1,16.1-16.1c8.9,0,16.1,7.2,16.1,16.1
		c0,8.9-7.2,16.1-16.1,16.1C324.1,222.4,316.9,215.2,316.9,206.4z M47.5,370.2H65v25.2H47.5V453h358.1v-57.6h-20.2v-25.2h20.2v-57.6
		H47.5V370.2z M349,428.7h-32.1v-14.8H349V428.7z M332.8,335.8c14.2,0,25.6,11.5,25.6,25.6c0,14.2-11.5,25.6-25.6,25.6
		c-14.2,0-25.7-11.5-25.7-25.6C307.2,347.3,318.6,335.8,332.8,335.8z M268.4,336.3h24.9v24.4h-24.9V336.3z M268.4,370.3h24.9v24.3
		h-24.9V370.3z M268.4,405.1h24.9v24.3h-24.9V405.1z M232.2,336.3h24.9v24.4h-24.9V336.3z M232.2,370.3h24.9v24.3h-24.9V370.3z
		 M232.2,405.1h24.9v24.3h-24.9V405.1z M195.4,336.3h24.9v24.4h-24.9V336.3z M195.4,370.3h24.9v24.3h-24.9V370.3z M195.4,405.1h24.9
		v24.3h-24.9V405.1z M159.5,336.3h24.9v24.4h-24.9V336.3z M159.5,370.3h24.9v24.3h-24.9V370.3z M159.5,405.1h24.9v24.3h-24.9V405.1z
		 M123.2,336.3h24.9v24.4h-24.9C123.2,360.6,123.2,336.3,123.2,336.3z M123.2,370.3h24.9v24.3h-24.9
		C123.2,394.7,123.2,370.3,123.2,370.3z M123.2,405.1h24.9v24.3h-24.9C123.2,429.4,123.2,405.1,123.2,405.1z M86.5,336.3h24.9v24.4
		H86.5V336.3z M86.5,370.3h24.9v24.3H86.5V370.3z M86.5,405.1h24.9v24.3H86.5V405.1z M316.9,361.2c0-8.9,7.2-16.1,16.1-16.1
		c8.9,0,16.1,7.2,16.1,16.1c0,8.9-7.2,16.1-16.1,16.1C324.1,377.3,316.9,370.1,316.9,361.2z"/>
</g>
</svg>
