<?xml version="1.0" encoding="utf-8"?>
<!-- Generator: Adobe Illustrator 18.1.0, SVG Export Plug-In . SVG Version: 6.00 Build 0)  -->
<svg version="1.1" id="Capa_1" xmlns="http://www.w3.org/2000/svg" xmlns:xlink="http://www.w3.org/1999/xlink" x="0px" y="0px"
	 viewBox="-1083 1516 63.4 63.4" enable-background="new -1083 1516 63.4 63.4" xml:space="preserve">
<g>
	<path fill="#FF8900" d="M-1041.6,1545.3c-2.3,0-4.1,1.8-4.1,4.1c0,2.3,1.8,4.1,4.1,4.1s4.1-1.8,4.1-4.1
		C-1037.5,1547.2-1039.3,1545.3-1041.6,1545.3z M-1041.6,1551.5c-1.1,0-2.1-0.9-2.1-2.1c0-1.1,0.9-2.1,2.1-2.1
		c1.1,0,2.1,0.9,2.1,2.1C-1039.6,1550.6-1040.5,1551.5-1041.6,1551.5z M-1031.4,1516h-21h-9.1h-6.1c-3.5,0-6.6,1.8-8.5,4.5
		c-3.2,1.8-5.3,5.1-5.3,8.9v39.7c0,5.7,4.6,10.3,10.3,10.3h39.7c5.7,0,10.3-4.6,10.3-10.3v-3.1v-36.6v-3.1
		C-1021.2,1520.6-1025.8,1516-1031.4,1516z M-1054,1541.4c0.1-1.5,0.6-3.8,1.9-5.1c1.6-1.6,6-2.4,10.4-2.4c4.4,0,8.8,0.8,10.4,2.4
		c1.3,1.3,1.8,3.6,1.9,5.1c0,0,0,0.1,0,0.2c0,0.6-0.5,1-1,1c-0.1,0-2.5-0.2-4-0.3c0,0-0.1,0-0.1,0c-0.6,0-1-0.5-1-1l0-2
		c0-0.6-0.5-1.1-1.1-1.1h-10.1c-0.6,0-1.1,0.5-1.1,1.1l0,2c0,0.6-0.4,1-1,1c0,0-0.1,0-0.1,0c-1.5,0.1-4,0.3-4,0.3c-0.6,0-1-0.5-1-1
		C-1054,1541.6-1054,1541.4-1054,1541.4z M-1048.3,1556.1v1.3c0,0.7-0.6,1.3-1.3,1.3c-0.7,0-1.3-0.6-1.3-1.3v-1.3h-0.5
		c-1.1,0-2.1-0.9-2.1-2.1v-2.1c0-0.7,0.3-1.4,0.8-1.8l6.9-7.4v-1.3c0-0.7,0.6-1.3,1.3-1.3c0.7,0,1.3,0.6,1.3,1.3v1.3h3.1v-1.3
		c0-0.7,0.6-1.3,1.3-1.3c0.7,0,1.3,0.6,1.3,1.3v1.3l6.9,7.4c0.5,0.5,0.8,1.1,0.8,1.8v2.1c0,1.1-0.9,2.1-2.1,2.1h-0.5v1.3
		c0,0.7-0.6,1.3-1.3,1.3c-0.7,0-1.3-0.6-1.3-1.3v-1.3H-1048.3z M-1076.1,1556.1l3.8-1.1c0.8,1.4,2.2,2.4,3.9,2.4
		c2.5,0,4.5-2,4.5-4.5c0-2.5-2-4.5-4.5-4.5c-2.5,0-4.5,2-4.5,4.5c0,0.1,0,0.2,0,0.3l-3.3,1v-10.9l3.8-1.1c0.8,1.4,2.2,2.4,3.9,2.4
		c2.5,0,4.5-2,4.5-4.5s-2-4.5-4.5-4.5c-2.5,0-4.5,2-4.5,4.5c0,0.1,0,0.2,0,0.3l-3.3,1V1531l3.8-1.1c0.8,1.4,2.2,2.4,3.9,2.4
		c2.5,0,4.5-2,4.5-4.5c0-2.5-2-4.5-4.5-4.5c-2.5,0-4.5,2-4.5,4.5c0,0.1,0,0.2,0,0.3l-3.3,1v-2.8c0-1.6,0.5-3.1,1.3-4.4
		c0.3-0.5,0.7-1,1.1-1.4c0.4-0.5,0.9-0.9,1.5-1.2c1.3-0.9,2.9-1.4,4.6-1.4h6.1v1.3v0.9v0.9v53.4h-6.1c-3.6,0-6.6-2.2-7.8-5.3
		l3.2-0.9c0.8,1.4,2.2,2.4,3.9,2.4c2.5,0,4.5-2,4.5-4.5c0-2.5-2-4.5-4.5-4.5c-2.5,0-4.5,2-4.5,4.5c0,0.1,0,0.2,0,0.3l-3.2,0.9
		c-0.1-0.4-0.1-0.8-0.1-1.3L-1076.1,1556.1L-1076.1,1556.1L-1076.1,1556.1z M-1068.6,1552l-2.3,0.7c0.1-1.4,1.2-2.4,2.6-2.4
		c1.5,0,2.6,1.2,2.6,2.6s-1.2,2.6-2.6,2.6c-0.8,0-1.6-0.4-2.1-1.1l2.3-0.7L-1068.6,1552z M-1068.6,1539.1l-2.3,0.7
		c0.1-1.4,1.2-2.4,2.6-2.4c1.5,0,2.6,1.2,2.6,2.6c0,1.5-1.2,2.6-2.6,2.6c-0.8,0-1.6-0.4-2.1-1.1l2.3-0.7L-1068.6,1539.1z
		 M-1068.6,1526.9l-2.3,0.7c0.1-1.4,1.2-2.4,2.6-2.4c1.5,0,2.6,1.2,2.6,2.6s-1.2,2.6-2.6,2.6c-0.8,0-1.6-0.4-2.1-1.1l2.3-0.7
		L-1068.6,1526.9z M-1068.6,1565.1l-2.3,0.7c0.1-1.3,1.2-2.4,2.6-2.4c1.5,0,2.6,1.2,2.6,2.6c0,1.5-1.2,2.6-2.6,2.6
		c-0.8,0-1.6-0.4-2.1-1.1l2.3-0.7L-1068.6,1565.1z M-1079.6,1529.4c0-2,0.7-3.8,1.8-5.2c-0.1,0.7-0.2,1.3-0.2,2v3.3l-1.6,0.5
		C-1079.6,1530.1-1079.6,1529.4-1079.6,1529.4z M-1079.6,1532l1.6-0.5v10.3l-1.6,0.5C-1079.6,1542.4-1079.6,1532-1079.6,1532z
		 M-1079.6,1544.3l1.6-0.5v10.9l-1.6,0.5C-1079.6,1555.2-1079.6,1544.3-1079.6,1544.3z M-1079.6,1557.2l1.6-0.5v9.3
		c0,0.6,0.1,1.2,0.2,1.8l-1.8,0.5V1557.2z M-1031.4,1577.6h-39.7c-4.3,0-7.8-3.2-8.3-7.3l2.2-0.6c1.5,3.9,5.2,6.7,9.6,6.7h6.1h9.1
		h21c2.9,0,5.5-1.2,7.3-3.1C-1025.6,1575.8-1028.3,1577.6-1031.4,1577.6z"/>
</g>
</svg>
