<?xml version="1.0" encoding="utf-8"?>
<!-- Generator: Adobe Illustrator 17.1.0, SVG Export Plug-In . SVG Version: 6.00 Build 0)  -->
<!DOCTYPE svg PUBLIC "-//W3C//DTD SVG 1.1//EN" "http://www.w3.org/Graphics/SVG/1.1/DTD/svg11.dtd">
<svg version="1.1" id="Capa_1" xmlns="http://www.w3.org/2000/svg" xmlns:xlink="http://www.w3.org/1999/xlink" x="0px" y="0px"
	 viewBox="0 0 446.3 446.3" enable-background="new 0 0 446.3 446.3" xml:space="preserve">
<g>
	<g>
		<path fill="#FFC107" d="M381.9,113.2c-0.9-28.6-1.5-67.1-1.2-95.7c0-1.3-0.2-2.4-0.5-3.5c0.6-6.2-3.1-12.8-11.1-12.6
			C268.5,4.1,167.9,0.2,67.3,0c-8.4,0-12,7.3-11,13.8c-0.3,1.1-0.6,2.3-0.6,3.7c1.5,120.1,5.6,292.6,5.8,412.7c0,2.7,0.8,4.9,2,6.6
			c0.7,5.1,4.4,9.6,11,9.4c43.5-1.1,87-1.8,130.5-3.9c38.7-1.9,87,0.6,124-12c13.1-4.5,24.8-11.1,34.9-20.7
			c18.4-17.5,24.7-41,26.2-65.8c1.5-23.8-1.3-48.8-1.8-70.7C386.9,216.5,383.8,169.8,381.9,113.2z M318.2,327.4
			c-7.1,0-13.9,5.6-10.8,14.1c6.4,17.1,9.3,38.3-0.5,54.6c-11.8,19.8-33,19.2-53,21.8c-12.3,1.5-25.3,0.7-37.7,1.1
			c-9.6,0.3-131.6,3.2-131.6,3.7C84.3,307.1,80.5,139,78.9,23.4c92.9,0.4,185.8,3.6,278.7,1.6c-0.4,94.9,8.1,232.1,8.6,307.1
			c-14.4-4.5-29.3-6.5-44.7-5.4C320.3,326.8,319.2,327.1,318.2,327.4z M327.3,406.4c9.3-15.9,11.7-35.4,6.8-56.6
			c11.2,0.4,22.3,2.6,32.8,7.1c0,0.1,0.1,0.3,0.1,0.4C363.6,382.4,347.8,397.7,327.3,406.4z"/>
		<path fill="#FFC107" d="M171,241.8c-35.6,2.1-48.5-66.4-12.1-71.1c14.7-1.9,14.9-25.3,0-23.4C91.9,156,105.3,269,171,265.2
			C186,264.3,186.1,240.9,171,241.8z"/>
		<path fill="#FFC107" d="M227.5,185.8c-6.5-11.3-4.6-15.2,8.1-18.9c14.5-4.2,8.3-26.8-6.2-22.6c-27.6,8-35.5,28.4-22.1,53.3
			c5.5,10.1,12.7,19.2,18.3,29.3c6.6,12.1-3.2,11.9-15.6,13.2c-14.8,1.6-15,25,0,23.4c27.7-3,50.7-16.3,36.8-46.4
			C241.6,205.9,233.5,196.3,227.5,185.8z"/>
		<path fill="#FFC107" d="M289.9,185.8c-6.5-11.3-4.6-15.2,8.1-18.9c14.5-4.2,8.3-26.8-6.2-22.6c-27.6,8-35.5,28.4-22.1,53.3
			c5.5,10.1,12.7,19.2,18.3,29.3c6.6,12.1-3.2,11.9-15.6,13.2c-14.8,1.6-15,25,0,23.4c27.7-3,50.7-16.3,36.8-46.4
			C304,205.9,295.9,196.3,289.9,185.8z"/>
	</g>
</g>
</svg>
