<?xml version="1.0" encoding="utf-8"?>
<!-- Generator: Adobe Illustrator 17.1.0, SVG Export Plug-In . SVG Version: 6.00 Build 0)  -->
<!DOCTYPE svg PUBLIC "-//W3C//DTD SVG 1.1//EN" "http://www.w3.org/Graphics/SVG/1.1/DTD/svg11.dtd">
<svg version="1.1" id="Capa_1" xmlns="http://www.w3.org/2000/svg" xmlns:xlink="http://www.w3.org/1999/xlink" x="0px" y="0px"
	 viewBox="0 0 595.3 841.9" enable-background="new 0 0 595.3 841.9" xml:space="preserve">
<g>
	<g>
		<path fill="#FFC107" d="M249.1,220.8c-17.2,0-31.1,13.9-31.1,31.1c0,17.2,13.9,31.1,31.1,31.1c38,0,72,21.2,88.7,55.5
			c5.4,11,16.5,17.5,28,17.5c4.6,0,9.2-1,13.6-3.2c15.5-7.5,21.9-26.1,14.3-41.6C366.5,255.4,311.1,220.8,249.1,220.8z"/>
		<path fill="#FFC107" d="M583.9,648.3L480.2,544.5c30.7-43.2,48.9-95.8,48.9-152.7c0-145.9-118.7-264.6-264.6-264.6
			S0,245.9,0,391.8c0,145.9,118.7,264.5,264.5,264.5c60.9,0,117-20.9,161.7-55.7l102.6,102.6c7.6,7.6,17.6,11.4,27.5,11.4
			c10,0,19.9-3.8,27.5-11.4C599.1,688.1,599.1,663.4,583.9,648.3z M62.3,391.8c0-111.6,90.8-202.3,202.3-202.3
			s202.3,90.8,202.3,202.3c0,46.4-15.9,89.1-42.3,123.3c-8.7,11.3-18.5,21.7-29.4,30.9c-35.3,29.9-80.8,48.1-130.6,48.1
			C153,594.1,62.3,503.3,62.3,391.8z"/>
	</g>
</g>
</svg>
