<?xml version="1.0" encoding="utf-8"?>
<!-- Generator: Adobe Illustrator 17.1.0, SVG Export Plug-In . SVG Version: 6.00 Build 0)  -->
<!DOCTYPE svg PUBLIC "-//W3C//DTD SVG 1.1//EN" "http://www.w3.org/Graphics/SVG/1.1/DTD/svg11.dtd">
<svg version="1.1" id="Capa_1" xmlns="http://www.w3.org/2000/svg" xmlns:xlink="http://www.w3.org/1999/xlink" x="0px" y="0px"
	 viewBox="0 0 446.3 446.3" enable-background="new 0 0 446.3 446.3" xml:space="preserve">
<g>
	<g>
		<path fill="#FFC107" d="M381.9,113.2c-0.9-28.6-1.5-67.1-1.2-95.7c0-1.3-0.2-2.4-0.5-3.5c0.6-6.2-3.1-12.8-11.1-12.6
			C268.5,4.1,167.9,0.2,67.3,0c-8.4,0-12,7.3-11,13.8c-0.3,1.1-0.6,2.3-0.6,3.7c1.5,120.1,5.6,292.6,5.8,412.7c0,2.7,0.8,4.9,2,6.6
			c0.7,5.1,4.4,9.6,11,9.4c43.5-1.1,87-1.8,130.5-3.9c38.7-1.9,87,0.6,124-12c13.1-4.5,24.8-11.1,34.9-20.7
			c18.4-17.5,24.7-41,26.2-65.8c1.5-23.8-1.3-48.8-1.8-70.7C386.9,216.5,383.8,169.8,381.9,113.2z M318.2,327.4
			c-7.1,0-13.9,5.6-10.8,14.1c6.4,17.1,9.3,38.3-0.5,54.6c-11.8,19.8-33,19.2-53,21.8c-12.3,1.5-25.3,0.7-37.7,1.1
			c-9.6,0.3-131.6,3.2-131.6,3.7C84.3,307.1,80.5,139,78.9,23.4c92.9,0.4,185.8,3.6,278.7,1.6c-0.4,94.9,8.1,232.1,8.6,307.1
			c-14.4-4.5-29.3-6.5-44.7-5.4C320.3,326.8,319.2,327.1,318.2,327.4z M327.3,406.4c9.3-15.9,11.7-35.4,6.8-56.6
			c11.2,0.4,22.3,2.6,32.8,7.1c0,0.1,0.1,0.3,0.1,0.4C363.6,382.4,347.8,397.7,327.3,406.4z"/>
		<path fill="#FFC107" d="M139.9,166.7c-0.4,11.8-0.6,23.6-0.8,35.3c-4.8,0-9.6-0.2-14.3-0.6c-0.8-11.5-2-22.9-3.6-34.4
			c-2-14.3-23.6-8.2-21.7,6c3,22.2,4.4,44.5,3.8,67c-0.4,14.5,22.1,14.5,22.5,0c0.1-5.4,0.1-10.7,0-16c4.4,0.3,8.9,0.5,13.4,0.5
			c0.1,7.7,0.3,15.3,0.8,23c0.8,14.4,23.3,14.5,22.5,0c-1.5-26.9-0.8-53.8,0-80.8C162.9,152.2,140.4,152.2,139.9,166.7z"/>
		<path fill="#FFC107" d="M210.3,155.4c-11.1,0.7-22.2,0-33.3-0.8c-14.5-1-14.4,21.5,0,22.5c0.9,0.1,1.8,0.1,2.7,0.2
			c1.6,22,1.8,44,1.8,66c0,14.5,22.5,14.5,22.5,0c0-21.7-0.2-43.4-1.8-65.1c2.7,0,5.3-0.1,8-0.3C224.7,177,224.8,154.5,210.3,155.4z
			"/>
		<path fill="#FFC107" d="M285.1,154.3c-3.8-0.3-7.7,1-10.4,5.1c-4.2,6.4-8.2,13-12.1,19.7c-5.7-6.7-11.5-13.4-16.9-20.3
			c-3.8-4.8-12-3.9-15.9,0c-1.9,1.9-2.8,4-3.1,6.1c-0.2,0.8-0.2,1.7-0.2,2.7c0.8,24.4,0.9,48.9,1.7,73.3c0.4,14.5,22.9,14.5,22.5,0
			c-0.4-14.1-0.7-28.2-0.9-42.3c2,2.3,4,4.6,5.9,7c1.1,1.4,2.6,2.2,4.2,2.7c4.8,2.4,10.9,1.8,14.3-4.2c1.2-2.1,2.5-4.2,3.7-6.4
			c1,14.4,1.9,28.8,2.8,43.2c1,14.4,23.5,14.5,22.5,0c-1.7-25.3-3.4-50.5-5-75.8C297.7,157.3,291,153.8,285.1,154.3z"/>
		<path fill="#FFC107" d="M355.6,235.8c0-5.6-5.1-11.9-11.2-11.2c-3.7,0.4-7.5,0.7-11.3,0.9c-1.5-20.2-3.1-40.4-5.8-60.5
			c-1.9-14.2-24.4-14.3-22.5,0c3.2,24.1,5,48.2,6.7,72.5c0.4,5.4,3.8,8.8,7.8,10.1c1.5,0.8,3.2,1.3,5.1,1.1c6.6-0.8,13.3-0.9,20-1.7
			C350.5,246.4,355.6,242.5,355.6,235.8z"/>
	</g>
</g>
</svg>
