<?xml version="1.0" encoding="utf-8"?>
<!-- Generator: Adobe Illustrator 17.1.0, SVG Export Plug-In . SVG Version: 6.00 Build 0)  -->
<!DOCTYPE svg PUBLIC "-//W3C//DTD SVG 1.1//EN" "http://www.w3.org/Graphics/SVG/1.1/DTD/svg11.dtd">
<svg version="1.1" id="Capa_1" xmlns="http://www.w3.org/2000/svg" xmlns:xlink="http://www.w3.org/1999/xlink" x="0px" y="0px"
	 viewBox="0 0 446.3 446.3" enable-background="new 0 0 446.3 446.3" xml:space="preserve">
<g>
	<g>
		<path fill="#FFC107" d="M381.9,113.2c-0.9-28.6-1.5-67.1-1.2-95.7c0-1.3-0.2-2.4-0.5-3.5c0.6-6.2-3.1-12.8-11.1-12.6
			C268.5,4.1,167.9,0.2,67.3,0c-8.4,0-12,7.3-11,13.8c-0.3,1.1-0.6,2.3-0.6,3.7c1.5,120.1,5.6,292.6,5.8,412.7c0,2.7,0.8,4.9,2,6.6
			c0.7,5.1,4.4,9.6,11,9.4c43.5-1.1,87-1.8,130.5-3.9c38.7-1.9,87,0.6,124-12c13.1-4.5,24.8-11.1,34.9-20.7
			c18.4-17.5,24.6-41,26.2-65.8c1.5-23.8-1.3-48.8-1.8-70.7C386.9,216.5,383.8,169.8,381.9,113.2z M318.2,327.4
			c-7.1,0-13.9,5.6-10.8,14.1c6.4,17.1,9.3,38.3-0.5,54.6c-11.8,19.8-33,19.2-53,21.8c-12.3,1.5-25.3,0.7-37.7,1.1
			c-9.6,0.3-131.6,3.2-131.6,3.7C84.3,307.1,80.5,139,78.9,23.4c92.9,0.4,185.8,3.6,278.7,1.6c-0.4,94.9,8.1,232.1,8.6,307.1
			c-14.4-4.5-29.3-6.5-44.7-5.4C320.3,326.8,319.2,327.1,318.2,327.4z M327.3,406.4c9.3-15.9,11.7-35.4,6.8-56.6
			c11.2,0.4,22.3,2.6,32.8,7.1c0.1,0.1,0.1,0.3,0.1,0.4C363.6,382.4,347.8,397.7,327.3,406.4z"/>
		<path fill="#FFC107" d="M214.1,138.6c-24,0.9-47.9,1.7-71.9,1.7c-15.1,0-15.1,23.4,0,23.4c10.1,0,20.3-0.2,30.4-0.5
			c4.3,17.2,7.2,34.7,6.8,52.5c-0.1,6.5-0.7,15.2-5.1,20.5c-5,6-16.8-0.7-21.8-3.3c-13.4-6.8-25.3,13.4-11.8,20.2
			c24.3,12.4,50.4,11.7,59.5-17.7c6.9-22.5,2-49.8-3.6-72.8c5.9-0.2,11.7-0.4,17.6-0.6C229.2,161.5,229.2,138.1,214.1,138.6z"/>
		<path fill="#FFC107" d="M265.1,167.2c-2.3-4.7-1.2-8.2-2.8-7.1c6.8-4.8,20.7-1.6,28.1-0.7c15,1.8,14.8-21.6,0-23.4
			c-15.6-1.9-39.5-4-48.3,12.7c-7.1,13.4,1.7,29.4,8.6,40.9c8.5,14.2,19.1,27.2,26.3,42.2c0.6,1.2,1.4,4.3,1.7,5.4
			c-7.3,3.8-22.9-0.6-30.2-2c-14.7-2.7-21,19.8-6.2,22.6c15.9,2.9,42.1,9.1,54.6-5.3c10.8-12.3,2.7-29-4.3-41
			C283.9,196.5,272.6,182.9,265.1,167.2z"/>
	</g>
</g>
</svg>
