<?xml version="1.0" encoding="utf-8"?>
<!-- Generator: Adobe Illustrator 17.1.0, SVG Export Plug-In . SVG Version: 6.00 Build 0)  -->
<!DOCTYPE svg PUBLIC "-//W3C//DTD SVG 1.1//EN" "http://www.w3.org/Graphics/SVG/1.1/DTD/svg11.dtd">
<svg version="1.1" id="Capa_1" xmlns="http://www.w3.org/2000/svg" xmlns:xlink="http://www.w3.org/1999/xlink" x="0px" y="0px"
	 viewBox="0 0 595.3 841.9" enable-background="new 0 0 595.3 841.9" xml:space="preserve">
<g>
	<path fill="#FFC107" d="M297.7,718.6C148.9,718.6,28,597.5,28,448.8c0-148.7,121-269.7,269.7-269.7c9.9,0,19.9,0.6,29.8,1.7v-43.6
		c0-5.6,3.5-10.7,8.6-12.9c5.3-2.1,11.2-0.9,15.2,3.1l95.6,95.8c5.4,5.4,5.4,14.1,0,19.6l-95.5,96c-4.1,4-10,5.2-15.3,3
		c-5.1-2.2-8.6-7.2-8.6-12.8v-48.4c-9.9-1.8-19.8-2.6-29.8-2.6c-94.2,0-170.9,76.6-170.9,170.8c0,94.2,76.7,170.9,170.9,170.9
		S468.5,543,468.5,448.8c0-7.6,6.2-13.9,13.9-13.9h71c7.7,0,13.9,6.3,13.9,13.9C567.3,597.5,446.3,718.6,297.7,718.6z"/>
</g>
</svg>
