<?xml version="1.0" encoding="utf-8"?>
<!-- Generator: Adobe Illustrator 17.1.0, SVG Export Plug-In . SVG Version: 6.00 Build 0)  -->
<!DOCTYPE svg PUBLIC "-//W3C//DTD SVG 1.1//EN" "http://www.w3.org/Graphics/SVG/1.1/DTD/svg11.dtd">
<svg version="1.1" id="Capa_1" xmlns="http://www.w3.org/2000/svg" xmlns:xlink="http://www.w3.org/1999/xlink" x="0px" y="0px"
	 viewBox="0 0 393.7 393.7" enable-background="new 0 0 393.7 393.7" xml:space="preserve">
<g>
	<g>
		<path d="M7.5,192.6L7.5,192.6L7.5,192.6z"/>
		<path fill="#FFC107" d="M391.2,203.6c-15.3-12.2-31.8-22.6-49-33c-4.9-3.1-11,0.6-11,6.1c0,7.3,0,14.1,0.6,21.4
			c-36.7,3.7-72.2,12.2-108.9,17.1c-5.5,0.6-14.1,1.2-23.9,1.8c30.6-9.2,49-25.1,37.9-50.2c-22-51.4-90-23.3-104,18.4
			c-3.7,11.6-3.1,20.2,1.2,26.9c-10.4,0.6-20.2,0.6-28.8,0.6s-93-1.8-97.9-2.4c-6.1-0.6-9.2,7.3-2.4,9.8c1.8,0.6,137,7.1,148.1,5.5
			c48.3,17.1,160.3-10.4,181.2-12.9c1.2,6.1,3.1,11.6,6.1,17.1c1.2,1.8,3.1,2.4,4.9,2.4c0.6,1.8,1.8,3.7,4.3,4.3
			c6.7,1.8,12.9-2.4,18.4-5.5c8.6-4.9,16.5-10.4,23.3-17.1C394.2,211.6,394.9,206.1,391.2,203.6z M159.2,210.4
			c-9.8-4.9-14.7-13.5-8-26.9c8.6-19,33.7-33.7,53.9-28.2c18.4,4.9,28.2,27.5,11,38.6C200.2,204.3,180,208.5,159.2,210.4z"/>
	</g>
</g>
</svg>
