<?xml version="1.0" encoding="utf-8"?>
<!-- Generator: Adobe Illustrator 17.1.0, SVG Export Plug-In . SVG Version: 6.00 Build 0)  -->
<!DOCTYPE svg PUBLIC "-//W3C//DTD SVG 1.1//EN" "http://www.w3.org/Graphics/SVG/1.1/DTD/svg11.dtd">
<svg version="1.1" id="Capa_1" xmlns="http://www.w3.org/2000/svg" xmlns:xlink="http://www.w3.org/1999/xlink" x="0px" y="0px"
	 viewBox="0 0 595.3 841.9" enable-background="new 0 0 595.3 841.9" xml:space="preserve">
<path fill="#03A9F4" d="M574.8,511.6c-35.2-15.9-60.4-21-60.4-21c-17.8-2.6-35.6-2.7-53.2-1.1c20.3-28.7,35.5-60.5,42.2-95.9
	c14.7-78.1-48.7-131.1-113-158.8c-35.3-15.2-81.8,56.5-41.1,74c42.4,18.2,88.4,49.6,83,99.7c-1.9,17.2-13,36.7-24.6,52.3
	c-19.6,26.3-44.2,47.9-70,67.9c-13.2,10.3-23.7,29-20.7,46.2c3.8,21.4,25.5,22,41.6,14.7c42.3-19.2,88-29.8,134.4-22
	c44.3,7.4,40.7,17.9,40.7,17.9S615.8,527.7,574.8,511.6z"/>
<path fill="#03A9F4" d="M240.9,362c-18.7-17.6-43.6-24.4-69.4-25.4c10.9-21.2,15.4-44.2,7-67.6c-18.1-49.8-94.1-37.9-132.6-29.7
	c-38,8-58.6,85-6.5,74.1c17.2-3.6,33.9-5.5,51.4-4.4c5.5,0.4,10.8,2.4,15.8,4.4c0.6,0.3,3.4,2.7,4,3.7c0.1,0.2,0.2,0.3,0.2,0.5
	c-0.1,0.6-0.1,1-0.2,1.5c0,0,0,0,0,0c0-0.4,0.1-0.9,0.2-1.4c-0.2,0.7-0.3,1.3-0.4,1.8c-0.4,0.5-1,1.5-2,3.3
	c-5.2,9.6-21.1,23.9-33.3,33.8c-13.1,10.6-23.8,28.8-20.6,46.2c2.8,15.8,17.8,22.1,32.3,18.3c20.7-5.4,40.9-8.8,62.3-7.4
	c11.1,0.6,25.5,5.9,32.5,11.1c2,1.5,3.9,3.2,5.7,5c0.9,0.8,1.5,1.4,2,1.8c0,0.1,0.2,0.5,0.8,1.3c1.9,2.6,3.4,5.4,4.8,8.3
	c0.6,1.1,1,1.9,1.3,2.4c0.1,0.2,0.1,0.5,0.2,0.9c1.3,4.3,2,8.8,2.5,13.4c-0.3-1.9-0.1,5.5-0.2,7.1c-0.2,2.8-0.6,5.6-1,8.4
	c0.8-5.9-2.9,9.5-4,12.6c-0.1,0.2-0.1,0.3-0.1,0.4c-0.3,0.6-0.6,1.3-1.1,2.2c-1.5,3-3.3,6-5.1,8.9c0,0,0,0-0.1,0.1
	c-2.1,2.8-4.4,5.4-6.7,8.1c-0.5,0.4-1.1,0.9-2,1.7c-0.8,0.8-3.2,2.5-4.9,3.7c-4.1,2.1-10.4,4.9-10.4,5.2c-2.6,0.8-5.2,1.4-7.8,2.1
	c-0.4,0.1-0.6,0.1-0.9,0.2c-1.4,0.1-2.7,0.3-4,0.3c-15.5,0.8-27-3-44.1-12.1c-33.6-17.6-80.5,53.3-41.1,74
	c85.2,44.8,180.1-24.1,201-109.7C275.5,432.2,271.2,390.5,240.9,362z M111,319.1C111,319,111,319,111,319.1
	c-0.1-0.3-0.1-0.7-0.1-1.3C111.4,319.1,111.2,319.7,111,319.1z"/>
<path fill="#03A9F4" d="M284,581.8c-2.2,7-5.4,12-12,12h-15c0,0-8-4.8-12-12s0-17,0-17c0-6.6,6.2-9.8,12-12s15,0,15,0
	c6.6,0,12,5.4,12,12C284,564.9,287.8,571.4,284,581.8z"/>
</svg>
