<?xml version="1.0" encoding="utf-8"?>
<!-- Generator: Adobe Illustrator 17.1.0, SVG Export Plug-In . SVG Version: 6.00 Build 0)  -->
<!DOCTYPE svg PUBLIC "-//W3C//DTD SVG 1.1//EN" "http://www.w3.org/Graphics/SVG/1.1/DTD/svg11.dtd">
<svg version="1.1" id="Capa_1" xmlns="http://www.w3.org/2000/svg" xmlns:xlink="http://www.w3.org/1999/xlink" x="0px" y="0px"
	 viewBox="0 0 595.3 841.9" enable-background="new 0 0 595.3 841.9" xml:space="preserve">
<path fill="#03A9F4" stroke="#03A9F4" stroke-width="60" stroke-miterlimit="10" d="M431.7,433.1c-40.8,7.6-81.5,16.3-122.7,21.9
	c2.4-3.9,4.9-7.9,7.3-11.8c13.5-21.4,27.7-42.5,41.5-63.7c7.1-10.9,14.1-21.8,20.9-32.8c3.4-5.5,6.9-11,10.2-16.6
	c3.1-5.1,5.6-10.1,9.5-14.7c4.2-4.8-2.8-12-7.1-7.1c-7.8,9-13,19.9-19.3,30c-6.9,11-13.8,22-20.9,32.9c-13.8,21.3-28,42.4-41.6,63.8
	c-4.5,7.1-9,14.3-13.3,21.6c-17.9,2.1-35.9,3.6-54.1,4c-13.5,0.3-26.9-0.1-40.4-1c-8.7-0.5-18.2-1.3-26-5.6
	c-8.2-4.5-9.5-13.4-8.3-22c2-14,7.3-27.4,13.4-40.1c6.8-14.1,14.9-27.4,22.9-40.8c8.3-14.1,15.9-28.5,24.1-42.7
	c17.1-29.5,35.8-58.2,50.3-89.1c2.7-5.8-5.9-10.9-8.6-5c-13.2,28.1-29.8,54.4-45.6,81.1c-7.6,12.9-14.6,26.1-22,39.1
	c-7.1,12.4-14.7,24.6-21.6,37.1c-6.9,12.4-13.1,25.2-17.7,38.6c-3.8,11.2-7.1,23.8-4.6,35.6c4,19.3,26.4,22.6,42.6,23.8
	c30,2.2,59.7,0.9,89.4-2.3c-6.2,10.8-12,21.7-17.3,32.9c-11.1,23.3-18.8,48-30.1,71.2c-2.8,5.8,5.8,10.8,8.6,5
	c10.7-22.1,18.4-45.4,28.5-67.7c6.6-14.7,14.4-28.9,22.6-42.8c44.2-5.5,88.1-14.9,131.9-23.1C440.7,441.6,438,432,431.7,433.1z"/>
</svg>
