<?xml version="1.0" encoding="utf-8"?>
<!-- Generator: Adobe Illustrator 17.1.0, SVG Export Plug-In . SVG Version: 6.00 Build 0)  -->
<!DOCTYPE svg PUBLIC "-//W3C//DTD SVG 1.1//EN" "http://www.w3.org/Graphics/SVG/1.1/DTD/svg11.dtd">
<svg version="1.1" id="Capa_1" xmlns="http://www.w3.org/2000/svg" xmlns:xlink="http://www.w3.org/1999/xlink" x="0px" y="0px"
	 viewBox="0 0 234.3 234.3" enable-background="new 0 0 234.3 234.3" xml:space="preserve">
<g>
	<path fill="#03A9F4" d="M79.8,131.2c-0.3,0.9-0.8,1.7-1.4,2.4c-0.6,0.7-1.2,1.2-2.1,1.6c-0.8,0.4-1.8,0.6-3,0.6
		c-1.6,0-3-0.4-4.1-1.1c-1.1-0.7-1.9-1.6-2.6-2.8c-0.6-1.2-1.1-2.5-1.4-3.9c-0.3-1.5-0.4-2.9-0.4-4.4c0-1.5,0.1-3,0.4-4.4
		c0.3-1.5,0.8-2.8,1.4-3.9c0.6-1.2,1.5-2.1,2.6-2.8c1.1-0.7,2.4-1.1,4.1-1.1c1.4,0,2.6,0.3,3.5,0.8c0.9,0.5,1.6,1.2,2.2,1.9
		c0.5,0.7,0.9,1.4,1.1,2.2c0.2,0.7,0.4,1.3,0.4,1.7h13.4c-0.6-5.6-2.5-9.9-5.9-13c-3.3-3.1-8.1-4.6-14.3-4.7c-3.5,0-6.6,0.6-9.3,1.7
		c-2.8,1.1-5.1,2.7-7.1,4.7c-2,2-3.5,4.5-4.6,7.4c-1.1,2.9-1.6,6.1-1.6,9.5c0,3.3,0.5,6.4,1.5,9.2c1,2.9,2.5,5.3,4.4,7.4
		s4.3,3.7,7.1,4.9c2.8,1.2,6,1.8,9.6,1.8c3.2,0,6.1-0.5,8.7-1.6c2.5-1.1,4.7-2.5,6.4-4.3c1.7-1.8,3-3.8,3.9-6
		c0.9-2.2,1.3-4.4,1.3-6.7H80.6C80.4,129.3,80.2,130.2,79.8,131.2z"/>
	<path fill="#03A9F4" d="M133.3,122.6c-1.2-1-2.5-1.8-4-2.4c-1.5-0.6-3-1.2-4.6-1.6c-1.6-0.4-3.1-0.8-4.6-1.2
		c-1.5-0.4-2.9-0.7-4.1-1.1c-1.2-0.4-2.2-0.9-3-1.4c-0.8-0.5-1.2-1.2-1.2-2c0-0.6,0.2-1.1,0.5-1.5c0.3-0.4,0.7-0.7,1.2-0.9
		c0.5-0.2,1-0.4,1.6-0.4c0.6-0.1,1.1-0.1,1.6-0.1c0.7,0,1.4,0.1,2.1,0.2c0.7,0.2,1.4,0.5,1.9,0.9c0.6,0.4,1,0.9,1.3,1.4
		c0.3,0.6,0.4,1.3,0.3,2.1h13c-0.1-2.7-0.6-5-1.7-6.8c-1-1.8-2.4-3.4-4.1-4.5c-1.7-1.1-3.7-2-5.9-2.5c-2.2-0.5-4.5-0.8-6.9-0.8
		c-2.3,0-4.5,0.3-6.7,0.8s-4.1,1.4-5.7,2.7c-1.7,1.2-3,2.7-4,4.6c-1,1.8-1.5,4.1-1.5,6.6c0,2.2,0.5,4.1,1.4,5.5
		c0.9,1.4,2.1,2.6,3.5,3.6s3.1,1.7,4.9,2.2c1.8,0.6,3.6,1.1,5.3,1.6c1.9,0.5,3.5,1,4.7,1.4c1.2,0.4,2.2,0.8,2.9,1.1
		c0.7,0.3,1.2,0.7,1.5,1.1c0.3,0.4,0.4,0.9,0.4,1.5c0,0.8-0.2,1.5-0.6,2c-0.4,0.5-0.9,0.9-1.4,1.2c-0.6,0.3-1.2,0.5-1.9,0.6
		c-0.7,0.1-1.3,0.1-1.8,0.1c-1.3,0-2.6-0.2-3.9-0.6c-1.3-0.4-2.2-1.3-2.7-2.6c-0.3-0.9-0.5-1.8-0.5-2.9H97.1c0,2.4,0.4,4.4,1.1,6.1
		c0.7,1.7,1.7,3.2,2.9,4.4c1.2,1.2,2.5,2.2,3.9,2.9c1.5,0.7,2.9,1.3,4.4,1.7c1.5,0.4,2.8,0.7,4.1,0.8c1.3,0.1,2.4,0.2,3.2,0.2
		c2.5,0,5-0.3,7.4-0.8c2.5-0.5,4.7-1.4,6.6-2.6c2-1.2,3.5-2.7,4.7-4.7c1.2-1.9,1.8-4.4,1.8-7.3c0-2-0.4-3.8-1.1-5.2
		C135.5,124.8,134.5,123.5,133.3,122.6z"/>
	<path fill="#03A9F4" d="M158.4,100.1c-2.3,0-4.5,0.3-6.7,0.8c-2.2,0.6-4.1,1.4-5.7,2.7c-1.7,1.2-3,2.7-4,4.6
		c-1,1.8-1.5,4.1-1.5,6.6c0,2.2,0.5,4.1,1.4,5.5c0.9,1.4,2.1,2.6,3.5,3.6c1.4,0.9,3.1,1.7,4.9,2.2c1.8,0.6,3.6,1.1,5.3,1.6
		c1.9,0.5,3.5,1,4.7,1.4s2.2,0.8,2.9,1.1c0.7,0.3,1.2,0.7,1.5,1.1c0.3,0.4,0.4,0.9,0.4,1.5c0,0.8-0.2,1.5-0.6,2
		c-0.4,0.5-0.9,0.9-1.4,1.2c-0.6,0.3-1.2,0.5-1.9,0.6c-0.7,0.1-1.3,0.1-1.8,0.1c-1.3,0-2.6-0.2-3.9-0.6c-1.3-0.4-2.2-1.3-2.7-2.6
		c-0.3-0.9-0.5-1.8-0.5-2.9h-13.7c0,2.4,0.4,4.4,1.1,6.1c0.7,1.7,1.7,3.2,2.9,4.4s2.5,2.2,3.9,2.9c1.5,0.7,2.9,1.3,4.4,1.7
		c1.5,0.4,2.8,0.7,4.1,0.8c1.3,0.1,2.3,0.2,3.2,0.2c2.5,0,5-0.3,7.4-0.8c2.5-0.5,4.7-1.4,6.6-2.6c2-1.2,3.5-2.8,4.7-4.7
		c1.2-1.9,1.8-4.4,1.8-7.3c0-2-0.4-3.8-1.1-5.2c-0.7-1.4-1.6-2.6-2.8-3.6c-1.2-1-2.5-1.8-4-2.4c-1.5-0.6-3-1.2-4.6-1.6
		c-1.6-0.4-3.1-0.8-4.7-1.2c-1.5-0.4-2.9-0.7-4.1-1.1c-1.2-0.4-2.2-0.9-3-1.4c-0.8-0.5-1.2-1.2-1.2-2c0-0.6,0.2-1.1,0.5-1.5
		c0.3-0.4,0.7-0.7,1.2-0.9c0.5-0.2,1-0.4,1.6-0.4s1.1-0.1,1.6-0.1c0.7,0,1.4,0.1,2.1,0.2c0.7,0.2,1.4,0.5,1.9,0.9
		c0.6,0.4,1,0.9,1.3,1.4c0.3,0.6,0.4,1.3,0.3,2.1h13c-0.1-2.7-0.6-5-1.7-6.8c-1-1.8-2.4-3.4-4.1-4.5c-1.7-1.1-3.7-2-5.9-2.5
		C163.1,100.3,160.8,100.1,158.4,100.1z"/>
</g>
</svg>
