<?xml version="1.0" encoding="utf-8"?>
<!-- Generator: Adobe Illustrator 17.1.0, SVG Export Plug-In . SVG Version: 6.00 Build 0)  -->
<!DOCTYPE svg PUBLIC "-//W3C//DTD SVG 1.1//EN" "http://www.w3.org/Graphics/SVG/1.1/DTD/svg11.dtd">
<svg version="1.1" id="Capa_1" xmlns="http://www.w3.org/2000/svg" xmlns:xlink="http://www.w3.org/1999/xlink" x="0px" y="0px"
	 viewBox="0 0 268.8 268.8" enable-background="new 0 0 268.8 268.8" xml:space="preserve">
<g>
	<path fill="#212121" d="M223.3,167.5c-4.9-4.9-12.8-4.9-17.7,0l-58.7,58.7V12.5c0-6.9-5.6-12.5-12.5-12.5
		c-6.9,0-12.5,5.6-12.5,12.5v213.7l-58.7-58.7c-4.9-4.9-12.8-4.9-17.7,0c-4.9,4.9-4.9,12.8,0,17.7l80,80c2.4,2.4,5.6,3.7,8.8,3.7
		s6.4-1.2,8.8-3.7l80-80C228.1,180.3,228.1,172.4,223.3,167.5z"/>
</g>
</svg>
