<?xml version="1.0" encoding="utf-8"?>
<!-- Generator: Adobe Illustrator 17.1.0, SVG Export Plug-In . SVG Version: 6.00 Build 0)  -->
<!DOCTYPE svg PUBLIC "-//W3C//DTD SVG 1.1//EN" "http://www.w3.org/Graphics/SVG/1.1/DTD/svg11.dtd">
<svg version="1.1" id="Capa_1" xmlns="http://www.w3.org/2000/svg" xmlns:xlink="http://www.w3.org/1999/xlink" x="0px" y="0px"
	 viewBox="0 0 37.2 37.2" enable-background="new 0 0 37.2 37.2" xml:space="preserve">
<g>
	<path fill="#03A9F4" d="M20.8,29.9l-1.4-3.7H7.5L6.1,30c-0.5,1.5-1,2.5-1.4,3c-0.4,0.5-1,0.8-1.9,0.8c-0.7,0-1.4-0.3-2-0.8
		C0.3,32.4,0,31.8,0,31.1c0-0.4,0.1-0.8,0.2-1.2c0.1-0.4,0.4-1,0.7-1.8L8.3,9c0.2-0.5,0.5-1.2,0.8-2c0.3-0.8,0.6-1.4,1-1.9
		c0.3-0.5,0.8-0.9,1.3-1.2c0.6-0.3,1.2-0.5,2-0.5c0.8,0,1.5,0.2,2.1,0.5c0.6,0.3,1,0.7,1.3,1.2c0.3,0.5,0.6,1,0.9,1.6
		s0.5,1.3,0.9,2.3l7.6,18.9c0.6,1.4,0.9,2.5,0.9,3.1c0,0.7-0.3,1.3-0.9,1.9c-0.6,0.6-1.2,0.9-2,0.9c-0.5,0-0.9-0.1-1.2-0.2
		c-0.3-0.2-0.6-0.4-0.8-0.7c-0.2-0.3-0.5-0.7-0.7-1.3C21.2,30.9,21,30.4,20.8,29.9z M9.1,21.8h8.7L13.4,9.7L9.1,21.8z M36.5,29.3
		l-5.9-14.3c-0.3-0.7-0.5-1.3-0.7-1.7c-0.2-0.4-0.4-0.8-0.7-1.2c-0.3-0.4-0.6-0.7-1-0.9c-0.4-0.2-0.9-0.4-1.6-0.4
		c-0.6,0-1.1,0.1-1.6,0.4c-0.4,0.2-0.8,0.6-1,0.9c-0.3,0.4-0.5,0.9-0.7,1.5c-0.1,0.4-0.3,0.7-0.4,1l2.1,5.3l1.5-4.3l3.4,9.2l-2.9,0
		l1.3,3.2c0,0.1,0,0.1,0.1,0.2l2.8,0l1.1,2.8c0.1,0.3,0.3,0.7,0.5,1.2c0.2,0.4,0.4,0.8,0.6,1c0.2,0.2,0.4,0.4,0.6,0.5
		c0.3,0.1,0.6,0.2,0.9,0.2c0.6,0,1.1-0.2,1.6-0.6c0.4-0.4,0.6-0.9,0.6-1.4C37.2,31.1,37,30.4,36.5,29.3z"/>
</g>
</svg>
