<?xml version="1.0" encoding="utf-8"?>
<!-- Generator: Adobe Illustrator 17.1.0, SVG Export Plug-In . SVG Version: 6.00 Build 0)  -->
<!DOCTYPE svg PUBLIC "-//W3C//DTD SVG 1.1//EN" "http://www.w3.org/Graphics/SVG/1.1/DTD/svg11.dtd">
<svg version="1.1" id="Capa_1" xmlns="http://www.w3.org/2000/svg" xmlns:xlink="http://www.w3.org/1999/xlink" x="0px" y="0px"
	 viewBox="0 0 595.3 841.9" enable-background="new 0 0 595.3 841.9" xml:space="preserve">
<g>
	<path fill="#F44336" d="M592.5,178.4c-0.3-0.9-0.6-2.2-1.3-3.1c-30.7-44.8-107.4-42.6-155.2-42.9c-4.7,0-7.2,5-5.9,8.8
		c-4.4,1.3-8.1,2.8-11.6,5c-49.1,34.1-72.6,105.5-95.8,157.4c-21.9,50.1-47.3,98.3-68.5,148.7c-9.1,21.3-33.8,64.5-37.6,97
		C174,471,134.3,391.8,96.1,311.1c-1.9-4.4-6.6-4.7-10.3-3.1c-9.4-5.6-21.6-1.3-31.6,1.3c-13.8,3.4-27.9,7.5-40.7,13.5
		c-2.2,0.9-3.1,2.5-4.1,4.1c-4.7-1.9-11,1.9-9.4,7.8c34.4,126.4,129.6,232.5,178.4,354c1.9,4.4,5.3,6.6,9.4,6.9
		c0.9,1.9,2.5,3.4,5,3.8c17.8,4.1,36,6.3,54.5,7.5c16,1.3,34.7,4.7,50.4-0.3c5.3-1.6,7.5-6.6,6.9-11.3c1.3-0.3,2.5-0.9,4.1-2.5
		c1.6-1.9,0-4.1-2.2-3.8c12.8-1.9,24.7-58.5,28.2-68.2c11.6-31.3,24.1-62.3,36.9-93.3c7.2-17.8,15.6-35.7,24.4-53.2
		c3.4-6.3,6.6-12.5,9.7-18.8c50.1-94.2,118.9-182.8,186.8-261.3C596.5,189.3,595.6,182.8,592.5,178.4z M76.1,331.7
		c-0.6-1.3-1.3-2.8-2.2-4.1c3.4-0.9,6.9-1.9,9.7-3.4c0.6,1.6,1.3,3.1,1.9,4.7C82.3,328.3,78.9,329.6,76.1,331.7z M128.3,436.6
		c-0.6-0.9-1.3-1.9-1.9-2.8l-0.3-0.3c-1.6-6.6-3.4-13.1-5.3-19.4c0,0,0,0,0-0.3c3.1,6.9,6.6,13.8,9.7,20.7
		C129.9,435.3,129.3,436,128.3,436.6z M267.6,686c1.6-2.2,2.2-5.3,1.3-8.5c2.2-1.6,4.1-3.1,5.9-4.7c-0.3,1.6-0.9,2.8-1.3,4.4
		c-0.9,3.4,0,6.3,1.9,8.5C272.9,685.7,270.4,686,267.6,686z M334.6,554.3c-2.2,5.6-4.7,11.6-7.5,17.8c0.3-1.3,0.3-2.5,0.3-4.1
		c3.4-8.8,6.9-17.5,10.3-26c0.6-0.6,1.6-0.9,2.2-1.6C338.3,544.9,336.4,549.6,334.6,554.3z M397.2,424.1
		c-11,19.7-21.6,39.4-31.6,59.8c-3.1,4.4-6.3,8.8-9.7,12.8c13.5-26,28.2-51,42.9-76.4C398.1,421.6,397.8,422.8,397.2,424.1z
		 M473.8,191.5c0.6-1.3,1.6-2.8,2.5-4.1c3.4-4.4,6.9-8.8,10-13.8c0.3,0,0.6,0,0.9,0c2.2,0.6,4.1,1.3,6.3,1.9
		c-2.2,0.3-4.4,0.9-6.3,2.8C482.9,182.8,478.2,187.2,473.8,191.5z"/>
</g>
</svg>
