<?xml version="1.0" encoding="utf-8"?>
<!-- Generator: Adobe Illustrator 17.1.0, SVG Export Plug-In . SVG Version: 6.00 Build 0)  -->
<!DOCTYPE svg PUBLIC "-//W3C//DTD SVG 1.1//EN" "http://www.w3.org/Graphics/SVG/1.1/DTD/svg11.dtd">
<svg version="1.1" id="Capa_1" xmlns="http://www.w3.org/2000/svg" xmlns:xlink="http://www.w3.org/1999/xlink" x="0px" y="0px"
	 viewBox="0 0 595.3 841.9" enable-background="new 0 0 595.3 841.9" xml:space="preserve">
<g>
	<path fill="#03A9F4" d="M297.6,235c20.5,0,37.2-16.7,37.2-37.2c0-20.5-16.7-37.2-37.2-37.2c-20.5,0-37.2,16.7-37.2,37.2
		C260.4,218.3,277.1,235,297.6,235z"/>
	<path fill="#03A9F4" d="M159.1,531.8h277.1c5.2,0,9.4-4.2,9.4-9.4v-51.2c0-5.2-4.2-9.4-9.4-9.4h-93.6c0-0.4,0.1-0.9,0.1-1.3V358.8
		c0-0.3,0-0.6,0-0.9v-88l33.8-35.4c5.3-5.5,8.9-14.7,8.9-22.3v-73.4c0-8.5-6.9-15.5-15.5-15.5c-8.5,0-15.5,6.9-15.5,15.5v73.1
		c-0.1,0.4-0.4,1.1-0.6,1.5L324.6,244h-53.8l-29.3-30.7c-0.2-0.3-0.5-1.1-0.6-1.5v-73.1c0-8.5-6.9-15.5-15.5-15.5
		c-8.5,0-15.5,6.9-15.5,15.5v73.4c0,7.6,3.7,16.8,8.9,22.3l33.8,35.4v88c0,0.7,0.1,1.3,0.2,2v100.6c0,0.4,0,0.9,0.1,1.3h-93.8
		c-5.2,0-9.4,4.2-9.4,9.4v51.2C149.7,527.6,153.9,531.8,159.1,531.8z M290.4,460.5v-93.8H305v93.8c0,0.4,0,0.9,0.1,1.3h-14.7
		C290.4,461.4,290.4,460.9,290.4,460.5z"/>
	<path fill="#03A9F4" d="M428.1,586.6c0,18.4,15,33.4,33.4,33.4c18.4,0,33.4-15,33.4-33.4c0-18.4-15-33.4-33.4-33.4
		C443.1,553.2,428.1,568.1,428.1,586.6z"/>
	<path fill="#03A9F4" d="M531.6,692.3L500,631.8c-2.4-4.7-7.2-7.6-12.5-7.6c-0.2,0-50,0-50.2,0c-4.9,0.3-9.3,3.1-11.6,7.5
		l-31.6,60.5c-3.6,6.9-0.9,15.4,6,19c1.7,0.9,3.6,1.4,5.5,1.6c0.3,0,0.7,0,1,0c5.3,0,10-2.9,12.5-7.6l9.1-17.5v23.8
		c0,3.8,3.1,6.9,6.9,6.9h54.6c3.8,0,6.9-3.1,6.9-6.9v-25.4l10,19.1c2.4,4.7,7.2,7.6,12.5,7.6c0.3,0,0.7,0,1,0
		c1.9-0.1,3.8-0.7,5.5-1.6C532.5,707.7,535.2,699.2,531.6,692.3z"/>
	<path fill="#03A9F4" d="M262.9,586.6c0,18.4,15,33.4,33.4,33.4c18.4,0,33.4-15,33.4-33.4c0-18.4-15-33.4-33.4-33.4
		C277.9,553.2,262.9,568.1,262.9,586.6z"/>
	<path fill="#03A9F4" d="M334.8,631.8c-2.4-4.7-7.2-7.6-12.5-7.6c-0.2,0-50,0-50.2,0c-4.9,0.3-9.3,3.1-11.6,7.5L229,692.3
		c-3.6,6.9-0.9,15.4,6,19c1.7,0.9,3.6,1.4,5.5,1.6c0.3,0,0.7,0,1,0c5.3,0,10-2.9,12.5-7.6l9.1-17.5v23.8c0,3.8,3.1,6.9,6.9,6.9h54.6
		c3.8,0,6.9-3.1,6.9-6.9v-25.4l10,19.1c2.4,4.7,7.2,7.6,12.5,7.6c0.3,0,0.7,0,1,0c1.9-0.1,3.8-0.7,5.5-1.6c6.9-3.6,9.5-12.1,6-19
		L334.8,631.8z"/>
	<path fill="#03A9F4" d="M131,620c18.4,0,33.4-15,33.4-33.4c0-18.4-15-33.4-33.4-33.4c-18.4,0-33.4,15-33.4,33.4
		C97.6,605,112.6,620,131,620z"/>
	<path fill="#03A9F4" d="M169.5,631.8c-2.4-4.7-7.2-7.6-12.5-7.6c-0.2,0-50.3,0-50.4,0l0,0c-4.8,0.4-9.2,3.2-11.4,7.5l-31.6,60.5
		c-3.6,6.9-0.9,15.4,6,19c1.7,0.9,3.6,1.4,5.5,1.6c0.3,0,0.7,0,1,0c5.3,0,10-2.9,12.5-7.6l9.1-17.5v23.8c0,3.8,3.1,6.9,6.9,6.9h54.6
		c3.8,0,6.9-3.1,6.9-6.9v-25.4l10,19.1c2.4,4.7,7.2,7.6,12.5,7.6c0.3,0,0.7,0,1,0c1.9-0.1,3.8-0.7,5.5-1.6c3.3-1.7,5.8-4.7,6.9-8.2
		c1.1-3.6,0.8-7.4-0.9-10.7L169.5,631.8z"/>
</g>
</svg>
