<?xml version="1.0" encoding="utf-8"?>
<!-- Generator: Adobe Illustrator 17.1.0, SVG Export Plug-In . SVG Version: 6.00 Build 0)  -->
<!DOCTYPE svg PUBLIC "-//W3C//DTD SVG 1.1//EN" "http://www.w3.org/Graphics/SVG/1.1/DTD/svg11.dtd">
<svg version="1.1" id="Capa_1" xmlns="http://www.w3.org/2000/svg" xmlns:xlink="http://www.w3.org/1999/xlink" x="0px" y="0px"
	 viewBox="0 0 907.6 907.6" enable-background="new 0 0 907.6 907.6" xml:space="preserve">
<path fill="#F44336" d="M855.1,401.3H179.8l41.7-42.2c20.4-20.6,20.2-53.9-0.4-74.2c-20.6-20.4-53.9-20.2-74.2,0.4L15.2,418.6
	C5.4,428.5-0.1,441.9,0,455.8c0.1,13.9,5.7,27.2,15.6,37l131.5,129.9c10.2,10.1,23.6,15.2,36.9,15.2c13.5,0,27.1-5.2,37.3-15.6
	c20.4-20.6,20.2-53.9-0.4-74.2l-42.3-41.7h676.5c29,0,52.5-23.5,52.5-52.5C907.6,424.8,884.1,401.3,855.1,401.3z"/>
</svg>
