<?xml version="1.0" encoding="utf-8"?>
<!-- Generator: Adobe Illustrator 17.1.0, SVG Export Plug-In . SVG Version: 6.00 Build 0)  -->
<!DOCTYPE svg PUBLIC "-//W3C//DTD SVG 1.1//EN" "http://www.w3.org/Graphics/SVG/1.1/DTD/svg11.dtd">
<svg version="1.1" id="Capa_1" xmlns="http://www.w3.org/2000/svg" xmlns:xlink="http://www.w3.org/1999/xlink" x="0px" y="0px"
	 viewBox="0 0 595.3 841.9" enable-background="new 0 0 595.3 841.9" xml:space="preserve">
<g>
	<g>
		<g>
			<path fill="#4CAF50" d="M587,425.8c-4.8-31.3-27.7-57.8-62.7-68.7c-18.1-6-50.6-13.3-75.9-19.3c47-67.5,55.4-136.2,38.6-175.9
				c-10.8-24.1-30.1-38.6-55.4-38.6c-54.2,0-62.7,49.4-74.7,83.1c-8.4,25.3-50.6,71.1-113.3,106c-47,26.5-91.6,61.5-94,62.7
				c-6,4.8-9.6,12.1-9.6,20.5v253.1c0,8.4,3.6,15.7,10.8,20.5c37.4,26.5,171.1,49.4,237.4,49.4c34.9,0,48.2-6,55.4-9.6
				c30.1-16.9,69.9-112.1,98.8-192.8C576.2,490.8,591.8,458.3,587,425.8z M505.1,477.6c-4.8,3.6-7.2,8.4-9.6,13.3
				c-26.5,72.3-63.9,157.9-78.3,172.3c-2.4,1.2-9.6,3.6-28.9,3.6c-62.7,0-159.1-19.3-195.2-33.7V408.9
				c15.7-12.1,45.8-33.7,75.9-50.6c67.5-38.6,124.1-91.6,138.6-135c1.2-4.8,2.4-10.8,3.6-15.7c10.8-32.5,13.3-32.5,20.5-32.5
				c2.4,0,4.8,0,8.4,7.2c10.8,25.3,1.2,90.4-56.6,153c-14.5,15.7-4.8,39.8,13.3,43.4c1.2,0,79.5,18.1,112.1,27.7
				c15.7,4.8,25.3,15.7,26.5,26.5C537.6,447.5,525.6,463.1,505.1,477.6z"/>
			<path fill="#4CAF50" d="M49.6,349.8c-24.1,0-42.2,18.1-42.2,42.2v259.1c0,24.1,18.1,42.2,42.2,42.2S93,675.2,93,651.1V392
				C93,367.9,73.7,349.8,49.6,349.8z"/>
		</g>
	</g>
</g>
</svg>
