<?xml version="1.0" encoding="utf-8"?>
<!-- Generator: Adobe Illustrator 17.1.0, SVG Export Plug-In . SVG Version: 6.00 Build 0)  -->
<!DOCTYPE svg PUBLIC "-//W3C//DTD SVG 1.1//EN" "http://www.w3.org/Graphics/SVG/1.1/DTD/svg11.dtd">
<svg version="1.1" id="Capa_1" xmlns="http://www.w3.org/2000/svg" xmlns:xlink="http://www.w3.org/1999/xlink" x="0px" y="0px"
	 viewBox="0 0 595.3 841.9" enable-background="new 0 0 595.3 841.9" xml:space="preserve">
<g>
	<path fill="#F44336" d="M409.3,421l167.5-167.6c24.6-24.6,24.6-64.8,0-89.4l-22.3-22.3c-24.6-24.6-64.8-24.6-89.4,0L297.7,309.3
		L130.1,141.8c-24.5-24.6-64.8-24.6-89.3,0l-22.4,22.3c-24.5,24.6-24.5,64.8,0,89.4L186,421L18.4,588.5c-24.5,24.6-24.5,64.8,0,89.3
		l22.4,22.3c24.6,24.6,64.8,24.6,89.3,0l167.6-167.5l167.5,167.5c24.6,24.6,64.8,24.6,89.4,0l22.3-22.3c24.6-24.6,24.6-64.8,0-89.3
		L409.3,421z"/>
</g>
</svg>
