<?xml version="1.0" encoding="utf-8"?>
<!-- Generator: Adobe Illustrator 17.1.0, SVG Export Plug-In . SVG Version: 6.00 Build 0)  -->
<!DOCTYPE svg PUBLIC "-//W3C//DTD SVG 1.1//EN" "http://www.w3.org/Graphics/SVG/1.1/DTD/svg11.dtd">
<svg version="1.1" id="Capa_1" xmlns="http://www.w3.org/2000/svg" xmlns:xlink="http://www.w3.org/1999/xlink" x="0px" y="0px"
	 viewBox="0 0 595.3 841.9" enable-background="new 0 0 595.3 841.9" xml:space="preserve">
<g>
	<g>
		<g>
			<path fill="#FFFF8D" d="M301.2,123.3c0.2,0,0.3,0,0.3,0c0.2,0,0.2,0,0.4,0c0.1,0,0.2,0,0.3,0c0,0,0,0,0.1,0c0.7-0.1,0.9,0,1.4,0
				c76.9,0,151.8,30.5,207.1,84.1l61.1-61.8c2.8-2.9,7.3-3.8,10.9-2.3c3.8,1.5,6.5,5.3,6.5,9.4L579,363.8H380.9c-0.1,0-0.4,0-0.6,0
				c-5.5,0-10.1-4.6-10.1-10.3c0-3.7,2.1-7,5.1-8.8l60.2-60.9c-35.7-34.4-82.1-53.2-133.2-53.2c-104.1,0.6-188.9,85.9-188.9,191.6
				C114.2,525.7,198.8,610,304,610.7c68.6-3.7,133.2-44.4,164.1-112l97.5,45l-0.7,1.4c-66.8,129.1-172,183.5-284.8,171.9
				C127.8,705,7,577.5,6,420.8C5.9,258.1,138.2,124.8,301.2,123.3z"/>
		</g>
	</g>
</g>
</svg>
