<?xml version="1.0" encoding="utf-8"?>
<!-- Generator: Adobe Illustrator 17.1.0, SVG Export Plug-In . SVG Version: 6.00 Build 0)  -->
<!DOCTYPE svg PUBLIC "-//W3C//DTD SVG 1.1//EN" "http://www.w3.org/Graphics/SVG/1.1/DTD/svg11.dtd">
<svg version="1.1" id="Capa_1" xmlns="http://www.w3.org/2000/svg" xmlns:xlink="http://www.w3.org/1999/xlink" x="0px" y="0px"
	 viewBox="0 0 907.6 907.6" enable-background="new 0 0 907.6 907.6" xml:space="preserve">
<path fill="#F44336" d="M760.8,285.3c-20.4-20.6-53.6-20.8-74.2-0.4c-20.6,20.4-20.8,53.6-0.4,74.2l41.7,42.2H52.5
	c-29,0-52.5,23.5-52.5,52.5c0,29,23.5,52.5,52.5,52.5H729l-42.3,41.7c-20.6,20.4-20.8,53.6-0.4,74.2c10.3,10.4,23.8,15.6,37.3,15.6
	c13.3,0,26.7-5,36.9-15.2L892,492.8c9.9-9.8,15.5-23.1,15.6-37s-5.4-27.3-15.2-37.2L760.8,285.3z"/>
</svg>
