<?xml version="1.0" encoding="utf-8"?>
<!-- Generator: Adobe Illustrator 17.1.0, SVG Export Plug-In . SVG Version: 6.00 Build 0)  -->
<!DOCTYPE svg PUBLIC "-//W3C//DTD SVG 1.1//EN" "http://www.w3.org/Graphics/SVG/1.1/DTD/svg11.dtd">
<svg version="1.1" id="Capa_1" xmlns="http://www.w3.org/2000/svg" xmlns:xlink="http://www.w3.org/1999/xlink" x="0px" y="0px"
	 viewBox="0 0 53.9 53.9" enable-background="new 0 0 53.9 53.9" xml:space="preserve">
<g>
	<g>
		<g>
			<path fill="#F44336" d="M27,53.9c-14.9,0-27-12.1-27-27C0,12.1,12.1,0,27,0s27,12.1,27,27S41.8,53.9,27,53.9z M27,3.9
				c-12.7,0-23,10.3-23,23c0,12.7,10.3,23,23,23c12.7,0,23-10.3,23-23C50,14.3,39.7,3.9,27,3.9z"/>
		</g>
		<g>
			<path fill="#F44336" d="M15.2,40.1c-0.5,0-1-0.2-1.4-0.5c-0.8-0.8-0.8-2-0.1-2.8c3.6-3.8,8.5-5.8,13.7-5.8
				c4.6,0,9.1,1.7,12.5,4.7c0.8,0.7,0.9,2,0.2,2.8c-0.7,0.8-2,0.9-2.8,0.2c-2.7-2.4-6.3-3.8-9.9-3.8c-4.1,0-8,1.6-10.8,4.6
				C16.3,39.9,15.7,40.1,15.2,40.1z"/>
		</g>
		<g>
			<g>
				<circle fill="#F44336" cx="20.9" cy="24.4" r="2.6"/>
			</g>
			<g>
				<circle fill="#F44336" cx="33.1" cy="24.4" r="2.6"/>
			</g>
		</g>
	</g>
</g>
</svg>
