<?xml version="1.0" encoding="utf-8"?>
<!-- Generator: Adobe Illustrator 17.1.0, SVG Export Plug-In . SVG Version: 6.00 Build 0)  -->
<!DOCTYPE svg PUBLIC "-//W3C//DTD SVG 1.1//EN" "http://www.w3.org/Graphics/SVG/1.1/DTD/svg11.dtd">
<svg version="1.1" id="Capa_1" xmlns="http://www.w3.org/2000/svg" xmlns:xlink="http://www.w3.org/1999/xlink" x="0px" y="0px"
	 viewBox="0 0 31.9 31.9" enable-background="new 0 0 31.9 31.9" xml:space="preserve">
<g>
	<g>
		<path fill="#03A9F4" d="M24.9,6.2c-2-3.2-5.2-5.5-9.1-6.1c-7.1-1-13,4.3-14.7,11.6c-2.1,9.2,0.3,12.4,4.7,12.5
			c0.8-0.7,1.8-1.3,2.9-1.7L24.9,6.2z M11.8,5.6c0.2-1.7,1.8-3,3.6-2.7s3,1.8,2.7,3.6s-1.8,2.9-3.6,2.7C12.8,8.9,11.6,7.3,11.8,5.6z
			 M5.2,9c0.2-1.3,1.4-2.2,2.7-2c1.3,0.2,2.2,1.4,2,2.7c-0.2,1.3-1.4,2.2-2.7,2C6,11.5,5.1,10.3,5.2,9z M5.9,19.6
			c-1.3-0.2-2.2-1.4-2-2.7c0.2-1.3,1.4-2.2,2.7-2c1.3,0.2,2.2,1.4,2,2.7C8.4,18.9,7.2,19.8,5.9,19.6z"/>
		<path fill="#03A9F4" d="M19.3,21.3l0.3-0.4L31.6,5.3c0-0.3-0.2-0.6-0.6-1c-0.9-0.8-1.5-0.4-1.5-0.4L15.6,17.3l-0.4,0.3L19.3,21.3z
			"/>
		<path fill="#03A9F4" d="M14.5,26.6l0.3-0.4l3.7-4.2l-4.1-3.6l-3.7,4.1L10.5,23L14.5,26.6z M12.3,22.4l1.9-2.1
			c0.2-0.2,0.5-0.2,0.7,0l0.2,0.2c0.1,0.1,0.1,0.2,0.2,0.3c0,0.1,0,0.2-0.1,0.3l-1.9,2.1c-0.2,0.2-0.5,0.2-0.7,0L12.3,23
			c-0.1-0.1-0.1-0.2-0.2-0.3C12.2,22.6,12.2,22.5,12.3,22.4z"/>
		<path fill="#03A9F4" d="M13.4,27.7L13.4,27.7c0,0,0.2-0.3,0.2-0.4l-3.8-3.4c-0.1,0-0.2,0-0.3,0.1c0,0,0,0,0,0
			c-3.1,0.7-6.1,4-3,7.7c0.1,0.2,0.4,0.2,0.6,0.2s0.4-0.2,0.4-0.4c0.1-0.5,0.3-1,0.7-1.4C9.2,29.1,11.8,30.5,13.4,27.7z M9.7,28.7
			c-0.8,0-1.6,0.1-2.2,0.6c-0.1,0.1-0.2,0.2-0.3,0.4c-0.1,0.1-0.3,0.2-0.5,0.2s-0.3-0.2-0.4-0.3c-0.2-0.5-0.2-1.1,0-1.7
			c0.1-0.3,0.3-0.7,0.5-0.9c0.8,0.8,1.4,1.3,2.7,1.2c0.8-0.1,1.5,0,2.2,0.1C11.1,28.6,10.4,28.6,9.7,28.7z"/>
	</g>
</g>
</svg>
