<?xml version="1.0" encoding="utf-8"?>
<!-- Generator: Adobe Illustrator 17.1.0, SVG Export Plug-In . SVG Version: 6.00 Build 0)  -->
<!DOCTYPE svg PUBLIC "-//W3C//DTD SVG 1.1//EN" "http://www.w3.org/Graphics/SVG/1.1/DTD/svg11.dtd">
<svg version="1.1" id="Capa_1" xmlns="http://www.w3.org/2000/svg" xmlns:xlink="http://www.w3.org/1999/xlink" x="0px" y="0px"
	 viewBox="0 0 595.3 841.9" enable-background="new 0 0 595.3 841.9" xml:space="preserve">
<g>
	<g>
		<path fill="#F44336" d="M443.3,171.5c-37.4-26.5-169.9-48.2-236.2-48.2c-34.9,0-48.2,6-55.4,9.6C121.5,149.8,81.8,245,52.8,325.7
			C19.1,351,3.4,383.5,8.2,416.1c4.8,31.3,27.7,57.8,62.7,68.7c18.1,6,49.4,13.3,74.7,19.3C98.6,571.6,90.2,640.3,107,680
			c10.8,24.1,31.3,38.6,56.6,38.6c54.2,0,62.7-49.4,74.7-83.1c8.4-25.3,50.6-71.1,113.3-106c47-26.5,90.4-61.5,92.8-62.7
			c6-4.8,10.8-12.1,10.8-20.5V193.2C455.3,184.8,450.5,176.3,443.3,171.5z M402.3,433c-15.7,12.1-45.8,33.7-75.9,50.6
			c-67.5,38.6-124.1,91.6-138.6,135c-1.2,4.8-3.6,9.6-4.8,14.5c-10.8,32.5-12.1,33.7-19.3,33.7c-2.4,0-4.8-1.2-8.4-8.4
			c-10.8-25.3-1.2-89.2,56.6-151.8c14.5-15.7,4.8-39.8-13.3-43.4c-1.2,0-79.5-19.3-112.1-28.9C70.8,429.5,61.2,419.8,60,409
			c-2.4-14.5,8.4-30.1,28.9-44.6c4.8-3.6,8.4-8.4,10.8-13.3c26.5-72.3,63.9-159.1,78.3-173.5c2.4-1.2,9.6-2.4,28.9-2.4
			c62.7,0,159.1,19.3,195.2,33.7V433H402.3z"/>
		<path fill="#F44336" d="M545.7,148.6c-24.1,0-43.4,18.1-43.4,42.2v257.9c0,24.1,19.3,43.4,43.4,43.4c24.1,0,42.2-19.3,42.2-43.4
			V190.8C587.9,166.7,569.8,148.6,545.7,148.6z"/>
	</g>
</g>
</svg>
